<svg width="403" height="403" viewBox="0 0 403 403" fill="none" xmlns="http://www.w3.org/2000/svg">
<path d="M195.075 356.905L194.323 362.926L180.308 372.411C179.254 373.15 178.35 373.833 177.596 374.461C176.84 375.099 176.243 375.758 175.803 376.436C175.362 377.125 175.088 377.898 174.981 378.755C174.862 379.714 174.968 380.557 175.301 381.286C175.633 382.026 176.142 382.628 176.828 383.091C177.515 383.555 178.332 383.846 179.279 383.964C180.237 384.083 181.102 383.991 181.873 383.686C182.642 383.393 183.276 382.905 183.773 382.223C184.259 381.539 184.568 380.673 184.699 379.624L192.631 380.614C192.337 382.971 191.553 384.94 190.28 386.522C189.006 388.103 187.353 389.237 185.32 389.922C183.275 390.618 180.979 390.806 178.43 390.488C175.803 390.161 173.574 389.436 171.745 388.314C169.915 387.193 168.568 385.777 167.705 384.066C166.83 382.365 166.521 380.477 166.78 378.402C166.945 377.083 167.373 375.808 168.065 374.577C168.757 373.346 169.888 372.033 171.459 370.637C173.019 369.24 175.193 367.605 177.981 365.731L182.602 362.425L182.629 362.206L168.59 360.454L169.432 353.705L195.075 356.905Z" fill="#008F11"/>
<path d="M159.244 351.008L136.621 372.55L136.546 372.759L152.057 378.286L149.774 384.693L126.042 376.235L128.343 369.781L151.072 348.096L159.244 351.008Z" fill="#008F11"/>
<path d="M93.6637 359.117L85.6985 352.354L92.9306 330.142L92.6187 329.877L71.8731 340.616L63.908 333.853L86.502 307.242L92.7649 312.56L78.8864 328.906L79.1073 329.093L99.2353 318.344L103.237 321.742L95.818 343.438L96.0389 343.626L109.995 327.188L116.258 332.506L93.6637 359.117Z" fill="#008F11"/>
<path d="M76.8641 293.087C77.8142 294.461 78.4286 295.839 78.7075 297.221C78.9705 298.601 78.848 299.922 78.3399 301.185C77.816 302.445 76.8438 303.567 75.4231 304.549C74.2267 305.377 73.0719 305.864 71.9585 306.013C70.8452 306.161 69.7762 306.043 68.7515 305.66C67.7269 305.278 66.7508 304.695 65.8234 303.914C64.8866 303.138 63.9934 302.236 63.1437 301.207C62.1849 300.06 61.3862 299.155 60.7476 298.491C60.0997 297.834 59.5425 297.418 59.0762 297.243C58.594 297.066 58.1333 297.129 57.694 297.432L57.6239 297.481C56.9043 297.978 56.5194 298.611 56.4694 299.378C56.4194 300.144 56.6853 300.948 57.267 301.79C57.8939 302.696 58.5943 303.289 59.3682 303.569C60.1421 303.849 60.9266 303.825 61.7216 303.496L65.8698 309.974C64.432 310.692 62.9308 311.019 61.3662 310.954C59.7859 310.886 58.2294 310.374 56.6969 309.416C55.1487 308.456 53.7088 307.013 52.3773 305.088C51.4272 303.714 50.715 302.334 50.2407 300.949C49.757 299.571 49.5263 298.238 49.5485 296.951C49.5614 295.671 49.8503 294.491 50.415 293.409C50.9733 292.319 51.8226 291.379 52.9629 290.591L67.5995 280.469L72.0592 286.918L69.059 288.993L69.1753 289.161C70.1694 289.04 71.1256 289.104 72.0439 289.353C72.9558 289.593 73.8159 290.028 74.6241 290.657C75.4258 291.277 76.1725 292.087 76.8641 293.087ZM70.9138 294.073C70.4032 293.334 69.7947 292.774 69.0885 292.392C68.3757 292.001 67.6348 291.808 66.8658 291.815C66.0875 291.828 65.3478 292.077 64.6468 292.562L62.5999 293.978C62.8385 294.103 63.0967 294.276 63.3748 294.499C63.6463 294.712 63.9326 294.956 64.2336 295.231C64.5346 295.507 64.8327 295.798 65.1279 296.105C65.4231 296.412 65.704 296.708 65.9705 296.994C66.5192 297.567 67.0595 298.009 67.5911 298.318C68.1163 298.618 68.6359 298.77 69.1498 298.774C69.6478 298.775 70.1305 298.614 70.5978 298.291C71.3082 297.8 71.6758 297.172 71.7006 296.409C71.719 295.637 71.4567 294.858 70.9138 294.073Z" fill="#008F11"/>
<path d="M33.0526 268.785L38.6529 266.277L45.4044 281.351L39.8041 283.859L33.0526 268.785ZM32.665 283.265L29.2578 275.658L51.3634 265.757C51.8301 265.548 52.1762 265.306 52.4015 265.031C52.6119 264.75 52.7142 264.436 52.7086 264.09C52.6926 263.749 52.5941 263.376 52.4129 262.971C52.2828 262.681 52.1199 262.387 51.924 262.088C51.7132 261.784 51.5498 261.559 51.434 261.411L56.4098 257.801C56.6761 258.117 57.0357 258.572 57.4885 259.167C57.9367 259.75 58.3859 260.489 58.8362 261.383C59.7181 263.13 60.1958 264.752 60.2694 266.251C60.3279 267.744 59.974 269.067 59.2077 270.219C58.4368 271.361 57.2378 272.284 55.6106 272.988L32.665 283.265Z" fill="#008F11"/>
<path d="M53.7702 249.251L28.4827 256.036L26.3847 248.216L30.9944 246.979L30.9237 246.716C29.1317 246.702 27.6898 246.283 26.5979 245.459C25.495 244.637 24.758 243.534 24.387 242.151C24.2869 241.778 24.2112 241.387 24.1601 240.977C24.098 240.57 24.0707 240.183 24.0782 239.816L31.0751 237.939C31.0464 238.359 31.0776 238.892 31.1686 239.538C31.2567 240.173 31.3655 240.732 31.4951 241.215C31.7513 242.17 32.1964 242.974 32.8306 243.628C33.4509 244.273 34.1985 244.714 35.0736 244.949C35.9348 245.177 36.8703 245.156 37.88 244.885L51.6103 241.201L53.7702 249.251Z" fill="#008F11"/>
<path d="M48.1185 224.662L22.1308 227.844L21.1176 219.571L47.1053 216.389L48.1185 224.662ZM18.5947 224.07C18.7369 225.232 18.4757 226.277 17.8109 227.206C17.1348 228.136 16.2497 228.668 15.1556 228.802C14.0728 228.934 13.0968 228.63 12.2276 227.889C11.3471 227.15 10.8357 226.199 10.6934 225.038C10.5498 223.864 10.8167 222.819 11.4941 221.9C12.1589 220.971 13.0327 220.441 14.1156 220.308C15.2097 220.174 16.197 220.477 17.0774 221.216C17.9453 221.946 18.451 222.897 18.5947 224.07Z" fill="#008F11"/>
<path d="M39.5343 198.816L29.6076 198.351L29.6579 197.193L20.6109 189.43L21.0203 179.996L33.9651 191.511L33.8698 193.708L39.5343 198.816ZM46.0713 206.624L11.195 205.111L11.5564 196.783L46.4326 198.297L46.0713 206.624ZM46.7762 190.378L35.6144 196.752L29.9431 191.013L47.1937 180.756L46.7762 190.378Z" fill="#008F11"/>
<path d="M16.1243 159.825L19.9313 160.606C20.9889 160.823 22.0141 161.254 23.0071 161.899C23.9913 162.53 24.8824 163.275 25.6804 164.135C26.4785 164.995 27.1238 165.864 27.6165 166.742L25.0004 169.825C24.2594 169.139 23.4013 168.487 22.426 167.87C21.4396 167.25 20.2116 166.789 18.7422 166.487L14.9185 165.703L16.1243 159.825Z" fill="#008F11"/>
<path d="M43.2763 130.009L40.7847 137.248C40.246 137.131 39.718 137.164 39.2007 137.347C38.6728 137.525 38.1975 137.839 37.7748 138.287C37.3454 138.721 37.0013 139.284 36.7423 139.975C36.4037 140.88 36.2958 141.719 36.4186 142.493C36.5454 143.257 36.9194 143.749 37.5406 143.969C38.0155 144.159 38.5023 144.123 39.0009 143.86C39.5035 143.588 40.0544 142.975 40.6537 142.022L43.3166 137.632C44.7012 135.359 46.1593 133.83 47.6911 133.045C49.2268 132.248 50.8906 132.18 52.6825 132.838C54.36 133.478 55.6361 134.526 56.5107 135.982C57.3893 137.427 57.8558 139.131 57.9101 141.093C57.9538 143.05 57.5653 145.125 56.7446 147.318C55.4338 150.819 53.6816 153.312 51.488 154.796C49.2876 156.266 46.9204 156.69 44.3864 156.069L47.0813 148.287C48.039 148.451 48.8854 148.265 49.6206 147.727C50.3558 147.189 50.9306 146.367 51.3449 145.26C51.7194 144.26 51.8379 143.376 51.7005 142.608C51.5631 141.841 51.1877 141.337 50.5744 141.095C50.0171 140.898 49.4838 140.978 48.9746 141.333C48.4547 141.685 47.9078 142.335 47.3338 143.285L44.9181 147.259C43.5508 149.55 42.0408 151.071 40.388 151.824C38.7246 152.572 36.9583 152.591 35.0892 151.879C33.4463 151.276 32.2102 150.316 31.3809 148.998C30.5409 147.676 30.117 146.086 30.1093 144.227C30.1016 142.367 30.5121 140.331 31.3408 138.117C32.5838 134.797 34.2609 132.44 36.3722 131.046C38.4728 129.648 40.7742 129.302 43.2763 130.009Z" fill="#008F11"/>
<path d="M72.1827 114.982L67.4378 111.2L66.6584 94.2942C66.5781 93.0095 66.4671 91.8819 66.3252 90.9113C66.1745 89.9337 65.9246 89.0805 65.5755 88.3517C65.2175 87.6158 64.7009 86.9787 64.0256 86.4403C63.2703 85.8382 62.495 85.489 61.6998 85.3928C60.8957 85.2894 60.1168 85.4097 59.3631 85.7535C58.6095 86.0973 57.9351 86.6424 57.3401 87.3887C56.738 88.144 56.3657 88.93 56.2234 89.7466C56.0721 90.5561 56.1578 91.351 56.4803 92.1313C56.81 92.9028 57.388 93.6179 58.2143 94.2767L53.2309 100.528C51.3738 99.0472 50.1029 97.3509 49.4182 95.439C48.7335 93.527 48.6289 91.5253 49.1045 89.4339C49.5783 87.3265 50.6157 85.2688 52.2166 83.2606C53.8671 81.1903 55.6481 79.6672 57.5596 78.6914C59.471 77.7156 61.3817 77.306 63.2916 77.4625C65.1996 77.603 66.9711 78.3249 68.606 79.6283C69.6457 80.4571 70.5099 81.4876 71.1988 82.7199C71.8877 83.9521 72.4176 85.6026 72.7885 87.6713C73.1665 89.7311 73.4275 92.4388 73.5716 95.7945L73.9806 101.461L74.1539 101.599L82.9731 90.537L88.2911 94.7766L72.1827 114.982Z" fill="#008F11"/>
<path d="M95.9075 87.4922L89.3344 56.9525L89.1951 56.7801L76.387 67.128L72.1129 61.8377L91.7095 46.0052L96.0158 51.3353L102.656 82.0398L95.9075 87.4922Z" fill="#008F11"/>
<path d="M123.207 27.3147L133.132 24.0482L148.308 41.8075L148.697 41.6796L150.359 18.3783L160.284 15.1117L171.198 48.271L163.394 50.8395L156.69 30.4712L156.415 30.5618L155.083 53.3414L150.096 54.9827L135.458 37.3333L135.183 37.4239L141.924 57.9056L134.12 60.4741L123.207 27.3147Z" fill="#008F11"/>
<path d="M188.302 47.4344C186.634 47.528 185.138 47.3332 183.813 46.8499C182.499 46.3547 181.436 45.5608 180.623 44.4683C179.822 43.3638 179.372 41.9492 179.275 40.2247C179.194 38.7724 179.38 37.5327 179.835 36.5056C180.289 35.4785 180.947 34.6278 181.808 33.9534C182.67 33.2791 183.676 32.7502 184.826 32.3669C185.976 31.9722 187.212 31.6809 188.533 31.4929C190.012 31.2733 191.201 31.0642 192.1 30.8657C192.999 30.6559 193.645 30.3977 194.037 30.0911C194.44 29.7725 194.627 29.3466 194.597 28.8134L194.592 28.7283C194.543 27.8547 194.205 27.1965 193.576 26.7537C192.948 26.311 192.124 26.1183 191.103 26.1756C190.002 26.2375 189.131 26.5254 188.488 27.0396C187.845 27.5537 187.457 28.2356 187.322 29.0854L179.632 29.2442C179.769 27.6431 180.274 26.192 181.146 24.8911C182.028 23.5782 183.277 22.5178 184.894 21.71C186.521 20.8902 188.503 20.4147 190.84 20.2834C192.508 20.1897 194.056 20.3019 195.485 20.62C196.914 20.9267 198.171 21.4252 199.257 22.1154C200.342 22.7942 201.199 23.6566 201.827 24.7026C202.466 25.7479 202.824 26.9627 202.902 28.3469L203.9 46.1143L196.071 46.5541L195.867 42.9121L195.663 42.9235C195.247 43.8346 194.694 44.6169 194.002 45.2704C193.322 45.9232 192.502 46.4302 191.544 46.7913C190.596 47.1518 189.516 47.3662 188.302 47.4344ZM190.566 41.8441C191.462 41.7937 192.257 41.5669 192.952 41.1637C193.658 40.7599 194.208 40.2282 194.604 39.5686C194.998 38.8976 195.172 38.1367 195.124 37.2858L194.985 34.8011C194.753 34.9393 194.47 35.069 194.136 35.1902C193.812 35.3108 193.455 35.4276 193.063 35.5407C192.671 35.6538 192.267 35.7561 191.851 35.8478C191.435 35.9394 191.036 36.0245 190.653 36.1029C189.877 36.2716 189.219 36.5021 188.677 36.7943C188.147 37.0858 187.747 37.4498 187.475 37.8861C187.215 38.3105 187.1 38.8064 187.132 39.3736C187.18 40.2359 187.524 40.8768 188.162 41.2962C188.811 41.715 189.613 41.8976 190.566 41.8441Z" fill="#008F11"/>
<path d="M231.893 22.7385L231.11 28.8248L214.728 26.7196L215.51 20.6333L231.893 22.7385ZM219.742 14.8527L228.009 15.9151L224.922 39.9392C224.857 40.4464 224.883 40.8679 225 41.2037C225.13 41.5298 225.344 41.7807 225.642 41.9565C225.942 42.1211 226.311 42.2316 226.751 42.2881C227.066 42.3286 227.403 42.3432 227.759 42.3317C228.129 42.3104 228.406 42.2888 228.592 42.2669L229.077 48.3957C228.668 48.4577 228.092 48.5269 227.349 48.6032C226.617 48.6811 225.752 48.6788 224.754 48.5964C222.804 48.4374 221.171 47.9984 219.854 47.2792C218.55 46.5503 217.606 45.5582 217.023 44.3032C216.451 43.0496 216.289 41.5451 216.537 39.7897L219.742 14.8527Z" fill="#008F11"/>
<path d="M237.747 50.6045L245.153 25.492L252.919 27.7822L251.569 32.36L251.831 32.4372C252.777 30.9155 253.887 29.904 255.16 29.4028C256.437 28.8907 257.762 28.8372 259.135 29.2422C259.505 29.3515 259.879 29.4912 260.255 29.6615C260.635 29.8208 260.979 29.9993 261.288 30.197L259.239 37.1455C258.896 36.9022 258.425 36.6508 257.826 36.3913C257.238 36.135 256.705 35.9361 256.225 35.7947C255.277 35.515 254.358 35.4752 253.47 35.6753C252.596 35.8677 251.83 36.2756 251.172 36.8991C250.529 37.5149 250.059 38.3242 249.763 39.327L245.742 52.9623L237.747 50.6045Z" fill="#008F11"/>
<path d="M261.673 58.6125L272.517 34.7821L280.104 38.2345L269.26 62.0649L261.673 58.6125ZM277.582 33.7348C276.517 33.25 275.762 32.4818 275.316 31.4301C274.876 30.3682 274.884 29.3355 275.34 28.3323C275.792 27.3393 276.561 26.6653 277.646 26.3103C278.736 25.9449 279.814 26.0047 280.879 26.4895C281.955 26.979 282.708 27.7523 283.138 28.8096C283.584 29.8612 283.58 30.8835 283.129 31.8764C282.672 32.8797 281.899 33.564 280.808 33.9294C279.733 34.2891 278.658 34.2243 277.582 33.7348Z" fill="#008F11"/>
<path d="M288.201 64.7745L293.777 56.5486L294.738 57.1957L306.081 53.5282L313.916 58.7998L297.339 63.8349L295.514 62.6074L288.201 64.7745ZM278.129 66.2775L297.617 37.3142L304.533 41.9673L285.045 70.9306L278.129 66.2775ZM291.621 75.3553L292.007 62.5073L299.862 60.664L299.611 80.7316L291.621 75.3553Z" fill="#008F11"/>
<path d="M333.678 65.1472L331.026 67.9875C330.289 68.7765 329.386 69.4264 328.318 69.9373C327.266 70.4476 326.166 70.8188 325.016 71.0511C323.866 71.2833 322.788 71.3805 321.782 71.3425L320.517 67.5024C321.488 67.228 322.492 66.8359 323.528 66.3262C324.571 65.8081 325.605 65.001 326.629 63.9047L329.293 61.0519L333.678 65.1472Z" fill="#008F11"/>
<path d="M344.948 103.867L340.072 97.9647C340.453 97.566 340.7 97.0984 340.814 96.5619C340.938 96.0184 340.918 95.4494 340.756 94.8548C340.61 94.2622 340.31 93.6749 339.855 93.0931C339.259 92.3322 338.6 91.8022 337.875 91.5032C337.158 91.213 336.543 91.2755 336.031 91.6904C335.621 91.9965 335.398 92.4306 335.362 92.9928C335.332 93.564 335.568 94.3537 336.068 95.362L338.424 99.9245C339.64 102.291 340.184 104.333 340.055 106.05C339.933 107.775 339.123 109.23 337.626 110.415C336.205 111.513 334.645 112.054 332.947 112.041C331.256 112.036 329.559 111.546 327.857 110.568C326.164 109.584 324.597 108.17 323.155 106.326C320.851 103.381 319.639 100.586 319.518 97.9398C319.412 95.296 320.285 93.0552 322.137 91.2174L327.37 97.5767C326.73 98.308 326.447 99.1275 326.523 100.035C326.598 100.943 326.999 101.862 327.727 102.793C328.385 103.635 329.078 104.197 329.804 104.48C330.53 104.763 331.156 104.706 331.683 104.309C332.141 103.936 332.352 103.44 332.314 102.82C332.286 102.193 332.016 101.387 331.505 100.402L329.376 96.2678C328.134 93.906 327.624 91.8238 327.845 90.0213C328.074 88.2117 328.98 86.6954 330.562 85.4723C331.934 84.3853 333.398 83.8318 334.955 83.8117C336.52 83.7846 338.098 84.2529 339.689 85.2164C341.279 86.18 342.802 87.5927 344.258 89.4546C346.442 92.2474 347.578 94.908 347.665 97.4363C347.762 99.9576 346.856 102.101 344.948 103.867Z" fill="#008F11"/>
<path d="M342.685 136.367L348.388 134.293L363.216 142.449C364.354 143.051 365.374 143.544 366.276 143.93C367.189 144.311 368.047 144.543 368.851 144.625C369.665 144.704 370.478 144.596 371.29 144.3C372.198 143.97 372.9 143.491 373.397 142.863C373.905 142.231 374.209 141.504 374.309 140.681C374.409 139.859 374.295 138.999 373.969 138.102C373.639 137.195 373.163 136.467 372.54 135.919C371.929 135.368 371.206 135.026 370.372 134.894C369.542 134.773 368.63 134.893 367.637 135.254L364.904 127.742C367.136 126.93 369.246 126.73 371.235 127.144C373.223 127.557 374.985 128.513 376.521 130.009C378.072 131.513 379.286 133.472 380.164 135.885C381.069 138.374 381.439 140.688 381.274 142.827C381.109 144.967 380.462 146.811 379.332 148.359C378.217 149.913 376.676 151.048 374.711 151.762C373.462 152.217 372.132 152.416 370.721 152.361C369.311 152.306 367.626 151.897 365.668 151.134C363.713 150.382 361.267 149.192 358.329 147.564L353.282 144.956L353.073 145.032L357.909 158.327L351.518 160.652L342.685 136.367Z" fill="#008F11"/>
<path d="M353.758 170.95L383.241 181.277L383.461 181.248L381.316 164.922L388.059 164.036L391.341 189.015L384.547 189.907L354.888 179.552L353.758 170.95Z" fill="#008F11"/>
<path d="M390.852 225.637L388.46 235.808L365.392 239.489L365.298 239.887L384.309 253.463L381.917 263.634L347.935 255.644L349.815 247.646L370.689 252.554L370.756 252.272L352.017 239.251L353.219 234.14L375.913 230.861L375.979 230.579L354.989 225.644L356.87 217.646L390.852 225.637Z" fill="#008F11"/>
<path d="M339.724 270.672C340.515 269.2 341.462 268.025 342.565 267.147C343.673 266.285 344.905 265.792 346.261 265.669C347.622 265.561 349.063 265.916 350.585 266.733C351.866 267.421 352.826 268.227 353.465 269.15C354.105 270.074 354.487 271.079 354.613 272.166C354.739 273.252 354.665 274.386 354.392 275.568C354.128 276.755 353.732 277.961 353.203 279.186C352.619 280.563 352.177 281.686 351.877 282.557C351.587 283.433 351.471 284.118 351.528 284.613C351.589 285.123 351.855 285.505 352.325 285.758L352.401 285.798C353.171 286.212 353.91 286.266 354.615 285.962C355.32 285.657 355.915 285.054 356.399 284.153C356.92 283.182 357.129 282.288 357.026 281.471C356.923 280.655 356.544 279.968 355.889 279.41L359.766 272.766C361.06 273.719 362.035 274.906 362.69 276.329C363.35 277.766 363.602 279.385 363.448 281.186C363.299 283.002 362.67 284.941 361.563 287.003C360.772 288.475 359.869 289.737 358.852 290.79C357.845 291.849 356.763 292.662 355.608 293.228C354.463 293.799 353.28 294.08 352.06 294.07C350.835 294.07 349.612 293.742 348.39 293.086L332.712 284.667L336.422 277.759L339.635 279.485L339.732 279.305C339.172 278.475 338.793 277.594 338.597 276.663C338.395 275.742 338.39 274.779 338.582 273.773C338.768 272.777 339.149 271.743 339.724 270.672ZM343.312 275.52C342.888 276.311 342.666 277.107 342.648 277.91C342.624 278.723 342.79 279.47 343.147 280.152C343.513 280.838 344.072 281.384 344.823 281.787L347.015 282.964C347.018 282.695 347.055 282.386 347.126 282.037C347.192 281.698 347.279 281.332 347.387 280.939C347.495 280.545 347.618 280.147 347.757 279.745C347.896 279.342 348.032 278.957 348.165 278.59C348.425 277.84 348.572 277.158 348.606 276.543C348.633 275.939 348.532 275.408 348.301 274.948C348.075 274.504 347.712 274.148 347.211 273.879C346.451 273.471 345.725 273.429 345.034 273.755C344.338 274.09 343.764 274.679 343.312 275.52Z" fill="#008F11"/>
<path d="M338.049 320.744L333.265 316.901L343.608 304.024L348.392 307.867L338.049 320.744ZM351.116 314.492L345.896 320.991L327.012 305.823C326.613 305.502 326.24 305.305 325.892 305.229C325.546 305.17 325.221 305.222 324.915 305.385C324.618 305.554 324.331 305.812 324.054 306.158C323.855 306.406 323.667 306.685 323.49 306.995C323.316 307.321 323.189 307.569 323.111 307.74L317.63 304.955C317.79 304.574 318.032 304.046 318.354 303.372C318.67 302.708 319.123 301.971 319.714 301.163C320.867 299.582 322.094 298.418 323.394 297.67C324.697 296.937 326.035 296.65 327.41 296.807C328.778 296.973 330.146 297.62 331.514 298.748L351.116 314.492Z" fill="#008F11"/>
<path d="M311.222 311.199L328.781 330.62L322.775 336.05L319.574 332.51L319.372 332.693C320.177 334.294 320.46 335.768 320.224 337.116C319.994 338.472 319.349 339.631 318.287 340.591C318 340.85 317.686 341.096 317.345 341.328C317.011 341.569 316.679 341.769 316.349 341.929L311.49 336.556C311.877 336.39 312.337 336.12 312.871 335.744C313.396 335.377 313.844 335.025 314.215 334.69C314.948 334.027 315.461 333.264 315.754 332.402C316.046 331.556 316.098 330.689 315.909 329.803C315.72 328.933 315.274 328.11 314.573 327.334L305.039 316.789L311.222 311.199Z" fill="#008F11"/>
<path d="M291.907 327.432L306.578 349.117L299.675 353.788L285.003 332.103L291.907 327.432ZM304.829 353.984C305.798 353.328 306.848 353.085 307.977 353.254C309.113 353.432 309.99 353.977 310.608 354.89C311.219 355.794 311.393 356.801 311.13 357.912C310.872 359.033 310.259 359.921 309.29 360.577C308.311 361.239 307.258 361.478 306.132 361.294C305.002 361.125 304.132 360.589 303.521 359.685C302.903 358.772 302.723 357.756 302.98 356.635C303.234 355.53 303.85 354.646 304.829 353.984Z" fill="#008F11"/>
<path d="M272.809 346.848L276.917 355.896L275.863 356.379L273.074 367.969L264.489 371.903L268.843 355.133L270.842 354.218L272.809 346.848ZM276.782 337.472L291.322 369.208L283.745 372.68L269.204 340.944L276.782 337.472ZM261.998 344.245L272.757 351.278L270.231 358.941L253.243 348.257L261.998 344.245Z" fill="#008F11"/>
<path d="M248.763 385.45L247.724 381.705C247.435 380.665 247.352 379.556 247.473 378.378C247.587 377.215 247.844 376.082 248.246 374.98C248.648 373.878 249.128 372.907 249.685 372.069L253.621 372.993C253.348 373.965 253.159 375.026 253.053 376.176C252.951 377.336 253.1 378.639 253.501 380.085L254.545 383.846L248.763 385.45Z" fill="#008F11"/>
<path d="M209.851 374.862L217.431 373.782C217.572 374.315 217.842 374.77 218.24 375.147C218.639 375.536 219.135 375.816 219.727 375.988C220.308 376.173 220.966 376.223 221.7 376.138C222.66 376.027 223.456 375.741 224.089 375.279C224.711 374.819 224.978 374.262 224.892 373.608C224.844 373.099 224.59 372.682 224.13 372.358C223.658 372.035 222.861 371.823 221.74 371.724L216.619 371.353C213.965 371.156 211.939 370.554 210.542 369.549C209.134 368.544 208.315 367.095 208.085 365.199C207.891 363.414 208.242 361.801 209.14 360.359C210.026 358.919 211.33 357.727 213.052 356.785C214.775 355.855 216.799 355.255 219.124 354.987C222.838 354.559 225.856 354.983 228.176 356.26C230.487 357.549 231.943 359.463 232.544 362.002L224.389 363.148C224.099 362.221 223.547 361.552 222.734 361.143C221.92 360.733 220.926 360.596 219.752 360.731C218.691 360.854 217.85 361.151 217.23 361.623C216.609 362.095 216.331 362.659 216.395 363.315C216.474 363.9 216.788 364.339 217.336 364.63C217.886 364.933 218.714 365.123 219.821 365.202L224.459 365.542C227.122 365.716 229.164 366.367 230.587 367.495C232.011 368.635 232.832 370.199 233.049 372.187C233.261 373.924 232.97 375.462 232.174 376.801C231.381 378.151 230.158 379.252 228.506 380.106C226.854 380.96 224.855 381.522 222.506 381.793C218.984 382.199 216.122 381.78 213.92 380.535C211.718 379.302 210.362 377.411 209.851 374.862Z" fill="#008F11"/>
</svg>
