<svg width="295" height="295" viewBox="0 0 295 295" fill="none" xmlns="http://www.w3.org/2000/svg">
<path d="M55.3125 46.0938C55.3125 33.8689 60.1688 22.1448 68.813 13.5005C77.4573 4.85629 89.1814 0 101.406 0C113.631 0 125.355 4.85629 133.999 13.5005C142.644 22.1448 147.5 33.8689 147.5 46.0938C147.5 33.8689 152.356 22.1448 161.001 13.5005C169.645 4.85629 181.369 0 193.594 0C205.819 0 217.543 4.85629 226.187 13.5005C234.831 22.1448 239.688 33.8689 239.688 46.0938V46.2044C239.688 47.495 239.687 51.1825 238.987 55.3125H276.562C281.452 55.3125 286.142 57.255 289.6 60.7127C293.057 64.1704 295 68.8601 295 73.75V92.1875C295 97.0774 293.057 101.767 289.6 105.225C286.142 108.682 281.452 110.625 276.562 110.625H18.4375C13.5476 110.625 8.85792 108.682 5.40022 105.225C1.94252 101.767 0 97.0774 0 92.1875V73.75C0 68.8601 1.94252 64.1704 5.40022 60.7127C8.85792 57.255 13.5476 55.3125 18.4375 55.3125H56.0131C55.5261 52.3013 55.2918 49.2546 55.3125 46.2044V46.0938ZM75.0037 55.3125H129.062V46.0938C129.063 42.4619 128.347 38.8656 126.957 35.5102C125.567 32.1548 123.53 29.1059 120.962 26.5378C118.394 23.9697 115.345 21.9326 111.99 20.5427C108.634 19.1528 105.038 18.4375 101.406 18.4375C97.7744 18.4375 94.1781 19.1528 90.8227 20.5427C87.4673 21.9326 84.4184 23.9697 81.8503 26.5378C79.2822 29.1059 77.2451 32.1548 75.8552 35.5102C74.4653 38.8656 73.75 42.4619 73.75 46.0938C73.75 47.6609 73.7869 51.1456 74.5797 54.0219C74.6905 54.4615 74.8322 54.8928 75.0037 55.3125ZM165.938 55.3125H219.996C220.166 54.8921 220.307 54.4609 220.42 54.0219C221.213 51.1456 221.25 47.6609 221.25 46.0938C221.25 38.7589 218.336 31.7244 213.15 26.5378C207.963 21.3513 200.929 18.4375 193.594 18.4375C186.259 18.4375 179.224 21.3513 174.038 26.5378C168.851 31.7244 165.938 38.7589 165.938 46.0938V55.3125ZM276.562 129.062V267.344C276.562 274.679 273.649 281.713 268.462 286.9C263.276 292.086 256.241 295 248.906 295H165.938V129.062H276.562ZM46.0938 295C38.7589 295 31.7244 292.086 26.5378 286.9C21.3513 281.713 18.4375 274.679 18.4375 267.344V129.062H129.062V295H46.0938Z" fill="#008F11"/>
</svg>
