<svg width="6232" height="4156" viewBox="0 0 6232 4156" fill="none" xmlns="http://www.w3.org/2000/svg">
<g filter="url(#filter0_dddddd_135_509)">
<path d="M1815.78 1880.86C1812.59 1878.77 1811 1876.41 1811 1873.8C1811 1871.18 1815.78 1868.82 1825.34 1866.73C1834.9 1864.64 1846.59 1863.59 1860.4 1863.59C1874.74 1863.59 1886.69 1864.64 1896.25 1866.73C1905.81 1868.82 1910.59 1871.18 1910.59 1873.8C1910.59 1876.41 1912.45 1878.77 1916.17 1880.86C1919.89 1882.95 1924.14 1884 1928.92 1884C1934.23 1884 1939.01 1886.09 1943.26 1890.28C1948.04 1894.46 1954.95 1905.45 1963.98 1923.25C1973.54 1941.04 1984.43 1963.54 1996.64 1990.75C2008.86 2017.96 2026.66 2058.25 2050.03 2111.63C2056.4 2125.23 2062.51 2137.53 2068.35 2148.52C2074.2 2159.51 2078.98 2167.88 2082.69 2173.64C2086.94 2179.39 2089.6 2181.75 2090.66 2180.7C2095.44 2175.47 2120.41 2121.31 2165.56 2018.22C2191.58 1959.09 2210.71 1918.54 2222.92 1896.56C2235.14 1874.58 2244.44 1863.59 2250.81 1863.59C2257.18 1863.59 2261.43 1867.78 2263.56 1876.15C2267.28 1890.8 2269.14 1960.4 2269.14 2084.94V2305.51H2218.94C2188.13 2305.51 2171.67 2302.1 2169.54 2295.3C2167.95 2290.07 2177.24 2286.41 2197.43 2284.31L2224.52 2281.17L2229.3 1967.2L2155.2 2133.61C2105.8 2245.07 2078.18 2301.58 2072.34 2303.15C2069.68 2304.2 2060.12 2288.76 2043.65 2256.84C2027.72 2224.4 2009.66 2185.15 1989.47 2139.1L1915.38 1971.91L1910.59 2344.75H1859.6C1828.26 2344.75 1812.86 2341.35 1813.39 2334.55C1813.39 2334.02 1813.39 2333.24 1813.39 2332.19C1815.51 2325.91 1823.48 2320.68 1837.29 2316.49C1851.1 2312.31 1859.87 2307.6 1863.59 2302.37C1868.37 2294.52 1870.76 2226.75 1870.76 2099.07C1870.76 1989.18 1867.57 1924.55 1861.2 1905.19C1853.23 1891.59 1842.34 1884.52 1828.53 1884C1823.75 1884 1819.5 1882.95 1815.78 1880.86Z" fill="#00FF41"/>
<path d="M2507.94 1898.13C2514.32 1881.38 2522.82 1881.38 2533.44 1898.13C2540.35 1909.12 2550.17 1929.79 2562.92 1960.14C2579.39 2000.95 2588.95 2028.69 2591.6 2043.34C2594.26 2057.47 2591.6 2068.2 2583.64 2075.52C2578.32 2080.75 2578.86 2090.17 2585.23 2103.78C2592.14 2116.86 2602.23 2135.44 2615.51 2159.51C2628.79 2183.58 2638.35 2205.56 2644.19 2225.44C2647.91 2237.48 2652.16 2248.21 2656.94 2257.62C2662.25 2266.52 2666.76 2271.75 2670.48 2273.32C2688.54 2280.13 2690.14 2285.88 2675.26 2290.59C2664.11 2293.73 2646.85 2295.3 2623.47 2295.3C2583.64 2295.3 2563.45 2291.64 2562.92 2284.31C2562.39 2280.65 2569.29 2276.99 2583.64 2273.32C2596.38 2270.18 2602.76 2263.38 2602.76 2252.91C2602.76 2241.93 2596.65 2222.04 2584.43 2193.26L2564.51 2148.52H2413.13L2393.21 2192.48C2381.53 2219.69 2376.21 2239.57 2377.28 2252.13C2378.87 2264.69 2387.37 2272.01 2402.77 2274.11C2419.77 2276.72 2427.47 2279.86 2425.88 2283.53C2423.22 2290.85 2402.24 2294.78 2362.93 2295.3C2360.28 2295.3 2357.62 2295.3 2354.97 2295.3C2308.22 2295.3 2284.85 2293.47 2284.85 2289.81C2284.85 2286.14 2292.55 2278.03 2307.96 2265.47C2320.18 2256.58 2339.03 2222.56 2364.53 2163.43C2390.02 2103.78 2414.46 2047.26 2437.83 1993.89C2461.2 1939.99 2477.14 1913.04 2485.64 1913.04C2489.88 1913.04 2494.13 1911.73 2498.38 1909.12C2503.16 1905.98 2506.35 1902.31 2507.94 1898.13ZM2488.03 2119.48C2532.11 2119.48 2554.16 2118.43 2554.16 2116.34C2554.16 2113.72 2544.06 2088.34 2523.88 2040.2C2503.7 1992.06 2492.54 1966.94 2490.42 1964.85C2489.88 1964.32 2487.23 1968.77 2482.45 1978.19C2477.67 1987.61 2472.09 1999.65 2465.72 2014.3C2459.87 2028.43 2454.03 2042.82 2448.19 2057.47C2442.34 2071.6 2437.03 2084.16 2432.25 2095.14C2428 2105.61 2425.88 2111.1 2425.88 2111.63C2423.75 2116.34 2443.67 2118.69 2485.64 2118.69C2486.17 2119.22 2486.96 2119.48 2488.03 2119.48Z" fill="#00FF41"/>
<path d="M2868.45 1875.37C2869.51 1872.75 2870.04 1869.09 2870.04 1864.38C2870.04 1859.14 2870.57 1855.48 2871.63 1853.39C2873.23 1850.77 2877.48 1848.94 2884.38 1847.89C2891.82 1846.32 2900.58 1845.54 2910.67 1845.54C2921.3 1845.01 2937.76 1844.75 2960.07 1844.75H3050.11V1898.13C3050.11 1933.71 3047.72 1951.5 3042.94 1951.5C3039.75 1950.98 3034.97 1942.08 3028.59 1924.82C3016.91 1890.8 2985.83 1873.8 2935.37 1873.8H2900.32V2041.77C2900.32 2087.3 2900.58 2122.62 2901.11 2147.73C2902.18 2172.33 2904.3 2192.74 2907.49 2208.96C2910.67 2224.66 2914.66 2234.86 2919.44 2239.57C2924.22 2244.28 2931.12 2246.64 2940.15 2246.64C2953.43 2246.64 2960.07 2250.04 2960.07 2256.84C2960.07 2263.12 2946.79 2266.26 2920.24 2266.26C2901.11 2266.26 2889.69 2267.83 2885.97 2270.97C2882.26 2273.58 2880.4 2281.7 2880.4 2295.3C2880.4 2309.43 2878.27 2318.06 2874.02 2321.2C2869.77 2323.82 2857.03 2325.13 2835.78 2325.13C2805.5 2325.13 2790.63 2321.47 2791.16 2314.14C2791.69 2309.95 2799.92 2305.77 2815.86 2301.58L2840.56 2295.3V1909.9L2798.33 1916.97C2777.08 1920.11 2758.76 1927.69 2743.36 1939.73C2728.48 1951.76 2721.05 1964.59 2721.05 1978.19C2721.05 1987.09 2717.59 1991.53 2710.69 1991.53C2708.03 1991.53 2705.64 1986.3 2703.52 1975.84C2701.92 1964.85 2701.13 1952.03 2701.13 1937.37V1884H2785.58C2806.83 1884 2822.23 1883.74 2831.8 1883.21C2841.89 1882.69 2850.12 1881.91 2856.49 1880.86C2863.4 1879.29 2867.38 1877.46 2868.45 1875.37Z" fill="#00FF41"/>
<path d="M3066.05 2276.46V1854.17H3137.76C3140.41 1854.17 3144.13 1854.17 3148.91 1854.17C3165.38 1854.17 3177.06 1854.17 3183.97 1854.17C3191.4 1854.17 3200.17 1854.96 3210.26 1856.53C3220.35 1857.57 3226.73 1858.36 3229.38 1858.88C3232.57 1859.4 3236.55 1862.02 3241.33 1866.73C3246.65 1871.44 3249.57 1875.37 3250.1 1878.5C3250.63 1881.12 3251.69 1887.4 3253.29 1897.34C3254.88 1906.76 3255.68 1914.87 3255.68 1921.68C3255.68 1928.48 3255.68 1939.73 3255.68 1955.43C3255.68 1960.14 3255.68 1963.54 3255.68 1965.63C3255.68 2012.2 3254.35 2041.25 3251.69 2052.76C3249.57 2064.27 3243.99 2071.86 3234.96 2075.52C3226.46 2079.71 3223.01 2084.94 3224.6 2091.22C3226.73 2099.59 3243.72 2126.02 3275.6 2170.5C3298.44 2202.42 3316.76 2225.7 3330.57 2240.36C3344.91 2254.48 3358.19 2263.9 3370.41 2268.61C3412.9 2283.27 3414.23 2291.9 3374.39 2294.52C3366.43 2295.04 3356.6 2295.3 3344.91 2295.3H3285.95L3214.24 2192.48C3168.56 2127.59 3139.08 2093.57 3125.8 2090.44C3118.37 2088.34 3113.06 2093.31 3109.87 2105.35C3107.21 2116.34 3105.89 2134.91 3105.89 2161.08C3105.89 2198.23 3108.81 2223.35 3114.65 2236.43C3120.49 2249.51 3131.38 2256.05 3147.32 2256.05C3152.63 2256.05 3156.88 2257.1 3160.07 2259.19C3163.78 2261.29 3165.64 2263.64 3165.64 2266.26C3165.64 2268.88 3160.86 2271.23 3151.3 2273.32C3141.74 2275.42 3129.79 2276.46 3115.45 2276.46H3066.05ZM3188.75 1894.99C3176.53 1888.71 3162.19 1885.05 3145.72 1884C3129.26 1882.43 3118.37 1884.26 3113.06 1889.49C3108.28 1894.2 3105.89 1923.77 3105.89 1978.19V2059.82H3141.74C3161.92 2059.82 3180.25 2053.54 3196.72 2040.98C3213.18 2027.9 3224.6 2012.73 3230.98 1995.46C3237.35 1978.19 3237.09 1959.88 3230.18 1940.51C3223.81 1921.15 3210 1905.98 3188.75 1894.99Z" fill="#00FF41"/>
<path d="M3863.99 1900.48C3854.43 1900.48 3847.52 1897.34 3843.27 1891.06C3839.55 1884.26 3865.85 1880.86 3922.15 1880.86C3978.99 1880.86 4007.4 1884.26 4007.4 1891.06C4007.4 1893.68 4005.55 1896.03 4001.83 1898.13C3998.64 1899.7 3994.66 1900.48 3989.88 1900.48C3979.78 1900.48 3946.85 1923.77 3891.08 1970.34C3835.84 2016.39 3808.22 2043.34 3808.22 2051.19C3808.22 2054.33 3817.51 2065.84 3836.1 2085.73C3855.22 2105.09 3877.8 2127.33 3903.83 2152.44L3999.44 2244.28H3943.66C3931.98 2244.28 3923.21 2244.28 3917.37 2244.28C3912.06 2243.76 3905.95 2242.45 3899.05 2240.36C3892.14 2238.26 3887.09 2236.43 3883.91 2234.86C3881.25 2232.77 3876.21 2228.32 3868.77 2221.52C3861.86 2214.71 3855.76 2208.17 3850.44 2201.89C3845.13 2195.62 3836.1 2185.67 3823.35 2172.07C3811.14 2157.94 3798.65 2144.33 3785.91 2131.25L3738.9 2081.8V2165.79C3738.9 2209.22 3741.55 2238 3746.86 2252.13C3752.71 2266.26 3764.13 2273.32 3781.13 2273.32C3792.81 2273.32 3798.65 2276.72 3798.65 2283.53C3798.65 2289.81 3778.74 2292.95 3738.9 2292.95H3679.14V1891.06H3738.9C3755.36 1891.06 3769.44 1892.11 3781.13 1894.2C3792.81 1895.77 3798.65 1897.87 3798.65 1900.48C3798.65 1903.1 3796.8 1905.45 3793.08 1907.55C3789.36 1909.12 3784.84 1909.9 3779.53 1909.9C3764.13 1909.9 3753.24 1916.44 3746.86 1929.52C3741.02 1942.08 3738.9 1963.28 3740.49 1993.1L3743.68 2046.48L3791.48 2001.74C3821.76 1972.96 3837.43 1960.66 3838.49 1964.85C3839.02 1972.17 3845.93 1967.2 3859.21 1949.93C3871.96 1933.19 3878.33 1921.41 3878.33 1914.61C3878.33 1910.42 3876.74 1907.02 3873.55 1904.41C3870.89 1901.79 3867.71 1900.48 3863.99 1900.48Z" fill="#00FF41"/>
<path d="M4144.96 1819.63C4140.18 1837.95 4134.07 1857.83 4126.63 1879.29C4119.2 1900.74 4110.96 1922.2 4101.93 1943.65C4093.43 1964.58 4084.93 1984.47 4076.44 2003.31H4024.65C4028.36 1988.66 4032.08 1972.96 4035.8 1956.21C4040.05 1939.47 4043.77 1922.72 4046.96 1905.98C4050.67 1888.71 4053.86 1871.96 4056.52 1855.74C4059.7 1839.52 4062.36 1824.61 4064.48 1811H4139.38L4144.96 1819.63Z" fill="#00FF41"/>
<path d="M4187.83 1871.44C4200.57 1862.02 4215.45 1856 4232.44 1853.39C4249.44 1850.77 4264.85 1851.03 4278.66 1854.17C4293 1856.79 4307.34 1859.67 4321.68 1862.81C4336.02 1865.42 4346.65 1867.52 4353.55 1869.09C4360.99 1870.66 4366.3 1868.56 4369.49 1862.81C4374.27 1849.2 4379.31 1846.32 4384.63 1854.17C4389.41 1860.45 4391.8 1870.92 4391.8 1885.57C4391.8 1906.5 4385.95 1918.01 4374.27 1920.11C4363.11 1922.2 4342.4 1915.4 4312.12 1899.7C4282.37 1884.52 4254.75 1881.64 4229.26 1891.06C4204.29 1899.96 4191.81 1917.23 4191.81 1942.87C4191.81 1959.61 4197.39 1973.74 4208.54 1985.25C4220.23 1996.24 4248.38 2015.08 4293 2041.77C4354.08 2078.92 4393.12 2113.98 4410.12 2146.95C4427.12 2179.39 4424.2 2213.93 4401.36 2250.56C4383.3 2280.39 4359.13 2298.7 4328.85 2305.5C4298.58 2312.31 4253.69 2309.69 4194.2 2297.66C4178.8 2294.52 4169.5 2290.59 4166.31 2285.88C4163.66 2280.65 4162.33 2267.31 4162.33 2245.85V2200.32L4179.86 2225.44C4191.01 2241.14 4202.17 2252.91 4213.32 2260.76C4224.48 2268.61 4238.29 2274.11 4254.75 2277.25C4269.63 2280.39 4286.62 2279.08 4305.75 2273.32C4325.4 2267.57 4338.15 2259.98 4343.99 2250.56C4351.43 2239.57 4353.82 2224.13 4351.16 2204.25C4348.51 2184.36 4341.87 2169.97 4331.24 2161.08C4326.46 2156.37 4322.74 2151.14 4320.09 2145.38C4317.43 2139.62 4316.64 2135.18 4317.7 2132.04C4319.29 2128.37 4312.92 2121.57 4298.58 2111.63C4284.77 2101.16 4266.17 2089.39 4242.8 2076.31L4162.33 2033.14V1962.49C4162.33 1930.05 4163.66 1909.12 4166.31 1899.7C4168.97 1890.28 4176.14 1880.86 4187.83 1871.44Z" fill="#00FF41"/>
</g>
<g filter="url(#filter1_dddddd_135_509)">
<path d="M3443.11 2016.69C3439.96 1996.5 3452.21 1976.04 3458.73 1968.32C3461.48 1965.91 3465.76 1953.94 3460.92 1925.35C3456.08 1896.75 3455.41 1880.46 3454.9 1876.32L3479.17 1871.73L3505.1 1870.16C3505.46 1874.31 3508.9 1890.26 3511.12 1919.18C3513.35 1948.1 3520.39 1958.68 3523.64 1960.35C3531.83 1966.26 3548.67 1983.16 3550.5 2003.5C3552.79 2028.93 3542.65 2047.59 3548.13 2061.84C3553.61 2076.1 3549.07 2072.92 3569.49 2097.37C3585.83 2116.93 3587.19 2135.7 3585.83 2142.64L3594.67 2302.44C3594.6 2305.22 3591.41 2311.72 3579.28 2315.53C3567.14 2319.34 3550.37 2323.27 3531.17 2325.63C3511.97 2327.99 3503.37 2327.17 3490.67 2326.41C3477.97 2325.65 3473.31 2320.11 3472.57 2317.44L3442.49 2160.24C3439.49 2153.83 3436.27 2135.29 3447.39 2112.36C3461.29 2083.7 3457.65 2087.88 3459.52 2072.72C3461.39 2057.57 3447.03 2041.91 3443.11 2016.69Z" fill="#00FF41"/>
<path d="M3459.6 1823.27C3453.99 1825.25 3450.5 1826.87 3449.43 1828.25C3448.73 1829.14 3450.85 1844.54 3453.21 1862.89L3478.55 1859.78L3503.9 1856.67C3502.19 1838.23 3500.52 1822.78 3499.63 1822.08C3498.26 1821.01 3494.44 1820.28 3488.56 1819.71C3483.6 1819.23 3478.56 1819.33 3476.52 1819.58L3475.33 1819.73L3472.43 1820.08L3471.25 1820.23C3469.16 1820.48 3464.3 1821.61 3459.6 1823.27Z" fill="#00FF41"/>
</g>
<path d="M3443.11 2016.69C3439.96 1996.5 3452.21 1976.04 3458.73 1968.32C3461.48 1965.91 3465.76 1953.94 3460.92 1925.35C3456.08 1896.75 3455.41 1880.46 3454.9 1876.32L3479.17 1871.73L3505.1 1870.16C3505.46 1874.31 3508.9 1890.26 3511.12 1919.18C3513.35 1948.1 3520.39 1958.68 3523.64 1960.35C3531.83 1966.26 3548.67 1983.16 3550.5 2003.5C3552.79 2028.93 3542.65 2047.59 3548.13 2061.84C3553.61 2076.1 3549.07 2072.92 3569.49 2097.37C3585.83 2116.93 3587.19 2135.7 3585.83 2142.64L3594.67 2302.44C3594.6 2305.22 3591.41 2311.72 3579.28 2315.53C3567.14 2319.34 3550.37 2323.27 3531.17 2325.63C3511.97 2327.99 3503.37 2327.17 3490.67 2326.41C3477.97 2325.65 3473.31 2320.11 3472.57 2317.44L3442.49 2160.24C3439.49 2153.83 3436.27 2135.29 3447.39 2112.36C3461.29 2083.7 3457.65 2087.88 3459.52 2072.72C3461.39 2057.57 3447.03 2041.91 3443.11 2016.69Z" fill="#008F11"/>
<path d="M3459.6 1823.27C3453.99 1825.25 3450.5 1826.87 3449.43 1828.25C3448.73 1829.14 3450.85 1844.54 3453.21 1862.89L3478.55 1859.78L3503.9 1856.67C3502.19 1838.23 3500.52 1822.78 3499.63 1822.08C3498.26 1821.01 3494.44 1820.28 3488.56 1819.71C3483.6 1819.23 3478.56 1819.33 3476.52 1819.58L3475.33 1819.73L3472.43 1820.08L3471.25 1820.23C3469.16 1820.48 3464.3 1821.61 3459.6 1823.27Z" fill="#008F11"/>
<path d="M1815.78 1880.86C1812.59 1878.77 1811 1876.41 1811 1873.8C1811 1871.18 1815.78 1868.82 1825.34 1866.73C1834.9 1864.64 1846.59 1863.59 1860.4 1863.59C1874.74 1863.59 1886.69 1864.64 1896.25 1866.73C1905.81 1868.82 1910.59 1871.18 1910.59 1873.8C1910.59 1876.41 1912.45 1878.77 1916.17 1880.86C1919.89 1882.95 1924.14 1884 1928.92 1884C1934.23 1884 1939.01 1886.09 1943.26 1890.28C1948.04 1894.46 1954.95 1905.45 1963.98 1923.25C1973.54 1941.04 1984.43 1963.54 1996.64 1990.75C2008.86 2017.96 2026.66 2058.25 2050.03 2111.63C2056.4 2125.23 2062.51 2137.53 2068.35 2148.52C2074.2 2159.51 2078.98 2167.88 2082.69 2173.64C2086.94 2179.39 2089.6 2181.75 2090.66 2180.7C2095.44 2175.47 2120.41 2121.31 2165.56 2018.22C2191.58 1959.09 2210.71 1918.54 2222.92 1896.56C2235.14 1874.58 2244.44 1863.59 2250.81 1863.59C2257.18 1863.59 2261.43 1867.78 2263.56 1876.15C2267.28 1890.8 2269.14 1960.4 2269.14 2084.94V2305.51H2218.94C2188.13 2305.51 2171.67 2302.1 2169.54 2295.3C2167.95 2290.07 2177.24 2286.41 2197.43 2284.31L2224.52 2281.17L2229.3 1967.2L2155.2 2133.61C2105.8 2245.07 2078.18 2301.58 2072.34 2303.15C2069.68 2304.2 2060.12 2288.76 2043.65 2256.84C2027.72 2224.4 2009.66 2185.15 1989.47 2139.1L1915.38 1971.91L1910.59 2344.75H1859.6C1828.26 2344.75 1812.86 2341.35 1813.39 2334.55C1813.39 2334.02 1813.39 2333.24 1813.39 2332.19C1815.51 2325.91 1823.48 2320.68 1837.29 2316.49C1851.1 2312.31 1859.87 2307.6 1863.59 2302.37C1868.37 2294.52 1870.76 2226.75 1870.76 2099.07C1870.76 1989.18 1867.57 1924.55 1861.2 1905.19C1853.23 1891.59 1842.34 1884.52 1828.53 1884C1823.75 1884 1819.5 1882.95 1815.78 1880.86Z" fill="#008F11"/>
<path d="M2507.94 1898.13C2514.32 1881.38 2522.82 1881.38 2533.44 1898.13C2540.35 1909.12 2550.17 1929.79 2562.92 1960.14C2579.39 2000.95 2588.95 2028.69 2591.6 2043.34C2594.26 2057.47 2591.6 2068.2 2583.64 2075.52C2578.32 2080.75 2578.86 2090.17 2585.23 2103.78C2592.14 2116.86 2602.23 2135.44 2615.51 2159.51C2628.79 2183.58 2638.35 2205.56 2644.19 2225.44C2647.91 2237.48 2652.16 2248.21 2656.94 2257.62C2662.25 2266.52 2666.76 2271.75 2670.48 2273.32C2688.54 2280.13 2690.14 2285.88 2675.26 2290.59C2664.11 2293.73 2646.85 2295.3 2623.47 2295.3C2583.64 2295.3 2563.45 2291.64 2562.92 2284.31C2562.39 2280.65 2569.29 2276.99 2583.64 2273.32C2596.38 2270.18 2602.76 2263.38 2602.76 2252.91C2602.76 2241.93 2596.65 2222.04 2584.43 2193.26L2564.51 2148.52H2413.13L2393.21 2192.48C2381.53 2219.69 2376.21 2239.57 2377.28 2252.13C2378.87 2264.69 2387.37 2272.01 2402.77 2274.11C2419.77 2276.72 2427.47 2279.86 2425.88 2283.53C2423.22 2290.85 2402.24 2294.78 2362.93 2295.3C2360.28 2295.3 2357.62 2295.3 2354.97 2295.3C2308.22 2295.3 2284.85 2293.47 2284.85 2289.81C2284.85 2286.14 2292.55 2278.03 2307.96 2265.47C2320.18 2256.58 2339.03 2222.56 2364.53 2163.43C2390.02 2103.78 2414.46 2047.26 2437.83 1993.89C2461.2 1939.99 2477.14 1913.04 2485.64 1913.04C2489.88 1913.04 2494.13 1911.73 2498.38 1909.12C2503.16 1905.98 2506.35 1902.31 2507.94 1898.13ZM2488.03 2119.48C2532.11 2119.48 2554.16 2118.43 2554.16 2116.34C2554.16 2113.72 2544.06 2088.34 2523.88 2040.2C2503.7 1992.06 2492.54 1966.94 2490.42 1964.85C2489.88 1964.32 2487.23 1968.77 2482.45 1978.19C2477.67 1987.61 2472.09 1999.65 2465.72 2014.3C2459.87 2028.43 2454.03 2042.82 2448.19 2057.47C2442.34 2071.6 2437.03 2084.16 2432.25 2095.14C2428 2105.61 2425.88 2111.1 2425.88 2111.63C2423.75 2116.34 2443.67 2118.69 2485.64 2118.69C2486.17 2119.22 2486.96 2119.48 2488.03 2119.48Z" fill="#008F11"/>
<path d="M2868.45 1875.37C2869.51 1872.75 2870.04 1869.09 2870.04 1864.38C2870.04 1859.14 2870.57 1855.48 2871.63 1853.39C2873.23 1850.77 2877.48 1848.94 2884.38 1847.89C2891.82 1846.32 2900.58 1845.54 2910.67 1845.54C2921.3 1845.01 2937.76 1844.75 2960.07 1844.75H3050.11V1898.13C3050.11 1933.71 3047.72 1951.5 3042.94 1951.5C3039.75 1950.98 3034.97 1942.08 3028.59 1924.82C3016.91 1890.8 2985.83 1873.8 2935.37 1873.8H2900.32V2041.77C2900.32 2087.3 2900.58 2122.62 2901.11 2147.73C2902.18 2172.33 2904.3 2192.74 2907.49 2208.96C2910.67 2224.66 2914.66 2234.86 2919.44 2239.57C2924.22 2244.28 2931.12 2246.64 2940.15 2246.64C2953.43 2246.64 2960.07 2250.04 2960.07 2256.84C2960.07 2263.12 2946.79 2266.26 2920.24 2266.26C2901.11 2266.26 2889.69 2267.83 2885.97 2270.97C2882.26 2273.58 2880.4 2281.7 2880.4 2295.3C2880.4 2309.43 2878.27 2318.06 2874.02 2321.2C2869.77 2323.82 2857.03 2325.13 2835.78 2325.13C2805.5 2325.13 2790.63 2321.47 2791.16 2314.14C2791.69 2309.95 2799.92 2305.77 2815.86 2301.58L2840.56 2295.3V1909.9L2798.33 1916.97C2777.08 1920.11 2758.76 1927.69 2743.36 1939.73C2728.48 1951.76 2721.05 1964.59 2721.05 1978.19C2721.05 1987.09 2717.59 1991.53 2710.69 1991.53C2708.03 1991.53 2705.64 1986.3 2703.52 1975.84C2701.92 1964.85 2701.13 1952.03 2701.13 1937.37V1884H2785.58C2806.83 1884 2822.23 1883.74 2831.8 1883.21C2841.89 1882.69 2850.12 1881.91 2856.49 1880.86C2863.4 1879.29 2867.38 1877.46 2868.45 1875.37Z" fill="#008F11"/>
<path d="M3066.05 2276.46V1854.17H3137.76C3140.41 1854.17 3144.13 1854.17 3148.91 1854.17C3165.38 1854.17 3177.06 1854.17 3183.97 1854.17C3191.4 1854.17 3200.17 1854.96 3210.26 1856.53C3220.35 1857.57 3226.73 1858.36 3229.38 1858.88C3232.57 1859.4 3236.55 1862.02 3241.33 1866.73C3246.65 1871.44 3249.57 1875.37 3250.1 1878.5C3250.63 1881.12 3251.69 1887.4 3253.29 1897.34C3254.88 1906.76 3255.68 1914.87 3255.68 1921.68C3255.68 1928.48 3255.68 1939.73 3255.68 1955.43C3255.68 1960.14 3255.68 1963.54 3255.68 1965.63C3255.68 2012.2 3254.35 2041.25 3251.69 2052.76C3249.57 2064.27 3243.99 2071.86 3234.96 2075.52C3226.46 2079.71 3223.01 2084.94 3224.6 2091.22C3226.73 2099.59 3243.72 2126.02 3275.6 2170.5C3298.44 2202.42 3316.76 2225.7 3330.57 2240.36C3344.91 2254.48 3358.19 2263.9 3370.41 2268.61C3412.9 2283.27 3414.23 2291.9 3374.39 2294.52C3366.43 2295.04 3356.6 2295.3 3344.91 2295.3H3285.95L3214.24 2192.48C3168.56 2127.59 3139.08 2093.57 3125.8 2090.44C3118.37 2088.34 3113.06 2093.31 3109.87 2105.35C3107.21 2116.34 3105.89 2134.91 3105.89 2161.08C3105.89 2198.23 3108.81 2223.35 3114.65 2236.43C3120.49 2249.51 3131.38 2256.05 3147.32 2256.05C3152.63 2256.05 3156.88 2257.1 3160.07 2259.19C3163.78 2261.29 3165.64 2263.64 3165.64 2266.26C3165.64 2268.88 3160.86 2271.23 3151.3 2273.32C3141.74 2275.42 3129.79 2276.46 3115.45 2276.46H3066.05ZM3188.75 1894.99C3176.53 1888.71 3162.19 1885.05 3145.72 1884C3129.26 1882.43 3118.37 1884.26 3113.06 1889.49C3108.28 1894.2 3105.89 1923.77 3105.89 1978.19V2059.82H3141.74C3161.92 2059.82 3180.25 2053.54 3196.72 2040.98C3213.18 2027.9 3224.6 2012.73 3230.98 1995.46C3237.35 1978.19 3237.09 1959.88 3230.18 1940.51C3223.81 1921.15 3210 1905.98 3188.75 1894.99Z" fill="#008F11"/>
<path d="M3863.99 1900.48C3854.43 1900.48 3847.52 1897.34 3843.27 1891.06C3839.55 1884.26 3865.85 1880.86 3922.15 1880.86C3978.99 1880.86 4007.4 1884.26 4007.4 1891.06C4007.4 1893.68 4005.55 1896.03 4001.83 1898.13C3998.64 1899.7 3994.66 1900.48 3989.88 1900.48C3979.78 1900.48 3946.85 1923.77 3891.08 1970.34C3835.84 2016.39 3808.22 2043.34 3808.22 2051.19C3808.22 2054.33 3817.51 2065.84 3836.1 2085.73C3855.22 2105.09 3877.8 2127.33 3903.83 2152.44L3999.44 2244.28H3943.66C3931.98 2244.28 3923.21 2244.28 3917.37 2244.28C3912.06 2243.76 3905.95 2242.45 3899.05 2240.36C3892.14 2238.26 3887.09 2236.43 3883.91 2234.86C3881.25 2232.77 3876.21 2228.32 3868.77 2221.52C3861.86 2214.71 3855.76 2208.17 3850.44 2201.89C3845.13 2195.62 3836.1 2185.67 3823.35 2172.07C3811.14 2157.94 3798.65 2144.33 3785.91 2131.25L3738.9 2081.8V2165.79C3738.9 2209.22 3741.55 2238 3746.86 2252.13C3752.71 2266.26 3764.13 2273.32 3781.13 2273.32C3792.81 2273.32 3798.65 2276.72 3798.65 2283.53C3798.65 2289.81 3778.74 2292.95 3738.9 2292.95H3679.14V1891.06H3738.9C3755.36 1891.06 3769.44 1892.11 3781.13 1894.2C3792.81 1895.77 3798.65 1897.87 3798.65 1900.48C3798.65 1903.1 3796.8 1905.45 3793.08 1907.55C3789.36 1909.12 3784.84 1909.9 3779.53 1909.9C3764.13 1909.9 3753.24 1916.44 3746.86 1929.52C3741.02 1942.08 3738.9 1963.28 3740.49 1993.1L3743.68 2046.48L3791.48 2001.74C3821.76 1972.96 3837.43 1960.66 3838.49 1964.85C3839.02 1972.17 3845.93 1967.2 3859.21 1949.93C3871.96 1933.19 3878.33 1921.41 3878.33 1914.61C3878.33 1910.42 3876.74 1907.02 3873.55 1904.41C3870.89 1901.79 3867.71 1900.48 3863.99 1900.48Z" fill="#008F11"/>
<path d="M4144.96 1819.63C4140.18 1837.95 4134.07 1857.83 4126.63 1879.29C4119.2 1900.74 4110.96 1922.2 4101.93 1943.65C4093.43 1964.58 4084.93 1984.47 4076.44 2003.31H4024.65C4028.36 1988.66 4032.08 1972.96 4035.8 1956.21C4040.05 1939.47 4043.77 1922.72 4046.96 1905.98C4050.67 1888.71 4053.86 1871.96 4056.52 1855.74C4059.7 1839.52 4062.36 1824.61 4064.48 1811H4139.38L4144.96 1819.63Z" fill="#008F11"/>
<path d="M4187.83 1871.44C4200.57 1862.02 4215.45 1856 4232.44 1853.39C4249.44 1850.77 4264.85 1851.03 4278.66 1854.17C4293 1856.79 4307.34 1859.67 4321.68 1862.81C4336.02 1865.42 4346.65 1867.52 4353.55 1869.09C4360.99 1870.66 4366.3 1868.56 4369.49 1862.81C4374.27 1849.2 4379.31 1846.32 4384.63 1854.17C4389.41 1860.45 4391.8 1870.92 4391.8 1885.57C4391.8 1906.5 4385.95 1918.01 4374.27 1920.11C4363.11 1922.2 4342.4 1915.4 4312.12 1899.7C4282.37 1884.52 4254.75 1881.64 4229.26 1891.06C4204.29 1899.96 4191.81 1917.23 4191.81 1942.87C4191.81 1959.61 4197.39 1973.74 4208.54 1985.25C4220.23 1996.24 4248.38 2015.08 4293 2041.77C4354.08 2078.92 4393.12 2113.98 4410.12 2146.95C4427.12 2179.39 4424.2 2213.93 4401.36 2250.56C4383.3 2280.39 4359.13 2298.7 4328.85 2305.5C4298.58 2312.31 4253.69 2309.69 4194.2 2297.66C4178.8 2294.52 4169.5 2290.59 4166.31 2285.88C4163.66 2280.65 4162.33 2267.31 4162.33 2245.85V2200.32L4179.86 2225.44C4191.01 2241.14 4202.17 2252.91 4213.32 2260.76C4224.48 2268.61 4238.29 2274.11 4254.75 2277.25C4269.63 2280.39 4286.62 2279.08 4305.75 2273.32C4325.4 2267.57 4338.15 2259.98 4343.99 2250.56C4351.43 2239.57 4353.82 2224.13 4351.16 2204.25C4348.51 2184.36 4341.87 2169.97 4331.24 2161.08C4326.46 2156.37 4322.74 2151.14 4320.09 2145.38C4317.43 2139.62 4316.64 2135.18 4317.7 2132.04C4319.29 2128.37 4312.92 2121.57 4298.58 2111.63C4284.77 2101.16 4266.17 2089.39 4242.8 2076.31L4162.33 2033.14V1962.49C4162.33 1930.05 4163.66 1909.12 4166.31 1899.7C4168.97 1890.28 4176.14 1880.86 4187.83 1871.44Z" fill="#008F11"/>
<g filter="url(#filter2_dddddd_135_509)">
<path d="M1815.78 1880.86C1812.59 1878.77 1811 1876.41 1811 1873.79C1811 1871.18 1815.78 1868.82 1825.34 1866.73C1834.9 1864.64 1846.59 1863.59 1860.4 1863.59C1874.74 1863.59 1886.69 1864.64 1896.25 1866.73C1905.81 1868.82 1910.59 1871.18 1910.59 1873.79C1910.59 1876.41 1912.45 1878.77 1916.17 1880.86C1919.89 1882.95 1924.14 1884 1928.92 1884C1934.23 1884 1939.01 1886.09 1943.26 1890.28C1948.04 1894.46 1954.95 1905.45 1963.98 1923.25C1973.54 1941.04 1984.43 1963.54 1996.64 1990.75C2008.86 2017.96 2026.66 2058.25 2050.03 2111.63C2056.4 2125.23 2062.51 2137.53 2068.35 2148.52C2074.2 2159.51 2078.98 2167.88 2082.69 2173.64C2086.94 2179.39 2089.6 2181.75 2090.66 2180.7C2095.44 2175.47 2120.41 2121.31 2165.56 2018.22C2191.58 1959.09 2210.71 1918.54 2222.92 1896.56C2235.14 1874.58 2244.44 1863.59 2250.81 1863.59C2257.18 1863.59 2261.43 1867.78 2263.56 1876.15C2267.28 1890.8 2269.14 1960.4 2269.14 2084.94V2305.5H2218.94C2188.13 2305.5 2171.67 2302.1 2169.54 2295.3C2167.95 2290.07 2177.24 2286.4 2197.43 2284.31L2224.52 2281.17L2229.3 1967.2L2155.2 2133.61C2105.8 2245.07 2078.18 2301.58 2072.34 2303.15C2069.68 2304.2 2060.12 2288.76 2043.65 2256.84C2027.72 2224.4 2009.66 2185.15 1989.47 2139.1L1915.38 1971.91L1910.59 2344.75H1859.6C1828.26 2344.75 1812.86 2341.35 1813.39 2334.55C1813.39 2334.02 1813.39 2333.24 1813.39 2332.19C1815.51 2325.91 1823.48 2320.68 1837.29 2316.49C1851.1 2312.31 1859.87 2307.6 1863.59 2302.37C1868.37 2294.52 1870.76 2226.75 1870.76 2099.07C1870.76 1989.18 1867.57 1924.55 1861.2 1905.19C1853.23 1891.59 1842.34 1884.52 1828.53 1884C1823.75 1884 1819.5 1882.95 1815.78 1880.86Z" fill="#00FF41"/>
<path d="M2507.94 1898.13C2514.32 1881.38 2522.82 1881.38 2533.44 1898.13C2540.35 1909.12 2550.17 1929.79 2562.92 1960.14C2579.39 2000.95 2588.95 2028.69 2591.6 2043.34C2594.26 2057.47 2591.6 2068.2 2583.64 2075.52C2578.32 2080.75 2578.86 2090.17 2585.23 2103.78C2592.14 2116.86 2602.23 2135.44 2615.51 2159.51C2628.79 2183.58 2638.35 2205.56 2644.19 2225.44C2647.91 2237.48 2652.16 2248.21 2656.94 2257.62C2662.25 2266.52 2666.76 2271.75 2670.48 2273.32C2688.54 2280.13 2690.14 2285.88 2675.26 2290.59C2664.11 2293.73 2646.85 2295.3 2623.47 2295.3C2583.64 2295.3 2563.45 2291.64 2562.92 2284.31C2562.39 2280.65 2569.29 2276.99 2583.64 2273.32C2596.38 2270.18 2602.76 2263.38 2602.76 2252.91C2602.76 2241.93 2596.65 2222.04 2584.43 2193.26L2564.51 2148.52H2413.13L2393.21 2192.48C2381.53 2219.69 2376.21 2239.57 2377.28 2252.13C2378.87 2264.69 2387.37 2272.01 2402.77 2274.11C2419.77 2276.72 2427.47 2279.86 2425.88 2283.53C2423.22 2290.85 2402.24 2294.78 2362.93 2295.3C2360.28 2295.3 2357.62 2295.3 2354.97 2295.3C2308.22 2295.3 2284.85 2293.47 2284.85 2289.81C2284.85 2286.14 2292.55 2278.03 2307.96 2265.47C2320.18 2256.58 2339.03 2222.56 2364.53 2163.43C2390.02 2103.78 2414.46 2047.26 2437.83 1993.89C2461.2 1939.99 2477.14 1913.04 2485.64 1913.04C2489.88 1913.04 2494.13 1911.73 2498.38 1909.12C2503.16 1905.98 2506.35 1902.31 2507.94 1898.13ZM2488.03 2119.48C2532.11 2119.48 2554.16 2118.43 2554.16 2116.34C2554.16 2113.72 2544.06 2088.34 2523.88 2040.2C2503.7 1992.06 2492.54 1966.94 2490.42 1964.85C2489.88 1964.32 2487.23 1968.77 2482.45 1978.19C2477.67 1987.61 2472.09 1999.64 2465.72 2014.3C2459.87 2028.43 2454.03 2042.82 2448.19 2057.47C2442.34 2071.6 2437.03 2084.16 2432.25 2095.14C2428 2105.61 2425.88 2111.1 2425.88 2111.63C2423.75 2116.34 2443.67 2118.69 2485.64 2118.69C2486.17 2119.22 2486.96 2119.48 2488.03 2119.48Z" fill="#00FF41"/>
<path d="M2868.45 1875.36C2869.51 1872.75 2870.04 1869.09 2870.04 1864.38C2870.04 1859.14 2870.57 1855.48 2871.63 1853.39C2873.23 1850.77 2877.48 1848.94 2884.38 1847.89C2891.82 1846.32 2900.58 1845.54 2910.67 1845.54C2921.3 1845.01 2937.76 1844.75 2960.07 1844.75H3050.11V1898.13C3050.11 1933.71 3047.72 1951.5 3042.94 1951.5C3039.75 1950.98 3034.97 1942.08 3028.59 1924.82C3016.91 1890.8 2985.83 1873.79 2935.37 1873.79H2900.32V2041.77C2900.32 2087.3 2900.58 2122.62 2901.11 2147.73C2902.18 2172.33 2904.3 2192.74 2907.49 2208.96C2910.67 2224.66 2914.66 2234.86 2919.44 2239.57C2924.22 2244.28 2931.12 2246.64 2940.15 2246.64C2953.43 2246.64 2960.07 2250.04 2960.07 2256.84C2960.07 2263.12 2946.79 2266.26 2920.24 2266.26C2901.11 2266.26 2889.69 2267.83 2885.97 2270.97C2882.26 2273.58 2880.4 2281.7 2880.4 2295.3C2880.4 2309.43 2878.27 2318.06 2874.02 2321.2C2869.77 2323.82 2857.03 2325.13 2835.78 2325.13C2805.5 2325.13 2790.63 2321.47 2791.16 2314.14C2791.69 2309.95 2799.92 2305.77 2815.86 2301.58L2840.56 2295.3V1909.9L2798.33 1916.97C2777.08 1920.11 2758.76 1927.69 2743.36 1939.73C2728.48 1951.76 2721.05 1964.58 2721.05 1978.19C2721.05 1987.09 2717.59 1991.53 2710.69 1991.53C2708.03 1991.53 2705.64 1986.3 2703.52 1975.84C2701.92 1964.85 2701.13 1952.03 2701.13 1937.37V1884H2785.58C2806.83 1884 2822.23 1883.74 2831.8 1883.21C2841.89 1882.69 2850.12 1881.91 2856.49 1880.86C2863.4 1879.29 2867.38 1877.46 2868.45 1875.36Z" fill="#00FF41"/>
<path d="M3066.05 2276.46V1854.17H3137.76C3140.41 1854.17 3144.13 1854.17 3148.91 1854.17C3165.38 1854.17 3177.06 1854.17 3183.97 1854.17C3191.4 1854.17 3200.17 1854.96 3210.26 1856.53C3220.35 1857.57 3226.73 1858.36 3229.38 1858.88C3232.57 1859.4 3236.55 1862.02 3241.33 1866.73C3246.65 1871.44 3249.57 1875.36 3250.1 1878.5C3250.63 1881.12 3251.69 1887.4 3253.29 1897.34C3254.88 1906.76 3255.68 1914.87 3255.68 1921.68C3255.68 1928.48 3255.68 1939.73 3255.68 1955.43C3255.68 1960.14 3255.68 1963.54 3255.68 1965.63C3255.68 2012.2 3254.35 2041.25 3251.69 2052.76C3249.57 2064.27 3243.99 2071.86 3234.96 2075.52C3226.46 2079.71 3223.01 2084.94 3224.6 2091.22C3226.73 2099.59 3243.72 2126.02 3275.6 2170.5C3298.44 2202.42 3316.76 2225.7 3330.57 2240.36C3344.91 2254.48 3358.19 2263.9 3370.41 2268.61C3412.9 2283.27 3414.23 2291.9 3374.39 2294.52C3366.43 2295.04 3356.6 2295.3 3344.91 2295.3H3285.95L3214.24 2192.48C3168.56 2127.59 3139.08 2093.57 3125.8 2090.43C3118.37 2088.34 3113.06 2093.31 3109.87 2105.35C3107.21 2116.34 3105.89 2134.91 3105.89 2161.08C3105.89 2198.23 3108.81 2223.35 3114.65 2236.43C3120.49 2249.51 3131.38 2256.05 3147.32 2256.05C3152.63 2256.05 3156.88 2257.1 3160.07 2259.19C3163.78 2261.29 3165.64 2263.64 3165.64 2266.26C3165.64 2268.87 3160.86 2271.23 3151.3 2273.32C3141.74 2275.42 3129.79 2276.46 3115.45 2276.46H3066.05ZM3188.75 1894.99C3176.53 1888.71 3162.19 1885.05 3145.72 1884C3129.26 1882.43 3118.37 1884.26 3113.06 1889.49C3108.28 1894.2 3105.89 1923.77 3105.89 1978.19V2059.82H3141.74C3161.92 2059.82 3180.25 2053.54 3196.72 2040.98C3213.18 2027.9 3224.6 2012.73 3230.98 1995.46C3237.35 1978.19 3237.09 1959.88 3230.18 1940.51C3223.81 1921.15 3210 1905.98 3188.75 1894.99Z" fill="#00FF41"/>
<path d="M3863.99 1900.48C3854.43 1900.48 3847.52 1897.34 3843.27 1891.06C3839.55 1884.26 3865.85 1880.86 3922.15 1880.86C3978.99 1880.86 4007.4 1884.26 4007.4 1891.06C4007.4 1893.68 4005.55 1896.03 4001.83 1898.13C3998.64 1899.7 3994.66 1900.48 3989.88 1900.48C3979.78 1900.48 3946.85 1923.77 3891.08 1970.34C3835.84 2016.39 3808.22 2043.34 3808.22 2051.19C3808.22 2054.33 3817.51 2065.84 3836.1 2085.73C3855.22 2105.09 3877.8 2127.33 3903.83 2152.44L3999.44 2244.28H3943.66C3931.98 2244.28 3923.21 2244.28 3917.37 2244.28C3912.06 2243.76 3905.95 2242.45 3899.05 2240.36C3892.14 2238.26 3887.09 2236.43 3883.91 2234.86C3881.25 2232.77 3876.21 2228.32 3868.77 2221.52C3861.86 2214.71 3855.76 2208.17 3850.44 2201.89C3845.13 2195.61 3836.1 2185.67 3823.35 2172.07C3811.14 2157.94 3798.65 2144.33 3785.91 2131.25L3738.9 2081.8V2165.79C3738.9 2209.22 3741.55 2238 3746.86 2252.13C3752.71 2266.26 3764.13 2273.32 3781.13 2273.32C3792.81 2273.32 3798.65 2276.72 3798.65 2283.53C3798.65 2289.81 3778.74 2292.95 3738.9 2292.95H3679.14V1891.06H3738.9C3755.36 1891.06 3769.44 1892.11 3781.13 1894.2C3792.81 1895.77 3798.65 1897.87 3798.65 1900.48C3798.65 1903.1 3796.8 1905.45 3793.08 1907.55C3789.36 1909.12 3784.84 1909.9 3779.53 1909.9C3764.13 1909.9 3753.24 1916.44 3746.86 1929.52C3741.02 1942.08 3738.9 1963.28 3740.49 1993.1L3743.68 2046.48L3791.48 2001.74C3821.76 1972.96 3837.43 1960.66 3838.49 1964.85C3839.02 1972.17 3845.93 1967.2 3859.21 1949.93C3871.96 1933.19 3878.33 1921.41 3878.33 1914.61C3878.33 1910.42 3876.74 1907.02 3873.55 1904.41C3870.89 1901.79 3867.71 1900.48 3863.99 1900.48Z" fill="#00FF41"/>
<path d="M4144.96 1819.63C4140.18 1837.95 4134.07 1857.83 4126.63 1879.29C4119.2 1900.74 4110.96 1922.2 4101.93 1943.65C4093.43 1964.58 4084.93 1984.47 4076.44 2003.31H4024.65C4028.36 1988.66 4032.08 1972.96 4035.8 1956.21C4040.05 1939.47 4043.77 1922.72 4046.96 1905.98C4050.67 1888.71 4053.86 1871.96 4056.52 1855.74C4059.7 1839.52 4062.36 1824.61 4064.48 1811H4139.38L4144.96 1819.63Z" fill="#00FF41"/>
<path d="M4187.83 1871.44C4200.57 1862.02 4215.45 1856 4232.44 1853.39C4249.44 1850.77 4264.85 1851.03 4278.66 1854.17C4293 1856.79 4307.34 1859.67 4321.68 1862.81C4336.02 1865.42 4346.65 1867.52 4353.55 1869.09C4360.99 1870.65 4366.3 1868.56 4369.49 1862.81C4374.27 1849.2 4379.31 1846.32 4384.63 1854.17C4389.41 1860.45 4391.8 1870.92 4391.8 1885.57C4391.8 1906.5 4385.95 1918.01 4374.27 1920.11C4363.11 1922.2 4342.4 1915.4 4312.12 1899.7C4282.37 1884.52 4254.75 1881.64 4229.26 1891.06C4204.29 1899.96 4191.81 1917.23 4191.81 1942.87C4191.81 1959.61 4197.39 1973.74 4208.54 1985.25C4220.23 1996.24 4248.38 2015.08 4293 2041.77C4354.08 2078.92 4393.12 2113.98 4410.12 2146.95C4427.12 2179.39 4424.2 2213.93 4401.36 2250.56C4383.3 2280.39 4359.13 2298.7 4328.85 2305.5C4298.58 2312.31 4253.69 2309.69 4194.2 2297.66C4178.8 2294.52 4169.5 2290.59 4166.31 2285.88C4163.66 2280.65 4162.33 2267.3 4162.33 2245.85V2200.32L4179.86 2225.44C4191.01 2241.14 4202.17 2252.91 4213.32 2260.76C4224.48 2268.61 4238.29 2274.11 4254.75 2277.25C4269.63 2280.39 4286.62 2279.08 4305.75 2273.32C4325.4 2267.57 4338.15 2259.98 4343.99 2250.56C4351.43 2239.57 4353.82 2224.13 4351.16 2204.25C4348.51 2184.36 4341.87 2169.97 4331.24 2161.08C4326.46 2156.37 4322.74 2151.14 4320.09 2145.38C4317.43 2139.62 4316.64 2135.18 4317.7 2132.04C4319.29 2128.37 4312.92 2121.57 4298.58 2111.63C4284.77 2101.16 4266.17 2089.39 4242.8 2076.31L4162.33 2033.13V1962.49C4162.33 1930.05 4163.66 1909.12 4166.31 1899.7C4168.97 1890.28 4176.14 1880.86 4187.83 1871.44Z" fill="#00FF41"/>
</g>
<g filter="url(#filter3_dddddd_135_509)">
<path d="M3443.11 2016.69C3439.96 1996.5 3452.21 1976.04 3458.73 1968.32C3461.48 1965.91 3465.76 1953.94 3460.92 1925.35C3456.08 1896.75 3455.41 1880.46 3454.9 1876.32L3479.17 1871.73L3505.1 1870.16C3505.46 1874.31 3508.9 1890.26 3511.12 1919.18C3513.35 1948.1 3520.39 1958.68 3523.64 1960.35C3531.83 1966.26 3548.67 1983.16 3550.5 2003.5C3552.79 2028.93 3542.65 2047.59 3548.13 2061.84C3553.61 2076.1 3549.07 2072.92 3569.49 2097.37C3585.83 2116.93 3587.19 2135.7 3585.83 2142.64L3594.67 2302.44C3594.6 2305.22 3591.41 2311.72 3579.28 2315.53C3567.14 2319.34 3550.37 2323.27 3531.17 2325.63C3511.97 2327.99 3503.37 2327.17 3490.67 2326.41C3477.97 2325.65 3473.31 2320.11 3472.57 2317.44L3442.49 2160.24C3439.49 2153.83 3436.27 2135.29 3447.39 2112.36C3461.29 2083.7 3457.65 2087.88 3459.52 2072.72C3461.39 2057.57 3447.03 2041.91 3443.11 2016.69Z" fill="#00FF41"/>
<path d="M3459.6 1823.27C3453.99 1825.25 3450.5 1826.87 3449.43 1828.25C3448.73 1829.14 3450.85 1844.54 3453.21 1862.89L3478.55 1859.78L3503.9 1856.67C3502.19 1838.23 3500.52 1822.78 3499.63 1822.08C3498.26 1821.01 3494.44 1820.28 3488.56 1819.71C3483.6 1819.23 3478.56 1819.33 3476.52 1819.58L3475.33 1819.73L3472.43 1820.08L3471.25 1820.23C3469.16 1820.48 3464.3 1821.61 3459.6 1823.27Z" fill="#00FF41"/>
</g>
<path d="M3443.11 2016.69C3439.96 1996.5 3452.21 1976.04 3458.73 1968.32C3461.48 1965.91 3465.76 1953.94 3460.92 1925.35C3456.08 1896.75 3455.41 1880.46 3454.9 1876.32L3479.17 1871.73L3505.1 1870.16C3505.46 1874.31 3508.9 1890.26 3511.12 1919.18C3513.35 1948.1 3520.39 1958.68 3523.64 1960.35C3531.83 1966.26 3548.67 1983.16 3550.5 2003.5C3552.79 2028.93 3542.65 2047.59 3548.13 2061.84C3553.61 2076.1 3549.07 2072.92 3569.49 2097.37C3585.83 2116.93 3587.19 2135.7 3585.83 2142.64L3594.67 2302.44C3594.6 2305.22 3591.41 2311.72 3579.28 2315.53C3567.14 2319.34 3550.37 2323.27 3531.17 2325.63C3511.97 2327.99 3503.37 2327.17 3490.67 2326.41C3477.97 2325.65 3473.31 2320.11 3472.57 2317.44L3442.49 2160.24C3439.49 2153.83 3436.27 2135.29 3447.39 2112.36C3461.29 2083.7 3457.65 2087.88 3459.52 2072.72C3461.39 2057.57 3447.03 2041.91 3443.11 2016.69Z" fill="#008F11"/>
<path d="M3459.6 1823.27C3453.99 1825.25 3450.5 1826.87 3449.43 1828.25C3448.73 1829.14 3450.85 1844.54 3453.21 1862.89L3478.55 1859.78L3503.9 1856.67C3502.19 1838.23 3500.52 1822.78 3499.63 1822.08C3498.26 1821.01 3494.44 1820.28 3488.56 1819.71C3483.6 1819.23 3478.56 1819.33 3476.52 1819.58L3475.33 1819.73L3472.43 1820.08L3471.25 1820.23C3469.16 1820.48 3464.3 1821.61 3459.6 1823.27Z" fill="#008F11"/>
<path d="M1815.78 1880.86C1812.59 1878.77 1811 1876.41 1811 1873.79C1811 1871.18 1815.78 1868.82 1825.34 1866.73C1834.9 1864.64 1846.59 1863.59 1860.4 1863.59C1874.74 1863.59 1886.69 1864.64 1896.25 1866.73C1905.81 1868.82 1910.59 1871.18 1910.59 1873.79C1910.59 1876.41 1912.45 1878.77 1916.17 1880.86C1919.89 1882.95 1924.14 1884 1928.92 1884C1934.23 1884 1939.01 1886.09 1943.26 1890.28C1948.04 1894.46 1954.95 1905.45 1963.98 1923.25C1973.54 1941.04 1984.43 1963.54 1996.64 1990.75C2008.86 2017.96 2026.66 2058.25 2050.03 2111.63C2056.4 2125.23 2062.51 2137.53 2068.35 2148.52C2074.2 2159.51 2078.98 2167.88 2082.69 2173.64C2086.94 2179.39 2089.6 2181.75 2090.66 2180.7C2095.44 2175.47 2120.41 2121.31 2165.56 2018.22C2191.58 1959.09 2210.71 1918.54 2222.92 1896.56C2235.14 1874.58 2244.44 1863.59 2250.81 1863.59C2257.18 1863.59 2261.43 1867.78 2263.56 1876.15C2267.28 1890.8 2269.14 1960.4 2269.14 2084.94V2305.5H2218.94C2188.13 2305.5 2171.67 2302.1 2169.54 2295.3C2167.95 2290.07 2177.24 2286.4 2197.43 2284.31L2224.52 2281.17L2229.3 1967.2L2155.2 2133.61C2105.8 2245.07 2078.18 2301.58 2072.34 2303.15C2069.68 2304.2 2060.12 2288.76 2043.65 2256.84C2027.72 2224.4 2009.66 2185.15 1989.47 2139.1L1915.38 1971.91L1910.59 2344.75H1859.6C1828.26 2344.75 1812.86 2341.35 1813.39 2334.55C1813.39 2334.02 1813.39 2333.24 1813.39 2332.19C1815.51 2325.91 1823.48 2320.68 1837.29 2316.49C1851.1 2312.31 1859.87 2307.6 1863.59 2302.37C1868.37 2294.52 1870.76 2226.75 1870.76 2099.07C1870.76 1989.18 1867.57 1924.55 1861.2 1905.19C1853.23 1891.59 1842.34 1884.52 1828.53 1884C1823.75 1884 1819.5 1882.95 1815.78 1880.86Z" fill="#008F11"/>
<path d="M2507.94 1898.13C2514.32 1881.38 2522.82 1881.38 2533.44 1898.13C2540.35 1909.12 2550.17 1929.79 2562.92 1960.14C2579.39 2000.95 2588.95 2028.69 2591.6 2043.34C2594.26 2057.47 2591.6 2068.2 2583.64 2075.52C2578.32 2080.75 2578.86 2090.17 2585.23 2103.78C2592.14 2116.86 2602.23 2135.44 2615.51 2159.51C2628.79 2183.58 2638.35 2205.56 2644.19 2225.44C2647.91 2237.48 2652.16 2248.21 2656.94 2257.62C2662.25 2266.52 2666.76 2271.75 2670.48 2273.32C2688.54 2280.13 2690.14 2285.88 2675.26 2290.59C2664.11 2293.73 2646.85 2295.3 2623.47 2295.3C2583.64 2295.3 2563.45 2291.64 2562.92 2284.31C2562.39 2280.65 2569.29 2276.99 2583.64 2273.32C2596.38 2270.18 2602.76 2263.38 2602.76 2252.91C2602.76 2241.93 2596.65 2222.04 2584.43 2193.26L2564.51 2148.52H2413.13L2393.21 2192.48C2381.53 2219.69 2376.21 2239.57 2377.28 2252.13C2378.87 2264.69 2387.37 2272.01 2402.77 2274.11C2419.77 2276.72 2427.47 2279.86 2425.88 2283.53C2423.22 2290.85 2402.24 2294.78 2362.93 2295.3C2360.28 2295.3 2357.62 2295.3 2354.97 2295.3C2308.22 2295.3 2284.85 2293.47 2284.85 2289.81C2284.85 2286.14 2292.55 2278.03 2307.96 2265.47C2320.18 2256.58 2339.03 2222.56 2364.53 2163.43C2390.02 2103.78 2414.46 2047.26 2437.83 1993.89C2461.2 1939.99 2477.14 1913.04 2485.64 1913.04C2489.88 1913.04 2494.13 1911.73 2498.38 1909.12C2503.16 1905.98 2506.35 1902.31 2507.94 1898.13ZM2488.03 2119.48C2532.11 2119.48 2554.16 2118.43 2554.16 2116.34C2554.16 2113.72 2544.06 2088.34 2523.88 2040.2C2503.7 1992.06 2492.54 1966.94 2490.42 1964.85C2489.88 1964.32 2487.23 1968.77 2482.45 1978.19C2477.67 1987.61 2472.09 1999.64 2465.72 2014.3C2459.87 2028.43 2454.03 2042.82 2448.19 2057.47C2442.34 2071.6 2437.03 2084.16 2432.25 2095.14C2428 2105.61 2425.88 2111.1 2425.88 2111.63C2423.75 2116.34 2443.67 2118.69 2485.64 2118.69C2486.17 2119.22 2486.96 2119.48 2488.03 2119.48Z" fill="#008F11"/>
<path d="M2868.45 1875.36C2869.51 1872.75 2870.04 1869.09 2870.04 1864.38C2870.04 1859.14 2870.57 1855.48 2871.63 1853.39C2873.23 1850.77 2877.48 1848.94 2884.38 1847.89C2891.82 1846.32 2900.58 1845.54 2910.67 1845.54C2921.3 1845.01 2937.76 1844.75 2960.07 1844.75H3050.11V1898.13C3050.11 1933.71 3047.72 1951.5 3042.94 1951.5C3039.75 1950.98 3034.97 1942.08 3028.59 1924.82C3016.91 1890.8 2985.83 1873.79 2935.37 1873.79H2900.32V2041.77C2900.32 2087.3 2900.58 2122.62 2901.11 2147.73C2902.18 2172.33 2904.3 2192.74 2907.49 2208.96C2910.67 2224.66 2914.66 2234.86 2919.44 2239.57C2924.22 2244.28 2931.12 2246.64 2940.15 2246.64C2953.43 2246.64 2960.07 2250.04 2960.07 2256.84C2960.07 2263.12 2946.79 2266.26 2920.24 2266.26C2901.11 2266.26 2889.69 2267.83 2885.97 2270.97C2882.26 2273.58 2880.4 2281.7 2880.4 2295.3C2880.4 2309.43 2878.27 2318.06 2874.02 2321.2C2869.77 2323.82 2857.03 2325.13 2835.78 2325.13C2805.5 2325.13 2790.63 2321.47 2791.16 2314.14C2791.69 2309.95 2799.92 2305.77 2815.86 2301.58L2840.56 2295.3V1909.9L2798.33 1916.97C2777.08 1920.11 2758.76 1927.69 2743.36 1939.73C2728.48 1951.76 2721.05 1964.58 2721.05 1978.19C2721.05 1987.09 2717.59 1991.53 2710.69 1991.53C2708.03 1991.53 2705.64 1986.3 2703.52 1975.84C2701.92 1964.85 2701.13 1952.03 2701.13 1937.37V1884H2785.58C2806.83 1884 2822.23 1883.74 2831.8 1883.21C2841.89 1882.69 2850.12 1881.91 2856.49 1880.86C2863.4 1879.29 2867.38 1877.46 2868.45 1875.36Z" fill="#008F11"/>
<path d="M3066.05 2276.46V1854.17H3137.76C3140.41 1854.17 3144.13 1854.17 3148.91 1854.17C3165.38 1854.17 3177.06 1854.17 3183.97 1854.17C3191.4 1854.17 3200.17 1854.96 3210.26 1856.53C3220.35 1857.57 3226.73 1858.36 3229.38 1858.88C3232.57 1859.4 3236.55 1862.02 3241.33 1866.73C3246.65 1871.44 3249.57 1875.36 3250.1 1878.5C3250.63 1881.12 3251.69 1887.4 3253.29 1897.34C3254.88 1906.76 3255.68 1914.87 3255.68 1921.68C3255.68 1928.48 3255.68 1939.73 3255.68 1955.43C3255.68 1960.14 3255.68 1963.54 3255.68 1965.63C3255.68 2012.2 3254.35 2041.25 3251.69 2052.76C3249.57 2064.27 3243.99 2071.86 3234.96 2075.52C3226.46 2079.71 3223.01 2084.94 3224.6 2091.22C3226.73 2099.59 3243.72 2126.02 3275.6 2170.5C3298.44 2202.42 3316.76 2225.7 3330.57 2240.36C3344.91 2254.48 3358.19 2263.9 3370.41 2268.61C3412.9 2283.27 3414.23 2291.9 3374.39 2294.52C3366.43 2295.04 3356.6 2295.3 3344.91 2295.3H3285.95L3214.24 2192.48C3168.56 2127.59 3139.08 2093.57 3125.8 2090.43C3118.37 2088.34 3113.06 2093.31 3109.87 2105.35C3107.21 2116.34 3105.89 2134.91 3105.89 2161.08C3105.89 2198.23 3108.81 2223.35 3114.65 2236.43C3120.49 2249.51 3131.38 2256.05 3147.32 2256.05C3152.63 2256.05 3156.88 2257.1 3160.07 2259.19C3163.78 2261.29 3165.64 2263.64 3165.64 2266.26C3165.64 2268.87 3160.86 2271.23 3151.3 2273.32C3141.74 2275.42 3129.79 2276.46 3115.45 2276.46H3066.05ZM3188.75 1894.99C3176.53 1888.71 3162.19 1885.05 3145.72 1884C3129.26 1882.43 3118.37 1884.26 3113.06 1889.49C3108.28 1894.2 3105.89 1923.77 3105.89 1978.19V2059.82H3141.74C3161.92 2059.82 3180.25 2053.54 3196.72 2040.98C3213.18 2027.9 3224.6 2012.73 3230.98 1995.46C3237.35 1978.19 3237.09 1959.88 3230.18 1940.51C3223.81 1921.15 3210 1905.98 3188.75 1894.99Z" fill="#008F11"/>
<path d="M3863.99 1900.48C3854.43 1900.48 3847.52 1897.34 3843.27 1891.06C3839.55 1884.26 3865.85 1880.86 3922.15 1880.86C3978.99 1880.86 4007.4 1884.26 4007.4 1891.06C4007.4 1893.68 4005.55 1896.03 4001.83 1898.13C3998.64 1899.7 3994.66 1900.48 3989.88 1900.48C3979.78 1900.48 3946.85 1923.77 3891.08 1970.34C3835.84 2016.39 3808.22 2043.34 3808.22 2051.19C3808.22 2054.33 3817.51 2065.84 3836.1 2085.73C3855.22 2105.09 3877.8 2127.33 3903.83 2152.44L3999.44 2244.28H3943.66C3931.98 2244.28 3923.21 2244.28 3917.37 2244.28C3912.06 2243.76 3905.95 2242.45 3899.05 2240.36C3892.14 2238.26 3887.09 2236.43 3883.91 2234.86C3881.25 2232.77 3876.21 2228.32 3868.77 2221.52C3861.86 2214.71 3855.76 2208.17 3850.44 2201.89C3845.13 2195.61 3836.1 2185.67 3823.35 2172.07C3811.14 2157.94 3798.65 2144.33 3785.91 2131.25L3738.9 2081.8V2165.79C3738.9 2209.22 3741.55 2238 3746.86 2252.13C3752.71 2266.26 3764.13 2273.32 3781.13 2273.32C3792.81 2273.32 3798.65 2276.72 3798.65 2283.53C3798.65 2289.81 3778.74 2292.95 3738.9 2292.95H3679.14V1891.06H3738.9C3755.36 1891.06 3769.44 1892.11 3781.13 1894.2C3792.81 1895.77 3798.65 1897.87 3798.65 1900.48C3798.65 1903.1 3796.8 1905.45 3793.08 1907.55C3789.36 1909.12 3784.84 1909.9 3779.53 1909.9C3764.13 1909.9 3753.24 1916.44 3746.86 1929.52C3741.02 1942.08 3738.9 1963.28 3740.49 1993.1L3743.68 2046.48L3791.48 2001.74C3821.76 1972.96 3837.43 1960.66 3838.49 1964.85C3839.02 1972.17 3845.93 1967.2 3859.21 1949.93C3871.96 1933.19 3878.33 1921.41 3878.33 1914.61C3878.33 1910.42 3876.74 1907.02 3873.55 1904.41C3870.89 1901.79 3867.71 1900.48 3863.99 1900.48Z" fill="#008F11"/>
<path d="M4144.96 1819.63C4140.18 1837.95 4134.07 1857.83 4126.63 1879.29C4119.2 1900.74 4110.96 1922.2 4101.93 1943.65C4093.43 1964.58 4084.93 1984.47 4076.44 2003.31H4024.65C4028.36 1988.66 4032.08 1972.96 4035.8 1956.21C4040.05 1939.47 4043.77 1922.72 4046.96 1905.98C4050.67 1888.71 4053.86 1871.96 4056.52 1855.74C4059.7 1839.52 4062.36 1824.61 4064.48 1811H4139.38L4144.96 1819.63Z" fill="#008F11"/>
<path d="M4187.83 1871.44C4200.57 1862.02 4215.45 1856 4232.44 1853.39C4249.44 1850.77 4264.85 1851.03 4278.66 1854.17C4293 1856.79 4307.34 1859.67 4321.68 1862.81C4336.02 1865.42 4346.65 1867.52 4353.55 1869.09C4360.99 1870.65 4366.3 1868.56 4369.49 1862.81C4374.27 1849.2 4379.31 1846.32 4384.63 1854.17C4389.41 1860.45 4391.8 1870.92 4391.8 1885.57C4391.8 1906.5 4385.95 1918.01 4374.27 1920.11C4363.11 1922.2 4342.4 1915.4 4312.12 1899.7C4282.37 1884.52 4254.75 1881.64 4229.26 1891.06C4204.29 1899.96 4191.81 1917.23 4191.81 1942.87C4191.81 1959.61 4197.39 1973.74 4208.54 1985.25C4220.23 1996.24 4248.38 2015.08 4293 2041.77C4354.08 2078.92 4393.12 2113.98 4410.12 2146.95C4427.12 2179.39 4424.2 2213.93 4401.36 2250.56C4383.3 2280.39 4359.13 2298.7 4328.85 2305.5C4298.58 2312.31 4253.69 2309.69 4194.2 2297.66C4178.8 2294.52 4169.5 2290.59 4166.31 2285.88C4163.66 2280.65 4162.33 2267.3 4162.33 2245.85V2200.32L4179.86 2225.44C4191.01 2241.14 4202.17 2252.91 4213.32 2260.76C4224.48 2268.61 4238.29 2274.11 4254.75 2277.25C4269.63 2280.39 4286.62 2279.08 4305.75 2273.32C4325.4 2267.57 4338.15 2259.98 4343.99 2250.56C4351.43 2239.57 4353.82 2224.13 4351.16 2204.25C4348.51 2184.36 4341.87 2169.97 4331.24 2161.08C4326.46 2156.37 4322.74 2151.14 4320.09 2145.38C4317.43 2139.62 4316.64 2135.18 4317.7 2132.04C4319.29 2128.37 4312.92 2121.57 4298.58 2111.63C4284.77 2101.16 4266.17 2089.39 4242.8 2076.31L4162.33 2033.13V1962.49C4162.33 1930.05 4163.66 1909.12 4166.31 1899.7C4168.97 1890.28 4176.14 1880.86 4187.83 1871.44Z" fill="#008F11"/>
<defs>
<filter id="filter0_dddddd_135_509" x="0.095459" y="0.0961914" width="6231.81" height="4155.56" filterUnits="userSpaceOnUse" color-interpolation-filters="sRGB">
<feFlood flood-opacity="0" result="BackgroundImageFix"/>
<feColorMatrix in="SourceAlpha" type="matrix" values="0 0 0 0 0 0 0 0 0 0 0 0 0 0 0 0 0 0 127 0" result="hardAlpha"/>
<feOffset/>
<feGaussianBlur stdDeviation="21.5584"/>
<feColorMatrix type="matrix" values="0 0 0 0 0 0 0 0 0 1 0 0 0 0 0.254902 0 0 0 1 0"/>
<feBlend mode="normal" in2="BackgroundImageFix" result="effect1_dropShadow_135_509"/>
<feColorMatrix in="SourceAlpha" type="matrix" values="0 0 0 0 0 0 0 0 0 0 0 0 0 0 0 0 0 0 127 0" result="hardAlpha"/>
<feOffset/>
<feGaussianBlur stdDeviation="43.1168"/>
<feColorMatrix type="matrix" values="0 0 0 0 0 0 0 0 0 1 0 0 0 0 0.254902 0 0 0 1 0"/>
<feBlend mode="normal" in2="effect1_dropShadow_135_509" result="effect2_dropShadow_135_509"/>
<feColorMatrix in="SourceAlpha" type="matrix" values="0 0 0 0 0 0 0 0 0 0 0 0 0 0 0 0 0 0 127 0" result="hardAlpha"/>
<feOffset/>
<feGaussianBlur stdDeviation="150.909"/>
<feColorMatrix type="matrix" values="0 0 0 0 0 0 0 0 0 1 0 0 0 0 0.254902 0 0 0 1 0"/>
<feBlend mode="normal" in2="effect2_dropShadow_135_509" result="effect3_dropShadow_135_509"/>
<feColorMatrix in="SourceAlpha" type="matrix" values="0 0 0 0 0 0 0 0 0 0 0 0 0 0 0 0 0 0 127 0" result="hardAlpha"/>
<feOffset/>
<feGaussianBlur stdDeviation="301.817"/>
<feColorMatrix type="matrix" values="0 0 0 0 0 0 0 0 0 1 0 0 0 0 0.254902 0 0 0 1 0"/>
<feBlend mode="normal" in2="effect3_dropShadow_135_509" result="effect4_dropShadow_135_509"/>
<feColorMatrix in="SourceAlpha" type="matrix" values="0 0 0 0 0 0 0 0 0 0 0 0 0 0 0 0 0 0 127 0" result="hardAlpha"/>
<feOffset/>
<feGaussianBlur stdDeviation="517.401"/>
<feColorMatrix type="matrix" values="0 0 0 0 0 0 0 0 0 1 0 0 0 0 0.254902 0 0 0 1 0"/>
<feBlend mode="normal" in2="effect4_dropShadow_135_509" result="effect5_dropShadow_135_509"/>
<feColorMatrix in="SourceAlpha" type="matrix" values="0 0 0 0 0 0 0 0 0 0 0 0 0 0 0 0 0 0 127 0" result="hardAlpha"/>
<feOffset/>
<feGaussianBlur stdDeviation="905.452"/>
<feColorMatrix type="matrix" values="0 0 0 0 0 0 0 0 0 1 0 0 0 0 0.254902 0 0 0 1 0"/>
<feBlend mode="normal" in2="effect5_dropShadow_135_509" result="effect6_dropShadow_135_509"/>
<feBlend mode="normal" in="SourceGraphic" in2="effect6_dropShadow_135_509" result="shape"/>
</filter>
<filter id="filter1_dddddd_135_509" x="1878.16" y="257.904" width="3277.98" height="3630.75" filterUnits="userSpaceOnUse" color-interpolation-filters="sRGB">
<feFlood flood-opacity="0" result="BackgroundImageFix"/>
<feColorMatrix in="SourceAlpha" type="matrix" values="0 0 0 0 0 0 0 0 0 0 0 0 0 0 0 0 0 0 127 0" result="hardAlpha"/>
<feOffset/>
<feGaussianBlur stdDeviation="18.5889"/>
<feColorMatrix type="matrix" values="0 0 0 0 0 0 0 0 0 1 0 0 0 0 0.254902 0 0 0 1 0"/>
<feBlend mode="normal" in2="BackgroundImageFix" result="effect1_dropShadow_135_509"/>
<feColorMatrix in="SourceAlpha" type="matrix" values="0 0 0 0 0 0 0 0 0 0 0 0 0 0 0 0 0 0 127 0" result="hardAlpha"/>
<feOffset/>
<feGaussianBlur stdDeviation="37.1778"/>
<feColorMatrix type="matrix" values="0 0 0 0 0 0 0 0 0 1 0 0 0 0 0.254902 0 0 0 1 0"/>
<feBlend mode="normal" in2="effect1_dropShadow_135_509" result="effect2_dropShadow_135_509"/>
<feColorMatrix in="SourceAlpha" type="matrix" values="0 0 0 0 0 0 0 0 0 0 0 0 0 0 0 0 0 0 127 0" result="hardAlpha"/>
<feOffset/>
<feGaussianBlur stdDeviation="130.122"/>
<feColorMatrix type="matrix" values="0 0 0 0 0 0 0 0 0 1 0 0 0 0 0.254902 0 0 0 1 0"/>
<feBlend mode="normal" in2="effect2_dropShadow_135_509" result="effect3_dropShadow_135_509"/>
<feColorMatrix in="SourceAlpha" type="matrix" values="0 0 0 0 0 0 0 0 0 0 0 0 0 0 0 0 0 0 127 0" result="hardAlpha"/>
<feOffset/>
<feGaussianBlur stdDeviation="260.245"/>
<feColorMatrix type="matrix" values="0 0 0 0 0 0 0 0 0 1 0 0 0 0 0.254902 0 0 0 1 0"/>
<feBlend mode="normal" in2="effect3_dropShadow_135_509" result="effect4_dropShadow_135_509"/>
<feColorMatrix in="SourceAlpha" type="matrix" values="0 0 0 0 0 0 0 0 0 0 0 0 0 0 0 0 0 0 127 0" result="hardAlpha"/>
<feOffset/>
<feGaussianBlur stdDeviation="446.134"/>
<feColorMatrix type="matrix" values="0 0 0 0 0 0 0 0 0 1 0 0 0 0 0.254902 0 0 0 1 0"/>
<feBlend mode="normal" in2="effect4_dropShadow_135_509" result="effect5_dropShadow_135_509"/>
<feColorMatrix in="SourceAlpha" type="matrix" values="0 0 0 0 0 0 0 0 0 0 0 0 0 0 0 0 0 0 127 0" result="hardAlpha"/>
<feOffset/>
<feGaussianBlur stdDeviation="780.734"/>
<feColorMatrix type="matrix" values="0 0 0 0 0 0 0 0 0 1 0 0 0 0 0.254902 0 0 0 1 0"/>
<feBlend mode="normal" in2="effect5_dropShadow_135_509" result="effect6_dropShadow_135_509"/>
<feBlend mode="normal" in="SourceGraphic" in2="effect6_dropShadow_135_509" result="shape"/>
</filter>
<filter id="filter2_dddddd_135_509" x="0.095459" y="0.0959473" width="6231.81" height="4155.56" filterUnits="userSpaceOnUse" color-interpolation-filters="sRGB">
<feFlood flood-opacity="0" result="BackgroundImageFix"/>
<feColorMatrix in="SourceAlpha" type="matrix" values="0 0 0 0 0 0 0 0 0 0 0 0 0 0 0 0 0 0 127 0" result="hardAlpha"/>
<feOffset/>
<feGaussianBlur stdDeviation="21.5584"/>
<feColorMatrix type="matrix" values="0 0 0 0 0 0 0 0 0 1 0 0 0 0 0.254902 0 0 0 1 0"/>
<feBlend mode="normal" in2="BackgroundImageFix" result="effect1_dropShadow_135_509"/>
<feColorMatrix in="SourceAlpha" type="matrix" values="0 0 0 0 0 0 0 0 0 0 0 0 0 0 0 0 0 0 127 0" result="hardAlpha"/>
<feOffset/>
<feGaussianBlur stdDeviation="43.1168"/>
<feColorMatrix type="matrix" values="0 0 0 0 0 0 0 0 0 1 0 0 0 0 0.254902 0 0 0 1 0"/>
<feBlend mode="normal" in2="effect1_dropShadow_135_509" result="effect2_dropShadow_135_509"/>
<feColorMatrix in="SourceAlpha" type="matrix" values="0 0 0 0 0 0 0 0 0 0 0 0 0 0 0 0 0 0 127 0" result="hardAlpha"/>
<feOffset/>
<feGaussianBlur stdDeviation="150.909"/>
<feColorMatrix type="matrix" values="0 0 0 0 0 0 0 0 0 1 0 0 0 0 0.254902 0 0 0 1 0"/>
<feBlend mode="normal" in2="effect2_dropShadow_135_509" result="effect3_dropShadow_135_509"/>
<feColorMatrix in="SourceAlpha" type="matrix" values="0 0 0 0 0 0 0 0 0 0 0 0 0 0 0 0 0 0 127 0" result="hardAlpha"/>
<feOffset/>
<feGaussianBlur stdDeviation="301.817"/>
<feColorMatrix type="matrix" values="0 0 0 0 0 0 0 0 0 1 0 0 0 0 0.254902 0 0 0 1 0"/>
<feBlend mode="normal" in2="effect3_dropShadow_135_509" result="effect4_dropShadow_135_509"/>
<feColorMatrix in="SourceAlpha" type="matrix" values="0 0 0 0 0 0 0 0 0 0 0 0 0 0 0 0 0 0 127 0" result="hardAlpha"/>
<feOffset/>
<feGaussianBlur stdDeviation="517.401"/>
<feColorMatrix type="matrix" values="0 0 0 0 0 0 0 0 0 1 0 0 0 0 0.254902 0 0 0 1 0"/>
<feBlend mode="normal" in2="effect4_dropShadow_135_509" result="effect5_dropShadow_135_509"/>
<feColorMatrix in="SourceAlpha" type="matrix" values="0 0 0 0 0 0 0 0 0 0 0 0 0 0 0 0 0 0 127 0" result="hardAlpha"/>
<feOffset/>
<feGaussianBlur stdDeviation="905.452"/>
<feColorMatrix type="matrix" values="0 0 0 0 0 0 0 0 0 1 0 0 0 0 0.254902 0 0 0 1 0"/>
<feBlend mode="normal" in2="effect5_dropShadow_135_509" result="effect6_dropShadow_135_509"/>
<feBlend mode="normal" in="SourceGraphic" in2="effect6_dropShadow_135_509" result="shape"/>
</filter>
<filter id="filter3_dddddd_135_509" x="1878.16" y="257.904" width="3277.98" height="3630.75" filterUnits="userSpaceOnUse" color-interpolation-filters="sRGB">
<feFlood flood-opacity="0" result="BackgroundImageFix"/>
<feColorMatrix in="SourceAlpha" type="matrix" values="0 0 0 0 0 0 0 0 0 0 0 0 0 0 0 0 0 0 127 0" result="hardAlpha"/>
<feOffset/>
<feGaussianBlur stdDeviation="18.5889"/>
<feColorMatrix type="matrix" values="0 0 0 0 0 0 0 0 0 1 0 0 0 0 0.254902 0 0 0 1 0"/>
<feBlend mode="normal" in2="BackgroundImageFix" result="effect1_dropShadow_135_509"/>
<feColorMatrix in="SourceAlpha" type="matrix" values="0 0 0 0 0 0 0 0 0 0 0 0 0 0 0 0 0 0 127 0" result="hardAlpha"/>
<feOffset/>
<feGaussianBlur stdDeviation="37.1778"/>
<feColorMatrix type="matrix" values="0 0 0 0 0 0 0 0 0 1 0 0 0 0 0.254902 0 0 0 1 0"/>
<feBlend mode="normal" in2="effect1_dropShadow_135_509" result="effect2_dropShadow_135_509"/>
<feColorMatrix in="SourceAlpha" type="matrix" values="0 0 0 0 0 0 0 0 0 0 0 0 0 0 0 0 0 0 127 0" result="hardAlpha"/>
<feOffset/>
<feGaussianBlur stdDeviation="130.122"/>
<feColorMatrix type="matrix" values="0 0 0 0 0 0 0 0 0 1 0 0 0 0 0.254902 0 0 0 1 0"/>
<feBlend mode="normal" in2="effect2_dropShadow_135_509" result="effect3_dropShadow_135_509"/>
<feColorMatrix in="SourceAlpha" type="matrix" values="0 0 0 0 0 0 0 0 0 0 0 0 0 0 0 0 0 0 127 0" result="hardAlpha"/>
<feOffset/>
<feGaussianBlur stdDeviation="260.245"/>
<feColorMatrix type="matrix" values="0 0 0 0 0 0 0 0 0 1 0 0 0 0 0.254902 0 0 0 1 0"/>
<feBlend mode="normal" in2="effect3_dropShadow_135_509" result="effect4_dropShadow_135_509"/>
<feColorMatrix in="SourceAlpha" type="matrix" values="0 0 0 0 0 0 0 0 0 0 0 0 0 0 0 0 0 0 127 0" result="hardAlpha"/>
<feOffset/>
<feGaussianBlur stdDeviation="446.134"/>
<feColorMatrix type="matrix" values="0 0 0 0 0 0 0 0 0 1 0 0 0 0 0.254902 0 0 0 1 0"/>
<feBlend mode="normal" in2="effect4_dropShadow_135_509" result="effect5_dropShadow_135_509"/>
<feColorMatrix in="SourceAlpha" type="matrix" values="0 0 0 0 0 0 0 0 0 0 0 0 0 0 0 0 0 0 127 0" result="hardAlpha"/>
<feOffset/>
<feGaussianBlur stdDeviation="780.734"/>
<feColorMatrix type="matrix" values="0 0 0 0 0 0 0 0 0 1 0 0 0 0 0.254902 0 0 0 1 0"/>
<feBlend mode="normal" in2="effect5_dropShadow_135_509" result="effect6_dropShadow_135_509"/>
<feBlend mode="normal" in="SourceGraphic" in2="effect6_dropShadow_135_509" result="shape"/>
</filter>
</defs>
</svg>
