<svg width="20" height="20" viewBox="0 0 24 18" fill="none" xmlns="http://www.w3.org/2000/svg">
<path d="M14 8H21V3H14V8ZM17.5 6.75L15 5V4L17.5 5.75L20 4V5L17.5 6.75ZM2 18C1.45 18 0.979002 17.804 0.587002 17.412C0.195002 17.02 -0.000664969 16.5493 1.69779e-06 16V2C1.69779e-06 1.45 0.196002 0.979002 0.588002 0.587002C0.980002 0.195002 1.45067 -0.000664969 2 1.69779e-06H22C22.55 1.69779e-06 23.021 0.196002 23.413 0.588002C23.805 0.980002 24.0007 1.45067 24 2V16C24 16.55 23.804 17.021 23.412 17.413C23.02 17.805 22.5493 18.0007 22 18H2ZM9 11C9.83334 11 10.5417 10.7083 11.125 10.125C11.7083 9.54167 12 8.83334 12 8C12 7.16667 11.7083 6.45834 11.125 5.875C10.5417 5.29167 9.83334 5 9 5C8.16667 5 7.45834 5.29167 6.875 5.875C6.29167 6.45834 6 7.16667 6 8C6 8.83334 6.29167 9.54167 6.875 10.125C7.45834 10.7083 8.16667 11 9 11ZM2.1 16H15.9C15.2 14.75 14.2333 13.7707 13 13.062C11.7667 12.3533 10.4333 11.9993 9 12C7.56667 12 6.23334 12.3543 5 13.063C3.76667 13.7717 2.8 14.7507 2.1 16Z" fill="#008F11"/>
</svg>
