<svg width="1154" height="1190" viewBox="0 0 1154 1190" fill="none" xmlns="http://www.w3.org/2000/svg">
<rect width="1154" height="1190" fill="black"/>
<circle cx="313.5" cy="205.5" r="107.5" fill="black" stroke="#02FF41" stroke-width="10"/>
<path d="M669 205.5C669 264.85 620.668 313 561 313C501.332 313 453 264.85 453 205.5C453 146.15 501.332 98 561 98C620.668 98 669 146.15 669 205.5Z" fill="black" stroke="#02FF41" stroke-width="10"/>
<circle cx="808.5" cy="205.5" r="107.5" fill="black" stroke="#02FF41" stroke-width="10"/>
<g style="mix-blend-mode:lighten">
<circle cx="432.5" cy="302.5" r="107.5" fill="black"/>
<circle cx="432.5" cy="302.5" r="107.5" stroke="#02FF41" stroke-width="10"/>
</g>
<g style="mix-blend-mode:lighten">
<circle cx="689.5" cy="302.5" r="107.5" fill="black"/>
<circle cx="689.5" cy="302.5" r="107.5" stroke="#02FF41" stroke-width="10"/>
</g>
<path d="M269.922 462.391C269.922 467.391 269.453 472.078 268.516 476.453C267.578 480.828 266.188 484.656 264.344 487.938C262.5 491.188 260.203 493.766 257.453 495.672C254.734 497.547 251.594 498.484 248.031 498.484C244.406 498.484 241.219 497.547 238.469 495.672C235.75 493.766 233.469 491.188 231.625 487.938C229.812 484.656 228.438 480.828 227.5 476.453C226.594 472.078 226.141 467.391 226.141 462.391C226.141 457.422 226.578 452.75 227.453 448.375C228.359 444 229.719 440.188 231.531 436.938C233.344 433.688 235.625 431.125 238.375 429.25C241.125 427.344 244.344 426.391 248.031 426.391C251.844 426.391 255.125 427.344 257.875 429.25C260.656 431.125 262.938 433.688 264.719 436.938C266.5 440.188 267.812 444 268.656 448.375C269.5 452.75 269.922 457.422 269.922 462.391ZM257.641 462.391C257.641 458.516 257.484 454.875 257.172 451.469C256.859 448.031 256.328 445.047 255.578 442.516C254.859 439.953 253.875 437.938 252.625 436.469C251.406 435 249.875 434.266 248.031 434.266C246.25 434.266 244.75 435 243.531 436.469C242.312 437.938 241.328 439.953 240.578 442.516C239.828 445.047 239.281 448.031 238.938 451.469C238.594 454.875 238.422 458.516 238.422 462.391C238.422 466.297 238.594 469.969 238.938 473.406C239.281 476.812 239.828 479.797 240.578 482.359C241.359 484.891 242.359 486.906 243.578 488.406C244.797 489.875 246.281 490.609 248.031 490.609C249.75 490.609 251.219 489.875 252.438 488.406C253.656 486.906 254.656 484.891 255.438 482.359C256.219 479.797 256.781 476.812 257.125 473.406C257.469 469.969 257.641 466.297 257.641 462.391ZM307.938 498.953C305.688 498.891 303.562 498.859 301.562 498.859C299.562 498.859 297.688 498.859 295.938 498.859C292.375 498.859 289.312 498.891 286.75 498.953C284.219 499.047 282.109 499.125 280.422 499.188C278.484 499.281 276.844 499.375 275.5 499.469C275.719 497.375 275.906 495.25 276.062 493.094C276.25 490.938 276.406 488.812 276.531 486.719C276.656 484.625 276.766 482.594 276.859 480.625C276.953 478.656 277.031 476.797 277.094 475.047C277.219 470.984 277.297 467.062 277.328 463.281C277.297 459.531 277.219 455.688 277.094 451.75C277.031 450.062 276.953 448.297 276.859 446.453C276.766 444.578 276.656 442.672 276.531 440.734C276.406 438.797 276.25 436.859 276.062 434.922C275.906 432.953 275.719 431.047 275.5 429.203L289.328 428.5C288.734 435.562 288.328 442.375 288.109 448.938C287.891 455.469 287.781 461.5 287.781 467.031C287.781 472.344 287.828 476.891 287.922 480.672C288.047 484.453 288.156 487.328 288.25 489.297H288.438C290.875 489.297 293.25 489.109 295.562 488.734C297.906 488.359 300 487.938 301.844 487.469C304 486.938 306.031 486.328 307.938 485.641C307.906 485.984 307.891 486.422 307.891 486.953C307.859 487.391 307.844 487.969 307.844 488.688C307.844 489.375 307.844 490.219 307.844 491.219C307.844 492.219 307.844 493.359 307.844 494.641C307.844 495.891 307.875 497.328 307.938 498.953ZM346 429.203C344.625 432.828 343.328 436.453 342.109 440.078C340.891 443.703 339.719 447.344 338.594 451C337.5 454.656 336.422 458.328 335.359 462.016C334.297 465.703 333.234 469.391 332.172 473.078C332.391 477.266 332.625 481.422 332.875 485.547C333.125 489.641 333.469 493.766 333.906 497.922L319.609 498.484C320.016 493.609 320.312 488.781 320.5 484C320.719 479.219 320.875 474.391 320.969 469.516C318.531 462.547 315.969 455.703 313.281 448.984C310.594 442.234 307.75 435.5 304.75 428.781C307.062 428.719 309.516 428.625 312.109 428.5C314.703 428.344 317.109 428.094 319.328 427.75C319.891 430.625 320.422 433.5 320.922 436.375C321.453 439.25 321.984 442.141 322.516 445.047C323.078 447.922 323.672 450.781 324.297 453.625C324.922 456.469 325.641 459.266 326.453 462.016C327.797 456.391 329 450.734 330.062 445.047C331.125 439.359 332.062 433.75 332.875 428.219C337.188 428.781 341.562 429.109 346 429.203ZM402.625 497.172L389.734 498.109C390.016 493.984 390.234 490.203 390.391 486.766C390.578 483.328 390.703 480.344 390.766 477.812C390.859 474.875 390.906 472.203 390.906 469.797C390.906 468.672 390.891 467.406 390.859 466C390.828 464.812 390.781 463.391 390.719 461.734C390.688 460.078 390.625 458.25 390.531 456.25C389.719 460.031 389 463.297 388.375 466.047C387.781 468.766 387.297 471.016 386.922 472.797C386.453 474.891 386.078 476.641 385.797 478.047C385.359 479.953 384.969 481.859 384.625 483.766C384.312 485.391 384.016 487.125 383.734 488.969C383.453 490.812 383.25 492.484 383.125 493.984L371.125 493.891C370.469 489.828 369.797 485.938 369.109 482.219C368.453 478.469 367.766 474.859 367.047 471.391C366.359 467.891 365.641 464.5 364.891 461.219C364.172 457.906 363.406 454.625 362.594 451.375C362.438 454.5 362.328 457.328 362.266 459.859C362.203 462.391 362.172 464.578 362.172 466.422C362.172 471.734 362.312 476.766 362.594 481.516C362.875 486.266 363.25 490.969 363.719 495.625L349.891 496C350.109 493.75 350.297 491.328 350.453 488.734C350.609 486.109 350.734 483.469 350.828 480.812C350.953 478.125 351.047 475.5 351.109 472.938C351.172 470.344 351.219 467.922 351.25 465.672C351.281 463.422 351.297 461.422 351.297 459.672C351.328 457.922 351.344 456.562 351.344 455.594C351.344 453.844 351.328 451.844 351.297 449.594C351.297 447.344 351.266 445.047 351.203 442.703C351.172 440.328 351.125 438.016 351.062 435.766C351 433.484 350.906 431.453 350.781 429.672C352.281 429.734 353.703 429.781 355.047 429.812C356.391 429.844 357.656 429.859 358.844 429.859C361.875 429.859 364.234 429.812 365.922 429.719C366.922 429.688 367.797 429.641 368.547 429.578C368.984 433.547 369.453 437.422 369.953 441.203C370.484 444.953 371.062 448.641 371.688 452.266C372.312 455.891 372.984 459.484 373.703 463.047C374.453 466.578 375.25 470.109 376.094 473.641C377.219 469.672 378.297 465.781 379.328 461.969C380.359 458.156 381.297 454.391 382.141 450.672C382.984 446.953 383.719 443.266 384.344 439.609C384.969 435.953 385.453 432.312 385.797 428.688C386.953 428.75 388.031 428.797 389.031 428.828C390.031 428.859 390.969 428.875 391.844 428.875C393.625 428.875 395.125 428.844 396.344 428.781C397.594 428.719 398.625 428.641 399.438 428.547C400.375 428.453 401.141 428.344 401.734 428.219C401.484 431.5 401.281 434.75 401.125 437.969C400.969 441.188 400.844 444.25 400.75 447.156C400.688 450.062 400.641 452.734 400.609 455.172C400.609 457.578 400.609 459.609 400.609 461.266C400.609 461.953 400.609 463.016 400.609 464.453C400.641 465.891 400.688 467.594 400.75 469.562C400.812 471.5 400.891 473.625 400.984 475.938C401.078 478.25 401.188 480.625 401.312 483.062C401.469 485.5 401.656 487.922 401.875 490.328C402.094 492.734 402.344 495.016 402.625 497.172ZM447.297 449.734C447.266 453.828 446.484 457.453 444.953 460.609C443.453 463.734 441.484 466.359 439.047 468.484C436.641 470.609 433.953 472.219 430.984 473.312C428.016 474.406 425.062 474.953 422.125 474.953H421.188C421.188 476.266 421.188 477.828 421.188 479.641C421.219 481.422 421.266 483.375 421.328 485.5C421.391 487.594 421.469 489.797 421.562 492.109C421.688 494.391 421.844 496.672 422.031 498.953C420.188 498.766 418.5 498.641 416.969 498.578C415.438 498.516 414.094 498.484 412.938 498.484C412.312 498.484 411.766 498.484 411.297 498.484C410.828 498.516 410.438 498.531 410.125 498.531C409.75 498.562 409.438 498.578 409.188 498.578C409.344 496.141 409.484 493.703 409.609 491.266C409.734 488.797 409.844 486.391 409.938 484.047C410.031 481.672 410.094 479.391 410.125 477.203C410.188 475.016 410.25 472.953 410.312 471.016C410.406 466.516 410.469 462.203 410.5 458.078C410.5 454.109 410.469 450.312 410.406 446.688C410.375 445.156 410.344 443.578 410.312 441.953C410.281 440.328 410.234 438.75 410.172 437.219C410.141 435.688 410.094 434.266 410.031 432.953C410 431.609 409.938 430.453 409.844 429.484C412.25 429.047 414.594 428.781 416.875 428.688C419.188 428.562 421.094 428.5 422.594 428.5C423.75 428.5 425.172 428.547 426.859 428.641C428.547 428.734 430.297 429 432.109 429.438C433.953 429.844 435.781 430.5 437.594 431.406C439.406 432.281 441.031 433.5 442.469 435.062C443.906 436.625 445.062 438.609 445.938 441.016C446.844 443.391 447.297 446.297 447.297 449.734ZM435.203 450.109C435.203 447.734 434.938 445.703 434.406 444.016C433.875 442.297 433.062 440.891 431.969 439.797C430.906 438.703 429.531 437.875 427.844 437.312C426.188 436.75 424.219 436.406 421.938 436.281C421.812 439.031 421.703 441.922 421.609 444.953C421.547 447.984 421.484 450.938 421.422 453.812C421.359 456.656 421.312 459.312 421.281 461.781C421.25 464.219 421.219 466.219 421.188 467.781C423.531 467.656 425.578 467.141 427.328 466.234C429.078 465.328 430.531 464.109 431.688 462.578C432.875 461.047 433.75 459.234 434.312 457.141C434.906 455.016 435.203 452.672 435.203 450.109ZM464.688 496.469L452.312 497.734C452.375 495.641 452.422 493.469 452.453 491.219C452.516 488.938 452.562 486.672 452.594 484.422C452.625 482.172 452.656 479.969 452.688 477.812C452.719 475.625 452.734 473.562 452.734 471.625C452.766 467.062 452.781 462.578 452.781 458.172C452.75 454.234 452.703 450.422 452.641 446.734C452.609 445.172 452.562 443.562 452.5 441.906C452.469 440.25 452.422 438.625 452.359 437.031C452.297 435.438 452.219 433.938 452.125 432.531C452.062 431.094 451.969 429.812 451.844 428.688L463.656 428.125C463.594 430.062 463.531 432.062 463.469 434.125C463.438 436.156 463.406 438.188 463.375 440.219C463.344 442.219 463.312 444.156 463.281 446.031C463.281 447.906 463.281 449.656 463.281 451.281C463.281 459.438 463.375 467.219 463.562 474.625C463.781 482 464.156 489.281 464.688 496.469ZM472.562 490.422C472.562 488.016 472.5 485.609 472.375 483.203C472.281 480.797 472.172 478.391 472.047 475.984C471.922 473.547 471.797 471.109 471.672 468.672C471.578 466.203 471.531 463.703 471.531 461.172C471.531 458.516 471.609 455.828 471.766 453.109C471.953 450.359 472.297 447.719 472.797 445.188C473.297 442.625 473.984 440.234 474.859 438.016C475.734 435.766 476.875 433.812 478.281 432.156C479.688 430.5 481.406 429.188 483.438 428.219C485.469 427.25 487.859 426.766 490.609 426.766C493.234 426.766 495.516 427.188 497.453 428.031C499.391 428.844 501.031 429.969 502.375 431.406C503.75 432.844 504.859 434.531 505.703 436.469C506.578 438.406 507.25 440.5 507.719 442.75C508.219 445 508.562 447.344 508.75 449.781C508.938 452.219 509.031 454.641 509.031 457.047C509.031 457.672 509.016 458.219 508.984 458.688C508.984 459.156 508.969 459.672 508.938 460.234C508.938 460.766 508.906 461.406 508.844 462.156C508.812 462.906 508.766 463.891 508.703 465.109C508.641 466.297 508.562 467.766 508.469 469.516C508.406 471.266 508.328 473.422 508.234 475.984C508.141 478.547 508.031 481.578 507.906 485.078C507.781 488.547 507.656 492.609 507.531 497.266L493.516 496.75C494.047 493.188 494.516 489.625 494.922 486.062C495.359 482.469 495.719 479.125 496 476.031C493.594 475.844 491.359 475.75 489.297 475.75C488.234 475.75 487.234 475.766 486.297 475.797C485.359 475.828 484.531 475.875 483.812 475.938C483.906 477.562 484.016 479.281 484.141 481.094C484.266 482.906 484.406 484.734 484.562 486.578C484.719 488.422 484.891 490.25 485.078 492.062C485.266 493.844 485.484 495.547 485.734 497.172L472.469 497.547C472.531 496.391 472.562 495.219 472.562 494.031C472.562 492.812 472.562 491.609 472.562 490.422ZM483.25 466.047C484.188 466.109 485.109 466.141 486.016 466.141C486.922 466.141 487.812 466.141 488.688 466.141C492.031 466.141 494.719 466.047 496.75 465.859C496.938 463.641 497.125 461.406 497.312 459.156C497.531 456.906 497.641 454.5 497.641 451.938C497.641 446.531 497.078 442.422 495.953 439.609C494.859 436.766 493.234 435.344 491.078 435.344C489.891 435.344 488.797 435.766 487.797 436.609C486.797 437.453 485.922 438.766 485.172 440.547C484.453 442.297 483.875 444.516 483.438 447.203C483.031 449.891 482.828 453.062 482.828 456.719C482.828 458 482.859 459.375 482.922 460.844C483.016 462.281 483.125 464.016 483.25 466.047ZM555.906 463.844C555.906 468.938 555.422 473.344 554.453 477.062C553.516 480.75 552.297 483.906 550.797 486.531C549.297 489.125 547.609 491.234 545.734 492.859C543.859 494.484 541.984 495.734 540.109 496.609C538.234 497.516 536.469 498.125 534.812 498.438C533.156 498.781 531.797 498.953 530.734 498.953C530.484 498.953 529.922 498.938 529.047 498.906C528.203 498.875 527.156 498.797 525.906 498.672C524.656 498.578 523.234 498.422 521.641 498.203C520.078 497.984 518.438 497.672 516.719 497.266C516.75 491.078 516.781 485.719 516.812 481.188C516.875 476.625 516.922 472.703 516.953 469.422C516.984 466.141 517.016 463.391 517.047 461.172C517.078 458.953 517.094 457.047 517.094 455.453C517.125 453.859 517.141 452.5 517.141 451.375C517.172 450.219 517.188 449.094 517.188 448C517.188 446.281 517.172 444.516 517.141 442.703C517.109 440.859 517.047 439.078 516.953 437.359C516.859 435.641 516.734 434.031 516.578 432.531C516.422 431.031 516.219 429.75 515.969 428.688C518.406 428.531 520.625 428.438 522.625 428.406C524.656 428.344 526.406 428.312 527.875 428.312C531.562 428.312 534.812 428.766 537.625 429.672C540.438 430.547 542.875 431.781 544.938 433.375C547.031 434.938 548.766 436.828 550.141 439.047C551.547 441.234 552.672 443.641 553.516 446.266C554.391 448.891 555 451.703 555.344 454.703C555.719 457.672 555.906 460.719 555.906 463.844ZM543.719 462.391C543.719 456.859 543.453 452.359 542.922 448.891C542.422 445.391 541.594 442.672 540.438 440.734C539.312 438.797 537.828 437.484 535.984 436.797C534.172 436.078 531.969 435.719 529.375 435.719H527.969L528.531 490.797C529.156 491.047 529.734 491.219 530.266 491.312C530.828 491.375 531.375 491.406 531.906 491.406C534 491.406 535.781 490.922 537.25 489.953C538.75 488.953 539.969 487.328 540.906 485.078C541.875 482.797 542.578 479.812 543.016 476.125C543.484 472.406 543.719 467.828 543.719 462.391ZM595 497.078C592.469 497.016 590.109 496.969 587.922 496.938C585.766 496.938 583.719 496.938 581.781 496.938C578 496.938 574.828 496.969 572.266 497.031C569.734 497.125 567.672 497.203 566.078 497.266C564.203 497.359 562.719 497.453 561.625 497.547C561.844 495.453 562.031 493.344 562.188 491.219C562.375 489.094 562.531 487 562.656 484.938C562.781 482.875 562.891 480.891 562.984 478.984C563.078 477.078 563.156 475.281 563.219 473.594C563.344 469.656 563.422 465.891 563.453 462.297C563.422 458.547 563.344 454.703 563.219 450.766C563.156 449.078 563.078 447.312 562.984 445.469C562.891 443.594 562.781 441.688 562.656 439.75C562.531 437.812 562.375 435.875 562.188 433.938C562.031 431.969 561.844 430.062 561.625 428.219C565.531 428.375 569.016 428.5 572.078 428.594C575.172 428.656 577.922 428.688 580.328 428.688C582.703 428.688 584.75 428.672 586.469 428.641C588.188 428.578 589.594 428.516 590.688 428.453C591.969 428.391 593.031 428.312 593.875 428.219C593.875 428.188 593.875 428.469 593.875 429.062C593.875 429.656 593.891 430.438 593.922 431.406C593.953 432.375 594 433.469 594.062 434.688C594.156 435.906 594.281 437.141 594.438 438.391C590.812 438.047 587.641 437.828 584.922 437.734C582.203 437.609 579.875 437.547 577.938 437.547C577.125 437.547 576.406 437.547 575.781 437.547C575.188 437.547 574.625 437.578 574.094 437.641C574.031 441.109 573.984 444.375 573.953 447.438C573.922 450.469 573.906 453.344 573.906 456.062C576.094 456 578.047 455.922 579.766 455.828C581.484 455.703 582.953 455.562 584.172 455.406C585.578 455.25 586.828 455.078 587.922 454.891C587.891 455.109 587.875 455.359 587.875 455.641C587.844 455.891 587.828 456.188 587.828 456.531C587.828 456.875 587.828 457.266 587.828 457.703C587.828 458.703 587.859 459.906 587.922 461.312C587.984 462.688 588.109 464.172 588.297 465.766C584.922 465.328 582.016 465.062 579.578 464.969C577.141 464.844 575.25 464.781 573.906 464.781C573.906 468.031 573.922 470.938 573.953 473.5C573.984 476.031 574.016 478.266 574.047 480.203C574.109 482.141 574.156 483.797 574.188 485.172C574.25 486.547 574.312 487.688 574.375 488.594C577.562 488.531 580.406 488.375 582.906 488.125C585.406 487.875 587.516 487.625 589.234 487.375C590.953 487.094 592.266 486.844 593.172 486.625C594.078 486.406 594.531 486.266 594.531 486.203C594.5 486.359 594.484 486.531 594.484 486.719C594.453 486.875 594.438 487.078 594.438 487.328C594.438 487.578 594.438 487.875 594.438 488.219C594.438 489.094 594.469 490.266 594.531 491.734C594.594 493.203 594.75 494.984 595 497.078ZM636.719 479.875C636.406 483.406 635.594 486.344 634.281 488.688C633 491 631.422 492.859 629.547 494.266C627.672 495.641 625.594 496.609 623.312 497.172C621.062 497.734 618.812 498.016 616.562 498.016C614.219 498.016 611.953 497.688 609.766 497.031C607.609 496.406 605.703 495.453 604.047 494.172C602.391 492.891 601.062 491.281 600.062 489.344C599.094 487.406 598.609 485.141 598.609 482.547C598.609 480.547 598.906 478.875 599.5 477.531C600.125 476.188 600.891 475.109 601.797 474.297C602.703 473.484 603.672 472.922 604.703 472.609C605.734 472.266 606.688 472.094 607.562 472.094C608.469 472.094 609.406 472.234 610.375 472.516C611.344 472.797 612.234 473.266 613.047 473.922C613.859 474.578 614.516 475.469 615.016 476.594C615.547 477.688 615.812 479.062 615.812 480.719C615.812 480.75 615.781 481.047 615.719 481.609C615.688 482.141 615.516 482.766 615.203 483.484C614.891 484.172 614.406 484.859 613.75 485.547C613.125 486.203 612.203 486.672 610.984 486.953C611.859 488.047 612.875 488.875 614.031 489.438C615.219 489.969 616.219 490.234 617.031 490.234C617.844 490.234 618.766 490.094 619.797 489.812C620.859 489.531 621.844 489.062 622.75 488.406C623.688 487.719 624.469 486.828 625.094 485.734C625.75 484.609 626.078 483.203 626.078 481.516C626.078 479.547 625.734 477.797 625.047 476.266C624.391 474.734 623.531 473.391 622.469 472.234C621.438 471.047 620.266 470.016 618.953 469.141C617.672 468.234 616.422 467.422 615.203 466.703C614.391 466.234 613.422 465.688 612.297 465.062C611.172 464.406 610 463.641 608.781 462.766C607.562 461.859 606.359 460.844 605.172 459.719C603.984 458.562 602.906 457.266 601.938 455.828C601 454.359 600.234 452.734 599.641 450.953C599.078 449.172 598.797 447.203 598.797 445.047C598.797 441.828 599.359 439.016 600.484 436.609C601.609 434.172 603.062 432.141 604.844 430.516C606.656 428.891 608.703 427.672 610.984 426.859C613.266 426.047 615.578 425.641 617.922 425.641C620.266 425.641 622.5 425.969 624.625 426.625C626.75 427.25 628.609 428.172 630.203 429.391C631.828 430.578 633.109 432.016 634.047 433.703C635.016 435.359 635.5 437.219 635.5 439.281C635.5 441.375 635.156 443.031 634.469 444.25C633.781 445.469 632.953 446.391 631.984 447.016C631.047 447.641 630.078 448.047 629.078 448.234C628.109 448.391 627.328 448.469 626.734 448.469C625.984 448.469 625.203 448.328 624.391 448.047C623.578 447.766 622.828 447.344 622.141 446.781C621.484 446.219 620.938 445.531 620.5 444.719C620.062 443.906 619.844 442.953 619.844 441.859C619.875 441.172 619.953 440.484 620.078 439.797C620.203 439.203 620.391 438.562 620.641 437.875C620.891 437.188 621.266 436.531 621.766 435.906C621.266 435.469 620.781 435.125 620.312 434.875C619.844 434.625 619.406 434.438 619 434.312C618.531 434.188 618.078 434.109 617.641 434.078C616.766 434.078 615.875 434.234 614.969 434.547C614.094 434.859 613.281 435.328 612.531 435.953C611.812 436.578 611.219 437.375 610.75 438.344C610.281 439.281 610.047 440.391 610.047 441.672C610.047 443.172 610.281 444.531 610.75 445.75C611.219 446.938 611.953 448.094 612.953 449.219C613.953 450.344 615.219 451.484 616.75 452.641C618.312 453.797 620.172 455.062 622.328 456.438C624.859 458.031 627.031 459.625 628.844 461.219C630.688 462.812 632.188 464.453 633.344 466.141C634.531 467.828 635.406 469.609 635.969 471.484C636.531 473.328 636.812 475.328 636.812 477.484C636.812 477.859 636.812 478.25 636.812 478.656C636.812 479.031 636.781 479.438 636.719 479.875ZM714.156 497.172L701.266 498.109C701.547 493.984 701.766 490.203 701.922 486.766C702.109 483.328 702.234 480.344 702.297 477.812C702.391 474.875 702.438 472.203 702.438 469.797C702.438 468.672 702.422 467.406 702.391 466C702.359 464.812 702.312 463.391 702.25 461.734C702.219 460.078 702.156 458.25 702.062 456.25C701.25 460.031 700.531 463.297 699.906 466.047C699.312 468.766 698.828 471.016 698.453 472.797C697.984 474.891 697.609 476.641 697.328 478.047C696.891 479.953 696.5 481.859 696.156 483.766C695.844 485.391 695.547 487.125 695.266 488.969C694.984 490.812 694.781 492.484 694.656 493.984L682.656 493.891C682 489.828 681.328 485.938 680.641 482.219C679.984 478.469 679.297 474.859 678.578 471.391C677.891 467.891 677.172 464.5 676.422 461.219C675.703 457.906 674.938 454.625 674.125 451.375C673.969 454.5 673.859 457.328 673.797 459.859C673.734 462.391 673.703 464.578 673.703 466.422C673.703 471.734 673.844 476.766 674.125 481.516C674.406 486.266 674.781 490.969 675.25 495.625L661.422 496C661.641 493.75 661.828 491.328 661.984 488.734C662.141 486.109 662.266 483.469 662.359 480.812C662.484 478.125 662.578 475.5 662.641 472.938C662.703 470.344 662.75 467.922 662.781 465.672C662.812 463.422 662.828 461.422 662.828 459.672C662.859 457.922 662.875 456.562 662.875 455.594C662.875 453.844 662.859 451.844 662.828 449.594C662.828 447.344 662.797 445.047 662.734 442.703C662.703 440.328 662.656 438.016 662.594 435.766C662.531 433.484 662.438 431.453 662.312 429.672C663.812 429.734 665.234 429.781 666.578 429.812C667.922 429.844 669.188 429.859 670.375 429.859C673.406 429.859 675.766 429.812 677.453 429.719C678.453 429.688 679.328 429.641 680.078 429.578C680.516 433.547 680.984 437.422 681.484 441.203C682.016 444.953 682.594 448.641 683.219 452.266C683.844 455.891 684.516 459.484 685.234 463.047C685.984 466.578 686.781 470.109 687.625 473.641C688.75 469.672 689.828 465.781 690.859 461.969C691.891 458.156 692.828 454.391 693.672 450.672C694.516 446.953 695.25 443.266 695.875 439.609C696.5 435.953 696.984 432.312 697.328 428.688C698.484 428.75 699.562 428.797 700.562 428.828C701.562 428.859 702.5 428.875 703.375 428.875C705.156 428.875 706.656 428.844 707.875 428.781C709.125 428.719 710.156 428.641 710.969 428.547C711.906 428.453 712.672 428.344 713.266 428.219C713.016 431.5 712.812 434.75 712.656 437.969C712.5 441.188 712.375 444.25 712.281 447.156C712.219 450.062 712.172 452.734 712.141 455.172C712.141 457.578 712.141 459.609 712.141 461.266C712.141 461.953 712.141 463.016 712.141 464.453C712.172 465.891 712.219 467.594 712.281 469.562C712.344 471.5 712.422 473.625 712.516 475.938C712.609 478.25 712.719 480.625 712.844 483.062C713 485.5 713.188 487.922 713.406 490.328C713.625 492.734 713.875 495.016 714.156 497.172ZM721.656 490.422C721.656 488.016 721.594 485.609 721.469 483.203C721.375 480.797 721.266 478.391 721.141 475.984C721.016 473.547 720.891 471.109 720.766 468.672C720.672 466.203 720.625 463.703 720.625 461.172C720.625 458.516 720.703 455.828 720.859 453.109C721.047 450.359 721.391 447.719 721.891 445.188C722.391 442.625 723.078 440.234 723.953 438.016C724.828 435.766 725.969 433.812 727.375 432.156C728.781 430.5 730.5 429.188 732.531 428.219C734.562 427.25 736.953 426.766 739.703 426.766C742.328 426.766 744.609 427.188 746.547 428.031C748.484 428.844 750.125 429.969 751.469 431.406C752.844 432.844 753.953 434.531 754.797 436.469C755.672 438.406 756.344 440.5 756.812 442.75C757.312 445 757.656 447.344 757.844 449.781C758.031 452.219 758.125 454.641 758.125 457.047C758.125 457.672 758.109 458.219 758.078 458.688C758.078 459.156 758.062 459.672 758.031 460.234C758.031 460.766 758 461.406 757.938 462.156C757.906 462.906 757.859 463.891 757.797 465.109C757.734 466.297 757.656 467.766 757.562 469.516C757.5 471.266 757.422 473.422 757.328 475.984C757.234 478.547 757.125 481.578 757 485.078C756.875 488.547 756.75 492.609 756.625 497.266L742.609 496.75C743.141 493.188 743.609 489.625 744.016 486.062C744.453 482.469 744.812 479.125 745.094 476.031C742.688 475.844 740.453 475.75 738.391 475.75C737.328 475.75 736.328 475.766 735.391 475.797C734.453 475.828 733.625 475.875 732.906 475.938C733 477.562 733.109 479.281 733.234 481.094C733.359 482.906 733.5 484.734 733.656 486.578C733.812 488.422 733.984 490.25 734.172 492.062C734.359 493.844 734.578 495.547 734.828 497.172L721.562 497.547C721.625 496.391 721.656 495.219 721.656 494.031C721.656 492.812 721.656 491.609 721.656 490.422ZM732.344 466.047C733.281 466.109 734.203 466.141 735.109 466.141C736.016 466.141 736.906 466.141 737.781 466.141C741.125 466.141 743.812 466.047 745.844 465.859C746.031 463.641 746.219 461.406 746.406 459.156C746.625 456.906 746.734 454.5 746.734 451.938C746.734 446.531 746.172 442.422 745.047 439.609C743.953 436.766 742.328 435.344 740.172 435.344C738.984 435.344 737.891 435.766 736.891 436.609C735.891 437.453 735.016 438.766 734.266 440.547C733.547 442.297 732.969 444.516 732.531 447.203C732.125 449.891 731.922 453.062 731.922 456.719C731.922 458 731.953 459.375 732.016 460.844C732.109 462.281 732.219 464.016 732.344 466.047ZM786.062 496.75H784.75C782.812 496.75 780.969 496.844 779.219 497.031C777.5 497.25 775.656 497.547 773.688 497.922C774.094 491.047 774.406 484.594 774.625 478.562C774.844 472.5 774.953 466.625 774.953 460.938C774.953 453.656 774.766 446.469 774.391 439.375L762.578 440.219C762.547 439.156 762.516 438.188 762.484 437.312C762.453 436.406 762.406 435.547 762.344 434.734C762.281 433.891 762.203 433.047 762.109 432.203C762.016 431.328 761.906 430.359 761.781 429.297H767.453C769.953 429.297 772.391 429.281 774.766 429.25C777.172 429.219 779.562 429.172 781.938 429.109C784.344 429.047 786.766 428.969 789.203 428.875C791.672 428.781 794.219 428.656 796.844 428.5C796.688 430.094 796.578 431.453 796.516 432.578C796.484 433.672 796.469 434.812 796.469 436V438.484L784.938 438.766C784.844 441.766 784.781 444.719 784.75 447.625C784.75 450.5 784.75 453.406 784.75 456.344C784.75 463.156 784.859 469.906 785.078 476.594C785.297 483.281 785.625 490 786.062 496.75ZM829.469 496.844C828.812 495.938 828.312 494.922 827.969 493.797C827.656 492.672 827.422 491.609 827.266 490.609C827.109 489.578 827.016 488.688 826.984 487.938C826.984 487.188 826.984 486.734 826.984 486.578C826.984 485.578 826.938 484.391 826.844 483.016C826.781 481.609 826.609 480.172 826.328 478.703C826.047 477.203 825.641 475.734 825.109 474.297C824.609 472.828 823.906 471.516 823 470.359C822.125 469.203 821.031 468.281 819.719 467.594C818.438 466.875 816.891 466.516 815.078 466.516C814.828 466.516 814.562 466.531 814.281 466.562C814.031 466.594 813.781 466.609 813.531 466.609V495.812L800.594 496.094C800.781 495 800.938 493.719 801.062 492.25C801.219 490.75 801.344 489.172 801.438 487.516C801.531 485.828 801.609 484.078 801.672 482.266C801.734 480.453 801.781 478.672 801.812 476.922C801.844 475.172 801.859 473.484 801.859 471.859C801.891 470.203 801.906 468.719 801.906 467.406C801.906 466.406 801.891 464.938 801.859 463C801.859 461.062 801.828 458.891 801.766 456.484C801.734 454.047 801.688 451.5 801.625 448.844C801.594 446.156 801.547 443.594 801.484 441.156C801.422 438.688 801.344 436.453 801.25 434.453C801.188 432.422 801.125 430.859 801.062 429.766C802.781 429.422 804.625 429.172 806.594 429.016C808.562 428.828 810.391 428.688 812.078 428.594C814.047 428.469 816 428.406 817.938 428.406C821.062 428.281 824 428.547 826.75 429.203C829.5 429.828 831.906 430.906 833.969 432.438C836.062 433.938 837.719 435.891 838.938 438.297C840.188 440.672 840.844 443.516 840.906 446.828C840.406 449.172 839.609 451.344 838.516 453.344C838.047 454.188 837.484 455.062 836.828 455.969C836.203 456.844 835.453 457.672 834.578 458.453C833.734 459.234 832.766 459.953 831.672 460.609C830.578 461.234 829.359 461.734 828.016 462.109C830.016 462.891 831.641 463.812 832.891 464.875C834.141 465.906 835.125 467.078 835.844 468.391C836.562 469.672 837.078 471.062 837.391 472.562C837.734 474.031 837.969 475.594 838.094 477.25C838.25 478.875 838.375 480.562 838.469 482.312C838.562 484.031 838.734 485.781 838.984 487.562C839.234 488.906 839.547 490.188 839.922 491.406C840.266 492.469 840.688 493.547 841.188 494.641C841.719 495.703 842.359 496.578 843.109 497.266L829.469 496.844ZM829 447.438C828.969 445.438 828.531 443.641 827.688 442.047C827.312 441.391 826.828 440.734 826.234 440.078C825.672 439.422 824.953 438.844 824.078 438.344C823.234 437.844 822.203 437.438 820.984 437.125C819.797 436.812 818.406 436.656 816.812 436.656C815.594 436.656 814.25 436.828 812.781 437.172L812.969 458.359C813.531 458.453 814.094 458.531 814.656 458.594C815.219 458.625 815.734 458.641 816.203 458.641C817.703 458.641 819.031 458.484 820.188 458.172C821.344 457.859 822.359 457.438 823.234 456.906C824.109 456.375 824.859 455.781 825.484 455.125C826.109 454.469 826.641 453.781 827.078 453.062C828.078 451.406 828.719 449.531 829 447.438ZM859.656 496.469L847.281 497.734C847.344 495.641 847.391 493.469 847.422 491.219C847.484 488.938 847.531 486.672 847.562 484.422C847.594 482.172 847.625 479.969 847.656 477.812C847.688 475.625 847.703 473.562 847.703 471.625C847.734 467.062 847.75 462.578 847.75 458.172C847.719 454.234 847.672 450.422 847.609 446.734C847.578 445.172 847.531 443.562 847.469 441.906C847.438 440.25 847.391 438.625 847.328 437.031C847.266 435.438 847.188 433.938 847.094 432.531C847.031 431.094 846.938 429.812 846.812 428.688L858.625 428.125C858.562 430.062 858.5 432.062 858.438 434.125C858.406 436.156 858.375 438.188 858.344 440.219C858.312 442.219 858.281 444.156 858.25 446.031C858.25 447.906 858.25 449.656 858.25 451.281C858.25 459.438 858.344 467.219 858.531 474.625C858.75 482 859.125 489.281 859.656 496.469ZM880.094 497.641C879.375 497.641 878.672 497.625 877.984 497.594C877.328 497.562 876.656 497.547 875.969 497.547C874.656 497.547 873.422 497.562 872.266 497.594C871.109 497.625 870.109 497.672 869.266 497.734C868.234 497.797 867.312 497.859 866.5 497.922C866.938 493.234 867.281 488.672 867.531 484.234C867.781 479.797 867.969 475.828 868.094 472.328C868.219 468.266 868.297 464.406 868.328 460.75C868.328 457.188 868.266 453.547 868.141 449.828C868.078 448.234 868 446.562 867.906 444.812C867.844 443.031 867.75 441.234 867.625 439.422C867.531 437.578 867.391 435.734 867.203 433.891C867.047 432.047 866.875 430.25 866.688 428.5C868 428.594 869.219 428.656 870.344 428.688C871.469 428.688 872.516 428.688 873.484 428.688C874.484 428.688 875.391 428.688 876.203 428.688C877.016 428.656 877.703 428.625 878.266 428.594C878.922 428.562 879.5 428.531 880 428.5C879.719 432.406 879.5 436.234 879.344 439.984C879.188 443.734 879.078 447.109 879.016 450.109C878.922 453.609 878.875 456.938 878.875 460.094V462.953C880.812 460.578 882.578 458.016 884.172 455.266C885.797 452.516 887.188 449.672 888.344 446.734C889.5 443.766 890.391 440.766 891.016 437.734C891.672 434.703 892 431.719 892 428.781V427.281L907.938 428.688C905.188 433.531 902.797 437.812 900.766 441.531C898.734 445.219 896.984 448.406 895.516 451.094C894.078 453.781 892.906 456.016 892 457.797C891.094 459.578 890.391 460.984 889.891 462.016C892.109 462.609 893.891 463.438 895.234 464.5C896.609 465.531 897.688 466.734 898.469 468.109C899.25 469.484 899.797 471 900.109 472.656C900.453 474.281 900.719 475.969 900.906 477.719C901.094 479.469 901.266 481.234 901.422 483.016C901.609 484.797 901.938 486.531 902.406 488.219C902.656 489.188 903.016 490.188 903.484 491.219C903.891 492.125 904.422 493.141 905.078 494.266C905.734 495.359 906.562 496.484 907.562 497.641L894.344 497.922C893.625 497.203 893.031 496.25 892.562 495.062C892.125 493.875 891.781 492.703 891.531 491.547C891.219 490.203 891 488.781 890.875 487.281C890.719 485.562 890.609 483.891 890.547 482.266C890.516 480.609 890.422 479.047 890.266 477.578C890.141 476.109 889.922 474.766 889.609 473.547C889.297 472.297 888.797 471.234 888.109 470.359C887.422 469.453 886.5 468.75 885.344 468.25C884.219 467.75 882.766 467.5 880.984 467.5C880.641 467.5 880.297 467.516 879.953 467.547C879.609 467.578 879.25 467.625 878.875 467.688C878.969 471.062 879.094 475.328 879.25 480.484C879.438 485.609 879.719 491.328 880.094 497.641ZM921.953 431.969C921.922 433.156 921.781 434.25 921.531 435.25C921.281 436.219 920.922 437.156 920.453 438.062C919.984 438.938 919.406 439.797 918.719 440.641C918.031 441.484 917.25 442.344 916.375 443.219L912.531 441.391C912.781 441.141 913.031 440.828 913.281 440.453C913.5 440.109 913.719 439.703 913.938 439.234C914.188 438.766 914.422 438.203 914.641 437.547C913.203 437.234 912 436.531 911.031 435.438C910.062 434.312 909.578 433 909.578 431.5C909.578 430.625 909.734 429.812 910.047 429.062C910.391 428.312 910.844 427.656 911.406 427.094C911.969 426.531 912.625 426.094 913.375 425.781C914.125 425.438 914.938 425.266 915.812 425.266C916.656 425.266 917.453 425.438 918.203 425.781C918.953 426.094 919.594 426.547 920.125 427.141C920.688 427.734 921.125 428.453 921.438 429.297C921.781 430.109 921.953 431 921.953 431.969ZM964.281 479.875C963.969 483.406 963.156 486.344 961.844 488.688C960.562 491 958.984 492.859 957.109 494.266C955.234 495.641 953.156 496.609 950.875 497.172C948.625 497.734 946.375 498.016 944.125 498.016C941.781 498.016 939.516 497.688 937.328 497.031C935.172 496.406 933.266 495.453 931.609 494.172C929.953 492.891 928.625 491.281 927.625 489.344C926.656 487.406 926.172 485.141 926.172 482.547C926.172 480.547 926.469 478.875 927.062 477.531C927.688 476.188 928.453 475.109 929.359 474.297C930.266 473.484 931.234 472.922 932.266 472.609C933.297 472.266 934.25 472.094 935.125 472.094C936.031 472.094 936.969 472.234 937.938 472.516C938.906 472.797 939.797 473.266 940.609 473.922C941.422 474.578 942.078 475.469 942.578 476.594C943.109 477.688 943.375 479.062 943.375 480.719C943.375 480.75 943.344 481.047 943.281 481.609C943.25 482.141 943.078 482.766 942.766 483.484C942.453 484.172 941.969 484.859 941.312 485.547C940.688 486.203 939.766 486.672 938.547 486.953C939.422 488.047 940.438 488.875 941.594 489.438C942.781 489.969 943.781 490.234 944.594 490.234C945.406 490.234 946.328 490.094 947.359 489.812C948.422 489.531 949.406 489.062 950.312 488.406C951.25 487.719 952.031 486.828 952.656 485.734C953.312 484.609 953.641 483.203 953.641 481.516C953.641 479.547 953.297 477.797 952.609 476.266C951.953 474.734 951.094 473.391 950.031 472.234C949 471.047 947.828 470.016 946.516 469.141C945.234 468.234 943.984 467.422 942.766 466.703C941.953 466.234 940.984 465.688 939.859 465.062C938.734 464.406 937.562 463.641 936.344 462.766C935.125 461.859 933.922 460.844 932.734 459.719C931.547 458.562 930.469 457.266 929.5 455.828C928.562 454.359 927.797 452.734 927.203 450.953C926.641 449.172 926.359 447.203 926.359 445.047C926.359 441.828 926.922 439.016 928.047 436.609C929.172 434.172 930.625 432.141 932.406 430.516C934.219 428.891 936.266 427.672 938.547 426.859C940.828 426.047 943.141 425.641 945.484 425.641C947.828 425.641 950.062 425.969 952.188 426.625C954.312 427.25 956.172 428.172 957.766 429.391C959.391 430.578 960.672 432.016 961.609 433.703C962.578 435.359 963.062 437.219 963.062 439.281C963.062 441.375 962.719 443.031 962.031 444.25C961.344 445.469 960.516 446.391 959.547 447.016C958.609 447.641 957.641 448.047 956.641 448.234C955.672 448.391 954.891 448.469 954.297 448.469C953.547 448.469 952.766 448.328 951.953 448.047C951.141 447.766 950.391 447.344 949.703 446.781C949.047 446.219 948.5 445.531 948.062 444.719C947.625 443.906 947.406 442.953 947.406 441.859C947.438 441.172 947.516 440.484 947.641 439.797C947.766 439.203 947.953 438.562 948.203 437.875C948.453 437.188 948.828 436.531 949.328 435.906C948.828 435.469 948.344 435.125 947.875 434.875C947.406 434.625 946.969 434.438 946.562 434.312C946.094 434.188 945.641 434.109 945.203 434.078C944.328 434.078 943.438 434.234 942.531 434.547C941.656 434.859 940.844 435.328 940.094 435.953C939.375 436.578 938.781 437.375 938.312 438.344C937.844 439.281 937.609 440.391 937.609 441.672C937.609 443.172 937.844 444.531 938.312 445.75C938.781 446.938 939.516 448.094 940.516 449.219C941.516 450.344 942.781 451.484 944.312 452.641C945.875 453.797 947.734 455.062 949.891 456.438C952.422 458.031 954.594 459.625 956.406 461.219C958.25 462.812 959.75 464.453 960.906 466.141C962.094 467.828 962.969 469.609 963.531 471.484C964.094 473.328 964.375 475.328 964.375 477.484C964.375 477.859 964.375 478.25 964.375 478.656C964.375 479.031 964.344 479.438 964.281 479.875Z" fill="#02FF41"/>
</svg>
