<svg width="1154" height="1190" viewBox="0 0 1154 1190" fill="none" xmlns="http://www.w3.org/2000/svg">
<rect width="1154" height="1190" fill="black"/>
<path d="M347.41 271.012C347.41 274.007 346.857 276.546 345.75 278.629C344.643 280.712 343.309 282.405 341.746 283.707C340.184 285.009 338.556 285.953 336.863 286.539C335.171 287.125 333.738 287.418 332.566 287.418C331.395 287.418 329.995 287.223 328.367 286.832C326.74 286.376 325.177 285.595 323.68 284.488C322.247 283.382 321.01 281.917 319.969 280.094C318.927 278.206 318.406 275.829 318.406 272.965C318.471 271.402 318.764 269.872 319.285 268.375C319.741 267.073 320.424 265.738 321.336 264.371C322.312 262.939 323.68 261.669 325.438 260.562C324.266 258.87 323.094 257.568 321.922 256.656C320.75 255.745 319.708 255.061 318.797 254.605C317.69 254.085 316.681 253.759 315.77 253.629C313.751 253.629 311.928 254.052 310.301 254.898C308.673 255.68 307.273 256.754 306.102 258.121C304.995 259.423 304.116 260.953 303.465 262.711C302.879 264.469 302.586 266.292 302.586 268.18C302.586 270.589 302.749 272.77 303.074 274.723C303.4 276.676 304.148 278.661 305.32 280.68C306.492 282.698 308.25 284.879 310.594 287.223C312.938 289.566 316.128 292.301 320.164 295.426C324.201 298.551 327.716 301.611 330.711 304.605C333.706 307.535 336.18 310.432 338.133 313.297C340.086 316.161 341.551 319.059 342.527 321.988C343.504 324.853 343.992 327.848 343.992 330.973C343.992 333.056 343.764 335.335 343.309 337.809C342.918 340.217 342.202 342.691 341.16 345.23C340.184 347.704 338.849 350.113 337.156 352.457C335.529 354.736 333.478 356.786 331.004 358.609C328.595 360.432 325.73 361.865 322.41 362.906C319.155 364.013 315.411 364.566 311.18 364.566C304.799 364.566 299.363 363.622 294.871 361.734C290.379 359.846 286.668 357.568 283.738 354.898C280.874 352.164 278.758 349.299 277.391 346.305C276.089 343.31 275.438 340.673 275.438 338.395C275.438 335.986 275.73 333.74 276.316 331.656C276.902 329.573 277.814 327.75 279.051 326.188C280.353 324.625 281.98 323.421 283.934 322.574C285.952 321.663 288.361 321.207 291.16 321.207C293.504 321.207 295.62 321.565 297.508 322.281C299.461 322.997 301.121 324.072 302.488 325.504C303.921 326.871 305.027 328.564 305.809 330.582C306.59 332.6 306.98 334.879 306.98 337.418C306.915 338.525 306.688 339.664 306.297 340.836C305.971 341.812 305.418 342.887 304.637 344.059C303.855 345.23 302.781 346.337 301.414 347.379C302.326 348.095 303.204 348.648 304.051 349.039C304.962 349.365 305.776 349.592 306.492 349.723C307.273 349.918 308.055 350.016 308.836 350.016C309.682 350.016 310.659 349.788 311.766 349.332C312.938 348.811 314.044 348.03 315.086 346.988C316.128 345.947 317.007 344.677 317.723 343.18C318.439 341.682 318.797 339.892 318.797 337.809C318.797 335.725 318.602 333.837 318.211 332.145C317.885 330.387 317.137 328.596 315.965 326.773C314.858 324.885 313.23 322.835 311.082 320.621C308.934 318.408 306.102 315.738 302.586 312.613C299.07 309.488 295.945 306.461 293.211 303.531C290.477 300.536 288.165 297.444 286.277 294.254C284.454 291.064 283.055 287.711 282.078 284.195C281.102 280.68 280.613 276.806 280.613 272.574C280.613 268.408 281.427 264.371 283.055 260.465C284.747 256.559 287.124 253.108 290.184 250.113C293.243 247.053 296.954 244.645 301.316 242.887C305.678 241.064 310.561 240.152 315.965 240.152C321.434 240.152 326.154 240.999 330.125 242.691C334.096 244.384 337.352 246.663 339.891 249.527C342.43 252.327 344.318 255.582 345.555 259.293C346.792 263.004 347.41 266.91 347.41 271.012ZM405.32 359.977C405.451 357.372 405.581 354.898 405.711 352.555C405.906 350.146 406.102 347.835 406.297 345.621C404.083 349.527 401.707 352.522 399.168 354.605C396.694 356.689 394.383 358.251 392.234 359.293C389.695 360.465 387.189 361.181 384.715 361.441C379.897 361.441 375.698 360.237 372.117 357.828C368.536 355.419 365.574 352.001 363.23 347.574C360.887 343.147 359.129 337.841 357.957 331.656C356.85 325.406 356.297 318.44 356.297 310.758C356.297 300.016 356.622 289.599 357.273 279.508C357.99 269.417 359.129 259.521 360.691 249.82L385.496 252.555C383.934 260.302 382.729 267.236 381.883 273.355C381.102 279.41 380.516 284.586 380.125 288.883C379.669 293.896 379.409 298.258 379.344 301.969C379.344 308.154 379.539 313.557 379.93 318.18C380.32 322.737 381.004 326.546 381.98 329.605C383.022 332.6 384.422 334.846 386.18 336.344C387.938 337.841 390.184 338.59 392.918 338.59C394.806 338.264 396.661 336.962 398.484 334.684C399.266 333.707 400.079 332.47 400.926 330.973C401.772 329.41 402.618 327.522 403.465 325.309C404.311 323.095 405.125 320.491 405.906 317.496C406.688 314.501 407.436 311.018 408.152 307.047C408.283 303.206 408.348 299.397 408.348 295.621C408.348 291.78 408.348 287.646 408.348 283.219C408.348 278.531 408.348 273.421 408.348 267.887C408.348 262.353 408.283 256.135 408.152 249.234L430.32 249.625C429.995 254.573 429.734 259.163 429.539 263.395C429.344 267.561 429.181 271.5 429.051 275.211C428.986 278.857 428.921 282.307 428.855 285.562C428.79 288.818 428.758 291.975 428.758 295.035C428.758 299.723 428.79 304.312 428.855 308.805C428.986 313.297 429.148 318.082 429.344 323.16C429.539 328.173 429.734 333.707 429.93 339.762C430.19 345.751 430.451 352.62 430.711 360.367L405.32 359.977ZM469.676 363.004L443.602 364.957C444.643 353.303 445.392 342.073 445.848 331.266C446.368 320.393 446.629 309.521 446.629 298.648C446.629 290.966 446.499 283.284 446.238 275.602C446.043 267.854 445.652 259.911 445.066 251.773L467.039 250.602C466.909 252.034 466.811 253.434 466.746 254.801C466.681 256.168 466.648 257.503 466.648 258.805C468.927 255.289 471.401 252.555 474.07 250.602C476.805 248.583 479.344 247.118 481.688 246.207C484.357 245.1 487.059 244.417 489.793 244.156C494.546 244.156 498.615 244.905 502 246.402C505.385 247.835 508.152 249.723 510.301 252.066C512.449 254.345 514.012 256.917 514.988 259.781C515.965 262.581 516.453 265.315 516.453 267.984C516.453 270.719 516.16 273.486 515.574 276.285C514.988 279.085 513.979 281.624 512.547 283.902C511.18 286.116 509.324 287.939 506.98 289.371C504.702 290.738 501.87 291.422 498.484 291.422C495.099 291.422 492.43 290.803 490.477 289.566C488.523 288.329 487.026 286.865 485.984 285.172C485.008 283.414 484.357 281.624 484.031 279.801C483.771 277.913 483.641 276.318 483.641 275.016C483.641 274.104 483.803 273.095 484.129 271.988C484.454 270.816 484.943 269.645 485.594 268.473C486.245 267.301 487.059 266.161 488.035 265.055C489.012 263.883 490.151 262.809 491.453 261.832C491.062 261.702 490.639 261.604 490.184 261.539C489.793 261.474 489.402 261.441 489.012 261.441C485.757 261.441 482.859 262.483 480.32 264.566C477.781 266.585 475.568 269.417 473.68 273.062C471.857 276.708 470.327 281.005 469.09 285.953C467.918 290.901 467.039 296.305 466.453 302.164C466.779 312.255 467.234 322.249 467.82 332.145C468.406 342.04 469.025 352.327 469.676 363.004ZM521.336 398.16C522.117 388.785 522.768 379.573 523.289 370.523C523.875 361.474 524.363 352.522 524.754 343.668C525.145 334.749 525.438 325.862 525.633 317.008C525.828 308.154 525.926 299.202 525.926 290.152C525.926 278.108 525.73 265.673 525.34 252.848L547.508 252.555L546.922 263.395C549.721 257.926 552.977 253.661 556.688 250.602C560.398 247.542 564.272 246.012 568.309 246.012C573.191 246.012 577.521 247.086 581.297 249.234C585.138 251.318 588.361 254.638 590.965 259.195C593.569 263.753 595.555 269.579 596.922 276.676C598.289 283.707 598.973 292.203 598.973 302.164C598.973 313.557 598.029 323.16 596.141 330.973C594.253 338.72 591.746 345.003 588.621 349.82C585.496 354.573 581.948 357.991 577.977 360.074C574.07 362.158 570.066 363.199 565.965 363.199C563.816 363.004 561.603 362.483 559.324 361.637C557.371 360.921 555.19 359.781 552.781 358.219C550.438 356.591 548.094 354.312 545.75 351.383C545.88 359.13 546.076 366.91 546.336 374.723C546.596 382.535 546.987 390.51 547.508 398.648L521.336 398.16ZM545.555 331.754C546.206 332.991 546.987 334.326 547.898 335.758C548.81 337.125 549.786 338.427 550.828 339.664C551.935 340.836 553.107 341.812 554.344 342.594C555.581 343.375 556.915 343.766 558.348 343.766C560.301 343.766 562.221 342.984 564.109 341.422C566.062 339.794 567.788 337.288 569.285 333.902C570.783 330.452 571.987 326.025 572.898 320.621C573.875 315.152 574.363 308.609 574.363 300.992C574.363 294.742 574.038 289.371 573.387 284.879C572.801 280.322 571.987 276.578 570.945 273.648C569.904 270.654 568.667 268.473 567.234 267.105C565.802 265.673 564.305 264.957 562.742 264.957C561.44 264.957 560.171 265.445 558.934 266.422C557.697 267.333 556.492 268.538 555.32 270.035C554.214 271.467 553.172 273.128 552.195 275.016C551.219 276.839 550.307 278.661 549.461 280.484C548.68 282.242 547.996 283.902 547.41 285.465C546.824 287.027 546.401 288.264 546.141 289.176C545.945 296.142 545.783 302.978 545.652 309.684C545.587 316.389 545.555 323.16 545.555 329.996V331.754ZM635.691 363.004L609.617 364.957C610.659 353.303 611.408 342.073 611.863 331.266C612.384 320.393 612.645 309.521 612.645 298.648C612.645 290.966 612.514 283.284 612.254 275.602C612.059 267.854 611.668 259.911 611.082 251.773L633.055 250.602C632.924 252.034 632.827 253.434 632.762 254.801C632.697 256.168 632.664 257.503 632.664 258.805C634.943 255.289 637.417 252.555 640.086 250.602C642.82 248.583 645.359 247.118 647.703 246.207C650.372 245.1 653.074 244.417 655.809 244.156C660.561 244.156 664.63 244.905 668.016 246.402C671.401 247.835 674.168 249.723 676.316 252.066C678.465 254.345 680.027 256.917 681.004 259.781C681.98 262.581 682.469 265.315 682.469 267.984C682.469 270.719 682.176 273.486 681.59 276.285C681.004 279.085 679.995 281.624 678.562 283.902C677.195 286.116 675.34 287.939 672.996 289.371C670.717 290.738 667.885 291.422 664.5 291.422C661.115 291.422 658.445 290.803 656.492 289.566C654.539 288.329 653.042 286.865 652 285.172C651.023 283.414 650.372 281.624 650.047 279.801C649.786 277.913 649.656 276.318 649.656 275.016C649.656 274.104 649.819 273.095 650.145 271.988C650.47 270.816 650.958 269.645 651.609 268.473C652.26 267.301 653.074 266.161 654.051 265.055C655.027 263.883 656.167 262.809 657.469 261.832C657.078 261.702 656.655 261.604 656.199 261.539C655.809 261.474 655.418 261.441 655.027 261.441C651.772 261.441 648.875 262.483 646.336 264.566C643.797 266.585 641.583 269.417 639.695 273.062C637.872 276.708 636.342 281.005 635.105 285.953C633.934 290.901 633.055 296.305 632.469 302.164C632.794 312.255 633.25 322.249 633.836 332.145C634.422 342.04 635.04 352.327 635.691 363.004ZM717.527 221.988C717.527 224.072 717.137 226.057 716.355 227.945C715.574 229.768 714.5 231.363 713.133 232.73C711.766 234.098 710.138 235.204 708.25 236.051C706.427 236.832 704.474 237.223 702.391 237.223C700.307 237.223 698.322 236.832 696.434 236.051C694.611 235.204 693.016 234.098 691.648 232.73C690.281 231.363 689.174 229.768 688.328 227.945C687.547 226.057 687.156 224.072 687.156 221.988C687.156 219.905 687.547 217.952 688.328 216.129C689.174 214.241 690.281 212.613 691.648 211.246C693.016 209.879 694.611 208.805 696.434 208.023C698.322 207.177 700.307 206.754 702.391 206.754C704.474 206.754 706.427 207.177 708.25 208.023C710.138 208.805 711.766 209.879 713.133 211.246C714.5 212.613 715.574 214.241 716.355 216.129C717.137 217.952 717.527 219.905 717.527 221.988ZM717.527 251.578C717.007 256.721 716.551 262.288 716.16 268.277C715.835 274.202 715.542 280.289 715.281 286.539C715.086 292.789 714.923 299.072 714.793 305.387C714.663 311.702 714.565 317.724 714.5 323.453C714.435 329.182 714.37 334.553 714.305 339.566C714.305 344.514 714.305 348.779 714.305 352.359V363.395L692.137 364.176C692.267 359.684 692.332 355.322 692.332 351.09C692.332 346.858 692.332 342.626 692.332 338.395C692.332 331.038 692.267 323.876 692.137 316.91C692.007 309.879 691.779 302.848 691.453 295.816C691.193 288.785 690.835 281.656 690.379 274.43C689.923 267.203 689.37 259.716 688.719 251.969L717.527 251.578ZM797.41 271.012C797.41 274.007 796.857 276.546 795.75 278.629C794.643 280.712 793.309 282.405 791.746 283.707C790.184 285.009 788.556 285.953 786.863 286.539C785.171 287.125 783.738 287.418 782.566 287.418C781.395 287.418 779.995 287.223 778.367 286.832C776.74 286.376 775.177 285.595 773.68 284.488C772.247 283.382 771.01 281.917 769.969 280.094C768.927 278.206 768.406 275.829 768.406 272.965C768.471 271.402 768.764 269.872 769.285 268.375C769.741 267.073 770.424 265.738 771.336 264.371C772.312 262.939 773.68 261.669 775.438 260.562C774.266 258.87 773.094 257.568 771.922 256.656C770.75 255.745 769.708 255.061 768.797 254.605C767.69 254.085 766.681 253.759 765.77 253.629C763.751 253.629 761.928 254.052 760.301 254.898C758.673 255.68 757.273 256.754 756.102 258.121C754.995 259.423 754.116 260.953 753.465 262.711C752.879 264.469 752.586 266.292 752.586 268.18C752.586 270.589 752.749 272.77 753.074 274.723C753.4 276.676 754.148 278.661 755.32 280.68C756.492 282.698 758.25 284.879 760.594 287.223C762.938 289.566 766.128 292.301 770.164 295.426C774.201 298.551 777.716 301.611 780.711 304.605C783.706 307.535 786.18 310.432 788.133 313.297C790.086 316.161 791.551 319.059 792.527 321.988C793.504 324.853 793.992 327.848 793.992 330.973C793.992 333.056 793.764 335.335 793.309 337.809C792.918 340.217 792.202 342.691 791.16 345.23C790.184 347.704 788.849 350.113 787.156 352.457C785.529 354.736 783.478 356.786 781.004 358.609C778.595 360.432 775.73 361.865 772.41 362.906C769.155 364.013 765.411 364.566 761.18 364.566C754.799 364.566 749.363 363.622 744.871 361.734C740.379 359.846 736.668 357.568 733.738 354.898C730.874 352.164 728.758 349.299 727.391 346.305C726.089 343.31 725.438 340.673 725.438 338.395C725.438 335.986 725.73 333.74 726.316 331.656C726.902 329.573 727.814 327.75 729.051 326.188C730.353 324.625 731.98 323.421 733.934 322.574C735.952 321.663 738.361 321.207 741.16 321.207C743.504 321.207 745.62 321.565 747.508 322.281C749.461 322.997 751.121 324.072 752.488 325.504C753.921 326.871 755.027 328.564 755.809 330.582C756.59 332.6 756.98 334.879 756.98 337.418C756.915 338.525 756.688 339.664 756.297 340.836C755.971 341.812 755.418 342.887 754.637 344.059C753.855 345.23 752.781 346.337 751.414 347.379C752.326 348.095 753.204 348.648 754.051 349.039C754.962 349.365 755.776 349.592 756.492 349.723C757.273 349.918 758.055 350.016 758.836 350.016C759.682 350.016 760.659 349.788 761.766 349.332C762.938 348.811 764.044 348.03 765.086 346.988C766.128 345.947 767.007 344.677 767.723 343.18C768.439 341.682 768.797 339.892 768.797 337.809C768.797 335.725 768.602 333.837 768.211 332.145C767.885 330.387 767.137 328.596 765.965 326.773C764.858 324.885 763.23 322.835 761.082 320.621C758.934 318.408 756.102 315.738 752.586 312.613C749.07 309.488 745.945 306.461 743.211 303.531C740.477 300.536 738.165 297.444 736.277 294.254C734.454 291.064 733.055 287.711 732.078 284.195C731.102 280.68 730.613 276.806 730.613 272.574C730.613 268.408 731.427 264.371 733.055 260.465C734.747 256.559 737.124 253.108 740.184 250.113C743.243 247.053 746.954 244.645 751.316 242.887C755.678 241.064 760.561 240.152 765.965 240.152C771.434 240.152 776.154 240.999 780.125 242.691C784.096 244.384 787.352 246.663 789.891 249.527C792.43 252.327 794.318 255.582 795.555 259.293C796.792 263.004 797.41 266.91 797.41 271.012ZM877.098 338.004C877.098 341.845 876.219 345.458 874.461 348.844C872.703 352.229 870.327 355.159 867.332 357.633C864.337 360.107 860.822 362.06 856.785 363.492C852.749 364.924 848.452 365.641 843.895 365.641C840.835 365.641 837.742 365.217 834.617 364.371C831.492 363.525 828.497 362.125 825.633 360.172C822.768 358.219 820.066 355.647 817.527 352.457C814.988 349.267 812.775 345.361 810.887 340.738C809.064 336.116 807.599 330.712 806.492 324.527C805.451 318.277 804.93 311.116 804.93 303.043C804.93 295.426 805.451 288.688 806.492 282.828C807.599 276.969 809.064 271.858 810.887 267.496C812.775 263.134 814.956 259.488 817.43 256.559C819.904 253.564 822.54 251.155 825.34 249.332C828.204 247.444 831.134 246.109 834.129 245.328C837.189 244.547 840.184 244.156 843.113 244.156C847.475 244.156 851.609 244.872 855.516 246.305C859.422 247.672 862.84 249.723 865.77 252.457C868.699 255.191 871.01 258.577 872.703 262.613C874.461 266.585 875.34 271.174 875.34 276.383C875.34 281.07 874.363 285.823 872.41 290.641C870.522 295.393 867.69 299.918 863.914 304.215C860.138 308.447 855.451 312.32 849.852 315.836C844.318 319.286 837.938 322.021 830.711 324.039C831.102 328.076 831.655 331.754 832.371 335.074C833.152 338.395 834.096 341.227 835.203 343.57C836.375 345.914 837.71 347.737 839.207 349.039C840.77 350.341 842.56 350.992 844.578 350.992C845.88 350.927 847.117 350.699 848.289 350.309C849.331 349.983 850.372 349.462 851.414 348.746C852.521 348.03 853.432 346.988 854.148 345.621C852.456 344.84 851.154 343.831 850.242 342.594C849.331 341.357 848.647 340.185 848.191 339.078C847.671 337.776 847.378 336.409 847.312 334.977C847.312 331.852 847.931 329.312 849.168 327.359C850.405 325.406 851.87 323.876 853.562 322.77C855.255 321.663 856.98 320.914 858.738 320.523C860.496 320.068 861.896 319.84 862.938 319.84C864.044 319.84 865.379 320.068 866.941 320.523C868.569 320.979 870.132 321.858 871.629 323.16C873.126 324.462 874.396 326.318 875.438 328.727C876.544 331.07 877.098 334.163 877.098 338.004ZM852.977 276.578C852.977 274.234 852.749 272.021 852.293 269.938C851.902 267.789 851.284 265.934 850.438 264.371C849.656 262.809 848.647 261.572 847.41 260.66C846.238 259.684 844.871 259.195 843.309 259.195C840.639 259.195 838.458 260.432 836.766 262.906C835.073 265.315 833.706 268.538 832.664 272.574C831.622 276.611 830.906 281.266 830.516 286.539C830.125 291.812 829.93 297.314 829.93 303.043V310.172C833.25 308.414 836.31 306.331 839.109 303.922C841.974 301.513 844.415 298.876 846.434 296.012C848.517 293.082 850.112 289.99 851.219 286.734C852.391 283.479 852.977 280.094 852.977 276.578Z" fill="#02FF41"/>
<path d="M535.941 610.537C533.52 615.001 530.721 618.593 527.543 621.313C524.421 624.064 521.024 626.369 517.35 628.228C513.733 630.118 509.905 631.783 505.866 633.222C501.859 634.603 497.784 636.245 493.642 638.147C489.532 639.991 485.422 642.243 481.314 644.903C477.262 647.595 473.343 651.135 469.556 655.525L455.119 648.141C458.721 642.318 462.39 637.531 466.127 633.78C469.895 629.973 473.599 626.76 477.24 624.143C480.97 621.499 484.614 619.217 488.174 617.296C491.733 615.375 495.121 613.361 498.337 611.254C501.611 609.178 504.676 606.803 507.532 604.131C510.419 601.401 513.011 597.918 515.308 593.683C516.766 590.993 517.482 588.308 517.454 585.627C517.458 582.889 516.989 580.339 516.048 577.977C515.138 575.558 513.911 573.449 512.369 571.65C510.826 569.85 509.254 568.516 507.651 567.648C507.079 567.337 506.359 567.095 505.491 566.92C504.768 566.751 503.825 566.646 502.661 566.608C501.528 566.512 500.187 566.526 498.639 566.649C499.268 568.767 499.551 570.772 499.488 572.664C499.514 574.529 499.416 576.143 499.196 577.504C498.909 579.126 498.453 580.582 497.828 581.872C496.431 584.448 494.82 586.463 492.995 587.917C491.17 589.371 489.229 590.355 487.173 590.87C485.116 591.384 482.973 591.444 480.743 591.049C478.513 590.655 476.311 589.868 474.136 588.689C472.247 587.665 470.589 586.284 469.161 584.547C467.79 582.841 466.79 580.929 466.161 578.81C465.533 576.692 465.317 574.427 465.513 572.016C465.741 569.547 466.506 567.111 467.81 564.707C470.292 560.129 473.466 556.665 477.331 554.318C481.228 551.913 485.471 550.437 490.063 549.89C494.655 549.344 499.423 549.633 504.367 550.759C509.368 551.915 514.187 553.75 518.823 556.264C523.287 558.685 527.355 561.631 531.027 565.103C534.729 568.518 537.54 572.486 539.458 577.007C541.376 581.527 542.155 586.579 541.795 592.16C541.523 597.715 539.572 603.841 535.941 610.537ZM464.759 678.918C463.859 680.578 462.662 681.965 461.168 683.081C459.732 684.228 458.146 685.034 456.412 685.501C454.704 686.056 452.935 686.245 451.106 686.068C449.246 685.948 447.486 685.438 445.826 684.538C444.166 683.638 442.778 682.441 441.663 680.947C440.516 679.511 439.709 677.926 439.243 676.191C438.745 674.514 438.585 672.761 438.762 670.932C438.939 669.102 439.478 667.358 440.378 665.698C441.278 664.038 442.446 662.635 443.882 661.488C445.319 660.342 446.875 659.52 448.552 659.022C450.26 658.467 452.029 658.278 453.859 658.455C455.688 658.632 457.433 659.171 459.092 660.071C460.752 660.971 462.155 662.139 463.302 663.576C464.449 665.012 465.255 666.597 465.722 668.332C466.277 670.04 466.466 671.808 466.289 673.638C466.169 675.498 465.659 677.258 464.759 678.918Z" fill="#02FF41"/>
<path d="M964.832 117.387C964.832 122.465 964.083 126.957 962.586 130.863C961.154 134.77 959.266 138.415 956.922 141.801C954.643 145.186 952.072 148.474 949.207 151.664C946.342 154.789 943.543 158.174 940.809 161.82C938.074 165.401 935.535 169.34 933.191 173.637C930.913 177.934 929.155 182.914 927.918 188.578L911.707 188.969C912.098 182.133 913.042 176.176 914.539 171.098C916.036 165.954 917.762 161.365 919.715 157.328C921.733 153.227 923.849 149.483 926.062 146.098C928.276 142.712 930.294 139.327 932.117 135.941C934.005 132.556 935.568 129.008 936.805 125.297C938.042 121.521 938.66 117.224 938.66 112.406C938.66 109.346 938.009 106.645 936.707 104.301C935.405 101.892 933.777 99.8737 931.824 98.2461C929.871 96.5534 927.788 95.2839 925.574 94.4375C923.361 93.5911 921.342 93.168 919.52 93.168C918.868 93.168 918.12 93.2982 917.273 93.5586C916.557 93.7539 915.678 94.112 914.637 94.6328C913.595 95.0885 912.423 95.7396 911.121 96.5859C912.684 98.1484 913.888 99.776 914.734 101.469C915.646 103.096 916.329 104.561 916.785 105.863C917.306 107.426 917.599 108.923 917.664 110.355C917.664 113.285 917.208 115.824 916.297 117.973C915.385 120.121 914.148 121.911 912.586 123.344C911.023 124.776 909.168 125.85 907.02 126.566C904.871 127.283 902.56 127.641 900.086 127.641C897.938 127.641 895.822 127.217 893.738 126.371C891.72 125.525 889.93 124.32 888.367 122.758C886.805 121.195 885.535 119.307 884.559 117.094C883.582 114.815 883.094 112.309 883.094 109.574C883.094 104.366 884.233 99.8086 886.512 95.9023C888.79 91.931 891.818 88.6107 895.594 85.9414C899.37 83.2721 903.699 81.2539 908.582 79.8867C913.53 78.5195 918.641 77.8359 923.914 77.8359C928.992 77.8359 933.973 78.487 938.855 79.7891C943.738 81.026 948.1 83.1745 951.941 86.2344C955.783 89.2943 958.875 93.3633 961.219 98.4414C963.628 103.454 964.832 109.77 964.832 117.387ZM934.852 211.43C934.852 213.318 934.461 215.108 933.68 216.801C932.964 218.493 931.954 219.958 930.652 221.195C929.415 222.497 927.951 223.507 926.258 224.223C924.565 225.004 922.775 225.395 920.887 225.395C918.999 225.395 917.208 225.004 915.516 224.223C913.823 223.507 912.358 222.497 911.121 221.195C909.884 219.958 908.908 218.493 908.191 216.801C907.475 215.108 907.117 213.318 907.117 211.43C907.117 209.542 907.475 207.751 908.191 206.059C908.908 204.366 909.884 202.901 911.121 201.664C912.358 200.362 913.823 199.353 915.516 198.637C917.208 197.921 918.999 197.562 920.887 197.562C922.775 197.562 924.565 197.921 926.258 198.637C927.951 199.353 929.415 200.362 930.652 201.664C931.954 202.901 932.964 204.366 933.68 206.059C934.461 207.751 934.852 209.542 934.852 211.43Z" fill="#02FF41"/>
<path d="M314.919 86.5716C318.115 90.5179 320.36 94.4801 321.655 98.4581C323.001 102.395 323.828 106.417 324.137 110.523C324.497 114.587 324.568 118.761 324.349 123.043C324.09 127.274 324.045 131.667 324.215 136.221C324.343 140.725 324.849 145.383 325.732 150.198C326.665 154.971 328.434 159.948 331.037 165.128L318.685 175.634C314.686 170.076 311.671 164.852 309.639 159.963C307.565 155.024 306.018 150.372 304.995 146.006C303.982 141.548 303.27 137.307 302.86 133.283C302.45 129.259 301.887 125.358 301.173 121.58C300.51 117.761 299.491 114.02 298.117 110.358C296.702 106.645 294.478 102.916 291.446 99.1726C289.52 96.7946 287.314 95.1047 284.827 94.1028C282.299 93.0503 279.764 92.5063 277.222 92.4706C274.639 92.3844 272.221 92.709 269.968 93.4444C267.715 94.1798 265.88 95.1211 264.464 96.2683C263.958 96.6781 263.458 97.2505 262.964 97.9855C262.531 98.588 262.073 99.4194 261.591 100.48C261.069 101.489 260.568 102.733 260.088 104.21C262.286 104.441 264.246 104.948 265.969 105.731C267.702 106.422 269.155 107.13 270.329 107.855C271.717 108.741 272.887 109.721 273.839 110.793C275.683 113.07 276.927 115.33 277.57 117.573C278.214 119.816 278.38 121.986 278.067 124.082C277.754 126.179 276.988 128.181 275.769 130.09C274.55 131.998 272.98 133.731 271.057 135.288C269.388 136.64 267.477 137.643 265.325 138.297C263.224 138.909 261.075 139.1 258.877 138.869C256.68 138.638 254.505 137.97 252.353 136.864C250.16 135.708 248.203 134.068 246.482 131.943C243.204 127.895 241.221 123.637 240.534 119.167C239.805 114.647 240.068 110.161 241.323 105.71C242.577 101.259 244.671 96.9663 247.605 92.8308C250.59 88.6543 254.132 84.9067 258.23 81.5878C262.176 78.3919 266.456 75.7633 271.07 73.7022C275.643 71.5905 280.385 70.5148 285.296 70.4753C290.207 70.4358 295.171 71.6516 300.188 74.1229C305.215 76.5026 310.125 80.6521 314.919 86.5716ZM350.807 178.523C351.995 179.99 352.819 181.627 353.277 183.434C353.785 185.2 353.923 186.974 353.69 188.754C353.548 190.545 353.045 192.251 352.18 193.873C351.356 195.545 350.211 196.975 348.744 198.164C347.276 199.352 345.639 200.175 343.832 200.633C342.066 201.142 340.292 201.28 338.512 201.046C336.772 200.864 335.091 200.34 333.469 199.475C331.847 198.61 330.442 197.444 329.254 195.977C328.066 194.51 327.217 192.893 326.709 191.127C326.2 189.361 326.037 187.608 326.22 185.868C326.361 184.078 326.865 182.372 327.729 180.75C328.594 179.128 329.76 177.723 331.227 176.535C332.695 175.347 334.311 174.498 336.077 173.989C337.844 173.481 339.617 173.343 341.398 173.576C343.188 173.718 344.894 174.221 346.516 175.086C348.189 175.91 349.619 177.055 350.807 178.523Z" fill="#02FF41"/>
</svg>
