<svg width="1127" height="831" viewBox="0 0 1127 831" fill="none" xmlns="http://www.w3.org/2000/svg">
<rect width="1127" height="831" fill="black"/>
<path d="M374.969 162.078C372.438 162.016 370.078 161.969 367.891 161.938C365.734 161.938 363.688 161.938 361.75 161.938C357.969 161.938 354.797 161.969 352.234 162.031C349.703 162.125 347.641 162.203 346.047 162.266C344.172 162.359 342.688 162.453 341.594 162.547C341.812 160.453 342 158.344 342.156 156.219C342.344 154.094 342.5 152 342.625 149.938C342.75 147.875 342.859 145.891 342.953 143.984C343.047 142.078 343.125 140.281 343.188 138.594C343.312 134.656 343.391 130.891 343.422 127.297C343.391 123.547 343.312 119.703 343.188 115.766C343.125 114.078 343.047 112.312 342.953 110.469C342.859 108.594 342.75 106.688 342.625 104.75C342.5 102.812 342.344 100.875 342.156 98.9375C342 96.9688 341.812 95.0625 341.594 93.2188C345.5 93.375 348.984 93.5 352.047 93.5938C355.141 93.6562 357.891 93.6875 360.297 93.6875C362.672 93.6875 364.719 93.6719 366.438 93.6406C368.156 93.5781 369.562 93.5156 370.656 93.4531C371.938 93.3906 373 93.3125 373.844 93.2188C373.844 93.1875 373.844 93.4688 373.844 94.0625C373.844 94.6562 373.859 95.4375 373.891 96.4062C373.922 97.375 373.969 98.4688 374.031 99.6875C374.125 100.906 374.25 102.141 374.406 103.391C370.781 103.047 367.609 102.828 364.891 102.734C362.172 102.609 359.844 102.547 357.906 102.547C357.094 102.547 356.375 102.547 355.75 102.547C355.156 102.547 354.594 102.578 354.062 102.641C354 106.109 353.953 109.375 353.922 112.438C353.891 115.469 353.875 118.344 353.875 121.062C356.062 121 358.016 120.922 359.734 120.828C361.453 120.703 362.922 120.562 364.141 120.406C365.547 120.25 366.797 120.078 367.891 119.891C367.859 120.109 367.844 120.359 367.844 120.641C367.812 120.891 367.797 121.188 367.797 121.531C367.797 121.875 367.797 122.266 367.797 122.703C367.797 123.703 367.828 124.906 367.891 126.312C367.953 127.688 368.078 129.172 368.266 130.766C364.891 130.328 361.984 130.062 359.547 129.969C357.109 129.844 355.219 129.781 353.875 129.781C353.875 133.031 353.891 135.938 353.922 138.5C353.953 141.031 353.984 143.266 354.016 145.203C354.078 147.141 354.125 148.797 354.156 150.172C354.219 151.547 354.281 152.688 354.344 153.594C357.531 153.531 360.375 153.375 362.875 153.125C365.375 152.875 367.484 152.625 369.203 152.375C370.922 152.094 372.234 151.844 373.141 151.625C374.047 151.406 374.5 151.266 374.5 151.203C374.469 151.359 374.453 151.531 374.453 151.719C374.422 151.875 374.406 152.078 374.406 152.328C374.406 152.578 374.406 152.875 374.406 153.219C374.406 154.094 374.438 155.266 374.5 156.734C374.562 158.203 374.719 159.984 374.969 162.078ZM391.844 88.9062C391.656 92.7188 391.484 96.25 391.328 99.5C391.172 102.75 391.031 105.812 390.906 108.688C390.812 111.562 390.734 114.297 390.672 116.891C390.609 119.484 390.547 122.047 390.484 124.578C390.453 127.109 390.422 129.656 390.391 132.219C390.391 134.781 390.391 137.469 390.391 140.281C390.391 143.406 390.391 146.75 390.391 150.312C390.391 153.875 390.422 157.828 390.484 162.172L379.844 161.938C380.031 157.219 380.156 152.578 380.219 148.016C380.281 143.422 380.312 138.719 380.312 133.906C380.312 130.688 380.297 127.391 380.266 124.016C380.234 120.609 380.188 117.062 380.125 113.375C380.062 109.656 379.984 105.75 379.891 101.656C379.828 97.5625 379.75 93.2188 379.656 88.625L391.844 88.9062ZM431.125 150.922C431.125 152.766 430.703 154.5 429.859 156.125C429.016 157.75 427.875 159.156 426.438 160.344C425 161.531 423.312 162.469 421.375 163.156C419.438 163.844 417.375 164.188 415.188 164.188C413.719 164.188 412.234 163.984 410.734 163.578C409.234 163.172 407.797 162.5 406.422 161.562C405.047 160.625 403.75 159.391 402.531 157.859C401.312 156.328 400.25 154.453 399.344 152.234C398.469 150.016 397.766 147.422 397.234 144.453C396.734 141.453 396.484 138.016 396.484 134.141C396.484 130.484 396.734 127.25 397.234 124.438C397.766 121.625 398.469 119.172 399.344 117.078C400.25 114.984 401.297 113.234 402.484 111.828C403.672 110.391 404.938 109.234 406.281 108.359C407.656 107.453 409.062 106.812 410.5 106.438C411.969 106.062 413.406 105.875 414.812 105.875C416.906 105.875 418.891 106.219 420.766 106.906C422.641 107.562 424.281 108.547 425.688 109.859C427.094 111.172 428.203 112.797 429.016 114.734C429.859 116.641 430.281 118.844 430.281 121.344C430.281 123.594 429.812 125.875 428.875 128.188C427.969 130.469 426.609 132.641 424.797 134.703C422.984 136.734 420.734 138.594 418.047 140.281C415.391 141.938 412.328 143.25 408.859 144.219C409.047 146.156 409.312 147.922 409.656 149.516C410.031 151.109 410.484 152.469 411.016 153.594C411.578 154.719 412.219 155.594 412.938 156.219C413.688 156.844 414.547 157.156 415.516 157.156C416.141 157.125 416.734 157.016 417.297 156.828C417.797 156.672 418.297 156.422 418.797 156.078C419.328 155.734 419.766 155.234 420.109 154.578C419.297 154.203 418.672 153.719 418.234 153.125C417.797 152.531 417.469 151.969 417.25 151.438C417 150.812 416.859 150.156 416.828 149.469C416.828 147.969 417.125 146.75 417.719 145.812C418.312 144.875 419.016 144.141 419.828 143.609C420.641 143.078 421.469 142.719 422.312 142.531C423.156 142.312 423.828 142.203 424.328 142.203C424.859 142.203 425.5 142.312 426.25 142.531C427.031 142.75 427.781 143.172 428.5 143.797C429.219 144.422 429.828 145.312 430.328 146.469C430.859 147.594 431.125 149.078 431.125 150.922ZM419.547 121.438C419.547 120.312 419.438 119.25 419.219 118.25C419.031 117.219 418.734 116.328 418.328 115.578C417.953 114.828 417.469 114.234 416.875 113.797C416.312 113.328 415.656 113.094 414.906 113.094C413.625 113.094 412.578 113.688 411.766 114.875C410.953 116.031 410.297 117.578 409.797 119.516C409.297 121.453 408.953 123.688 408.766 126.219C408.578 128.75 408.484 131.391 408.484 134.141V137.562C410.078 136.719 411.547 135.719 412.891 134.562C414.266 133.406 415.438 132.141 416.406 130.766C417.406 129.359 418.172 127.875 418.703 126.312C419.266 124.75 419.547 123.125 419.547 121.438ZM470.547 121.156C470.547 123.312 470.25 125.031 469.656 126.312C469.094 127.562 468.406 128.516 467.594 129.172C466.812 129.797 466 130.203 465.156 130.391C464.344 130.578 463.672 130.672 463.141 130.672C462.609 130.672 461.969 130.594 461.219 130.438C460.469 130.25 459.734 129.906 459.016 129.406C458.328 128.875 457.734 128.141 457.234 127.203C456.766 126.234 456.531 124.984 456.531 123.453C456.562 122.609 456.719 121.781 457 120.969C457.25 120.281 457.625 119.578 458.125 118.859C458.625 118.141 459.344 117.531 460.281 117.031C459.75 115.844 459.156 114.938 458.5 114.312C457.875 113.688 457.266 113.219 456.672 112.906C455.984 112.562 455.297 112.344 454.609 112.25C453.453 112.25 452.406 112.781 451.469 113.844C450.531 114.906 449.734 116.406 449.078 118.344C448.422 120.25 447.906 122.547 447.531 125.234C447.188 127.922 447.016 130.891 447.016 134.141C447.016 137.359 447.125 140.375 447.344 143.188C447.594 145.969 447.984 148.406 448.516 150.5C449.047 152.562 449.766 154.188 450.672 155.375C451.578 156.562 452.703 157.156 454.047 157.156C454.766 157.125 455.484 156.953 456.203 156.641C456.828 156.391 457.484 155.984 458.172 155.422C458.891 154.828 459.531 154 460.094 152.938C459 152.406 458.156 151.766 457.562 151.016C457 150.234 456.594 149.484 456.344 148.766C456.031 147.922 455.859 147.047 455.828 146.141C455.828 144.641 456.125 143.422 456.719 142.484C457.312 141.547 458.016 140.812 458.828 140.281C459.641 139.719 460.469 139.344 461.312 139.156C462.156 138.938 462.828 138.828 463.328 138.828C463.859 138.828 464.516 138.938 465.297 139.156C466.078 139.375 466.828 139.797 467.547 140.422C468.266 141.047 468.875 141.938 469.375 143.094C469.906 144.219 470.172 145.703 470.172 147.547C470.172 149.391 469.719 151.297 468.812 153.266C467.938 155.234 466.734 157.031 465.203 158.656C463.703 160.281 461.953 161.609 459.953 162.641C457.984 163.672 455.906 164.188 453.719 164.188C452.25 164.188 450.766 163.984 449.266 163.578C447.766 163.172 446.328 162.5 444.953 161.562C443.578 160.625 442.281 159.391 441.062 157.859C439.844 156.328 438.781 154.453 437.875 152.234C437 150.016 436.297 147.422 435.766 144.453C435.266 141.453 435.016 138.016 435.016 134.141C435.016 130.266 435.297 126.875 435.859 123.969C436.422 121.031 437.188 118.516 438.156 116.422C439.156 114.328 440.297 112.594 441.578 111.219C442.859 109.844 444.219 108.75 445.656 107.938C447.125 107.125 448.625 106.562 450.156 106.25C451.688 105.938 453.172 105.781 454.609 105.781C456.734 105.781 458.766 106.188 460.703 107C462.641 107.781 464.328 108.875 465.766 110.281C467.234 111.656 468.391 113.281 469.234 115.156C470.109 117.031 470.547 119.031 470.547 121.156ZM492.156 89.75C491.906 92.9688 491.703 96.1406 491.547 99.2656C491.391 102.359 491.234 105.469 491.078 108.594C492.453 108.531 493.812 108.484 495.156 108.453C496.5 108.391 497.875 108.312 499.281 108.219L499.469 120.219C497.969 119.969 496.484 119.766 495.016 119.609C493.547 119.453 492.109 119.328 490.703 119.234C490.609 121.891 490.547 124.516 490.516 127.109C490.516 129.703 490.516 132.328 490.516 134.984C490.516 139.734 490.562 144.453 490.656 149.141C490.781 153.828 490.969 158.547 491.219 163.297L478.984 163.109C479.391 155.766 479.719 148.438 479.969 141.125C480.25 133.781 480.438 126.391 480.531 118.953C479.219 119.016 477.906 119.094 476.594 119.188C475.281 119.25 473.938 119.328 472.562 119.422L472.938 108.312C474.219 108.406 475.484 108.484 476.734 108.547C478.016 108.578 479.281 108.625 480.531 108.688C480.531 105.562 480.5 102.453 480.438 99.3594C480.375 96.2344 480.312 93.0938 480.25 89.9375L492.156 89.75ZM516.438 95.2344C516.438 96.2344 516.25 97.1875 515.875 98.0938C515.5 98.9688 514.984 99.7344 514.328 100.391C513.672 101.047 512.891 101.578 511.984 101.984C511.109 102.359 510.172 102.547 509.172 102.547C508.172 102.547 507.219 102.359 506.312 101.984C505.438 101.578 504.672 101.047 504.016 100.391C503.359 99.7344 502.828 98.9688 502.422 98.0938C502.047 97.1875 501.859 96.2344 501.859 95.2344C501.859 94.2344 502.047 93.2969 502.422 92.4219C502.828 91.5156 503.359 90.7344 504.016 90.0781C504.672 89.4219 505.438 88.9062 506.312 88.5312C507.219 88.125 508.172 87.9219 509.172 87.9219C510.172 87.9219 511.109 88.125 511.984 88.5312C512.891 88.9062 513.672 89.4219 514.328 90.0781C514.984 90.7344 515.5 91.5156 515.875 92.4219C516.25 93.2969 516.438 94.2344 516.438 95.2344ZM516.438 109.438C516.188 111.906 515.969 114.578 515.781 117.453C515.625 120.297 515.484 123.219 515.359 126.219C515.266 129.219 515.188 132.234 515.125 135.266C515.062 138.297 515.016 141.188 514.984 143.938C514.953 146.688 514.922 149.266 514.891 151.672C514.891 154.047 514.891 156.094 514.891 157.812V163.109L504.25 163.484C504.312 161.328 504.344 159.234 504.344 157.203C504.344 155.172 504.344 153.141 504.344 151.109C504.344 147.578 504.312 144.141 504.25 140.797C504.188 137.422 504.078 134.047 503.922 130.672C503.797 127.297 503.625 123.875 503.406 120.406C503.188 116.938 502.922 113.344 502.609 109.625L516.438 109.438ZM539.031 163.672C535.938 163.672 533.266 163 531.016 161.656C528.797 160.312 526.953 158.438 525.484 156.031C524.047 153.625 522.984 150.766 522.297 147.453C521.609 144.141 521.266 140.531 521.266 136.625C521.266 132.094 521.672 127.938 522.484 124.156C523.297 120.375 524.484 117.125 526.047 114.406C527.641 111.688 529.594 109.578 531.906 108.078C534.25 106.547 536.938 105.781 539.969 105.781C543.031 105.781 545.672 106.422 547.891 107.703C550.109 108.984 551.938 110.781 553.375 113.094C554.844 115.406 555.922 118.172 556.609 121.391C557.297 124.609 557.641 128.156 557.641 132.031C557.641 134.031 557.516 136.203 557.266 138.547C557.047 140.891 556.656 143.234 556.094 145.578C555.562 147.922 554.844 150.188 553.938 152.375C553.031 154.531 551.891 156.453 550.516 158.141C549.141 159.828 547.5 161.172 545.594 162.172C543.719 163.172 541.531 163.672 539.031 163.672ZM546.344 128.562C546.344 126.188 546.234 124.062 546.016 122.188C545.797 120.281 545.438 118.672 544.938 117.359C544.469 116.047 543.859 115.047 543.109 114.359C542.391 113.641 541.516 113.281 540.484 113.281C539.359 113.281 538.312 113.875 537.344 115.062C536.375 116.25 535.516 117.969 534.766 120.219C534.047 122.469 533.469 125.219 533.031 128.469C532.625 131.688 532.422 135.328 532.422 139.391C532.422 142.016 532.547 144.375 532.797 146.469C533.047 148.531 533.422 150.297 533.922 151.766C534.422 153.203 535.031 154.312 535.75 155.094C536.5 155.844 537.375 156.219 538.375 156.219C539.375 156.219 540.266 155.812 541.047 155C541.828 154.156 542.5 153.031 543.062 151.625C543.656 150.219 544.156 148.594 544.562 146.75C545 144.875 545.344 142.922 545.594 140.891C545.844 138.828 546.031 136.734 546.156 134.609C546.281 132.484 546.344 130.469 546.344 128.562ZM575.312 109.062L575.031 112.906C576.062 111.188 577.156 109.875 578.312 108.969C579.5 108.062 580.594 107.422 581.594 107.047C582.594 106.672 583.422 106.469 584.078 106.438C584.766 106.406 585.141 106.391 585.203 106.391C587.516 106.391 589.531 106.922 591.25 107.984C592.969 109.047 594.391 110.594 595.516 112.625C596.641 114.625 597.469 117.078 598 119.984C598.562 122.859 598.844 126.125 598.844 129.781C598.844 132.469 598.797 135.219 598.703 138.031C598.641 140.812 598.484 143.594 598.234 146.375C598.016 149.125 597.703 151.812 597.297 154.438C596.922 157.062 596.406 159.562 595.75 161.938L584.828 160.625C585.547 156.906 586.109 153.438 586.516 150.219C586.922 147 587.219 144.188 587.406 141.781C587.625 138.969 587.75 136.391 587.781 134.047C587.781 131.078 587.688 128.5 587.5 126.312C587.312 124.094 586.969 122.266 586.469 120.828C586 119.359 585.344 118.266 584.5 117.547C583.656 116.828 582.578 116.469 581.266 116.469C580.391 116.656 579.516 117.281 578.641 118.344C577.891 119.25 577.094 120.703 576.25 122.703C575.406 124.672 574.672 127.453 574.047 131.047C573.953 133.484 573.891 135.906 573.859 138.312C573.859 140.688 573.859 143.219 573.859 145.906C573.859 148.188 573.859 150.641 573.859 153.266C573.859 155.891 573.891 158.859 573.953 162.172L563.312 161.938C563.406 158.75 563.469 155.375 563.5 151.812C563.562 148.219 563.594 144.234 563.594 139.859C563.594 135.516 563.562 130.812 563.5 125.75C563.438 120.688 563.312 115.062 563.125 108.875L575.312 109.062ZM637.188 118.766C637.188 120.203 636.922 121.422 636.391 122.422C635.859 123.422 635.219 124.234 634.469 124.859C633.719 125.484 632.938 125.938 632.125 126.219C631.312 126.5 630.625 126.641 630.062 126.641C629.5 126.641 628.828 126.547 628.047 126.359C627.266 126.141 626.516 125.766 625.797 125.234C625.109 124.703 624.516 124 624.016 123.125C623.516 122.219 623.266 121.078 623.266 119.703C623.297 118.953 623.438 118.219 623.688 117.5C623.906 116.875 624.234 116.234 624.672 115.578C625.141 114.891 625.797 114.281 626.641 113.75C626.078 112.938 625.516 112.312 624.953 111.875C624.391 111.438 623.891 111.109 623.453 110.891C622.922 110.641 622.438 110.484 622 110.422C621.031 110.422 620.156 110.625 619.375 111.031C618.594 111.406 617.922 111.922 617.359 112.578C616.828 113.203 616.406 113.938 616.094 114.781C615.812 115.625 615.672 116.5 615.672 117.406C615.672 118.562 615.75 119.609 615.906 120.547C616.062 121.484 616.422 122.438 616.984 123.406C617.547 124.375 618.391 125.422 619.516 126.547C620.641 127.672 622.172 128.984 624.109 130.484C626.047 131.984 627.734 133.453 629.172 134.891C630.609 136.297 631.797 137.688 632.734 139.062C633.672 140.438 634.375 141.828 634.844 143.234C635.312 144.609 635.547 146.047 635.547 147.547C635.547 148.547 635.438 149.641 635.219 150.828C635.031 151.984 634.688 153.172 634.188 154.391C633.719 155.578 633.078 156.734 632.266 157.859C631.484 158.953 630.5 159.938 629.312 160.812C628.156 161.688 626.781 162.375 625.188 162.875C623.625 163.406 621.828 163.672 619.797 163.672C616.734 163.672 614.125 163.219 611.969 162.312C609.812 161.406 608.031 160.312 606.625 159.031C605.25 157.719 604.234 156.344 603.578 154.906C602.953 153.469 602.641 152.203 602.641 151.109C602.641 149.953 602.781 148.875 603.062 147.875C603.344 146.875 603.781 146 604.375 145.25C605 144.5 605.781 143.922 606.719 143.516C607.688 143.078 608.844 142.859 610.188 142.859C611.312 142.859 612.328 143.031 613.234 143.375C614.172 143.719 614.969 144.234 615.625 144.922C616.312 145.578 616.844 146.391 617.219 147.359C617.594 148.328 617.781 149.422 617.781 150.641C617.75 151.172 617.641 151.719 617.453 152.281C617.297 152.75 617.031 153.266 616.656 153.828C616.281 154.391 615.766 154.922 615.109 155.422C615.547 155.766 615.969 156.031 616.375 156.219C616.812 156.375 617.203 156.484 617.547 156.547C617.922 156.641 618.297 156.688 618.672 156.688C619.078 156.688 619.547 156.578 620.078 156.359C620.641 156.109 621.172 155.734 621.672 155.234C622.172 154.734 622.594 154.125 622.938 153.406C623.281 152.688 623.453 151.828 623.453 150.828C623.453 149.828 623.359 148.922 623.172 148.109C623.016 147.266 622.656 146.406 622.094 145.531C621.562 144.625 620.781 143.641 619.75 142.578C618.719 141.516 617.359 140.234 615.672 138.734C613.984 137.234 612.484 135.781 611.172 134.375C609.859 132.938 608.75 131.453 607.844 129.922C606.969 128.391 606.297 126.781 605.828 125.094C605.359 123.406 605.125 121.547 605.125 119.516C605.125 117.516 605.516 115.578 606.297 113.703C607.109 111.828 608.25 110.172 609.719 108.734C611.188 107.266 612.969 106.109 615.062 105.266C617.156 104.391 619.5 103.953 622.094 103.953C624.719 103.953 626.984 104.359 628.891 105.172C630.797 105.984 632.359 107.078 633.578 108.453C634.797 109.797 635.703 111.359 636.297 113.141C636.891 114.922 637.188 116.797 637.188 118.766ZM702.719 142.484C702.562 145.547 702.016 148.203 701.078 150.453C700.141 152.672 698.938 154.578 697.469 156.172C696.031 157.734 694.391 159.016 692.547 160.016C690.734 160.984 688.891 161.75 687.016 162.312C685.172 162.875 683.344 163.25 681.531 163.438C679.75 163.656 678.172 163.766 676.797 163.766C674.141 163.766 671.641 163.688 669.297 163.531C666.984 163.375 664.719 163.109 662.5 162.734C662.688 160.766 662.844 158.609 662.969 156.266C663.094 153.891 663.203 151.484 663.297 149.047C663.391 146.578 663.453 144.156 663.484 141.781C663.516 139.406 663.547 137.219 663.578 135.219C663.609 133.188 663.625 131.438 663.625 129.969C663.625 128.469 663.625 127.391 663.625 126.734C663.594 122.266 663.531 117.953 663.438 113.797C663.406 112.016 663.359 110.203 663.297 108.359C663.266 106.484 663.219 104.672 663.156 102.922C663.125 101.141 663.078 99.4688 663.016 97.9062C662.953 96.3125 662.875 94.9062 662.781 93.6875C663.656 93.5625 664.609 93.4688 665.641 93.4062C666.703 93.3438 667.75 93.2969 668.781 93.2656C669.844 93.2031 670.875 93.1719 671.875 93.1719C672.906 93.1406 673.844 93.125 674.688 93.125C678.469 93.125 682.031 93.4062 685.375 93.9688C688.75 94.5312 691.688 95.5 694.188 96.875C696.719 98.2188 698.703 100.016 700.141 102.266C701.609 104.484 702.344 107.266 702.344 110.609C702.188 112.641 701.688 114.547 700.844 116.328C700.469 117.109 700 117.906 699.438 118.719C698.906 119.5 698.234 120.25 697.422 120.969C696.609 121.688 695.656 122.359 694.562 122.984C693.469 123.609 692.219 124.125 690.812 124.531C692.844 125.062 694.547 125.859 695.922 126.922C697.297 127.984 698.422 129.172 699.297 130.484C700.203 131.766 700.875 133.094 701.312 134.469C701.781 135.844 702.109 137.109 702.297 138.266C702.516 139.422 702.641 140.391 702.672 141.172C702.703 141.953 702.719 142.391 702.719 142.484ZM689.547 142.953C689.453 140.328 689.016 137.969 688.234 135.875C687.891 135 687.453 134.141 686.922 133.297C686.422 132.422 685.797 131.656 685.047 131C684.297 130.312 683.406 129.766 682.375 129.359C681.344 128.953 680.156 128.75 678.812 128.75C678.469 128.75 678.109 128.766 677.734 128.797C677.359 128.828 676.953 128.875 676.516 128.938L676.141 155.422C677.078 155.609 678 155.703 678.906 155.703C680.219 155.703 681.359 155.531 682.328 155.188C683.328 154.812 684.203 154.328 684.953 153.734C685.703 153.109 686.328 152.422 686.828 151.672C687.359 150.922 687.797 150.141 688.141 149.328C688.953 147.453 689.422 145.328 689.547 142.953ZM689.359 110.328C689.234 108.578 688.797 107.016 688.047 105.641C687.734 105.047 687.328 104.469 686.828 103.906C686.359 103.344 685.766 102.844 685.047 102.406C684.359 101.969 683.531 101.609 682.562 101.328C681.625 101.047 680.531 100.906 679.281 100.906C678.281 100.906 677.172 101 675.953 101.188L676.516 121.062H677.547C679.484 121.062 681.125 120.812 682.469 120.312C683.812 119.781 684.922 119.141 685.797 118.391C686.672 117.609 687.344 116.766 687.812 115.859C688.312 114.953 688.672 114.109 688.891 113.328C689.109 112.516 689.234 111.844 689.266 111.312C689.328 110.75 689.359 110.422 689.359 110.328ZM748.281 128.844C748.281 133.938 747.797 138.344 746.828 142.062C745.891 145.75 744.672 148.906 743.172 151.531C741.672 154.125 739.984 156.234 738.109 157.859C736.234 159.484 734.359 160.734 732.484 161.609C730.609 162.516 728.844 163.125 727.188 163.438C725.531 163.781 724.172 163.953 723.109 163.953C722.859 163.953 722.297 163.938 721.422 163.906C720.578 163.875 719.531 163.797 718.281 163.672C717.031 163.578 715.609 163.422 714.016 163.203C712.453 162.984 710.812 162.672 709.094 162.266C709.125 156.078 709.156 150.719 709.188 146.188C709.25 141.625 709.297 137.703 709.328 134.422C709.359 131.141 709.391 128.391 709.422 126.172C709.453 123.953 709.469 122.047 709.469 120.453C709.5 118.859 709.516 117.5 709.516 116.375C709.547 115.219 709.562 114.094 709.562 113C709.562 111.281 709.547 109.516 709.516 107.703C709.484 105.859 709.422 104.078 709.328 102.359C709.234 100.641 709.109 99.0312 708.953 97.5312C708.797 96.0312 708.594 94.75 708.344 93.6875C710.781 93.5312 713 93.4375 715 93.4062C717.031 93.3438 718.781 93.3125 720.25 93.3125C723.938 93.3125 727.188 93.7656 730 94.6719C732.812 95.5469 735.25 96.7812 737.312 98.375C739.406 99.9375 741.141 101.828 742.516 104.047C743.922 106.234 745.047 108.641 745.891 111.266C746.766 113.891 747.375 116.703 747.719 119.703C748.094 122.672 748.281 125.719 748.281 128.844ZM736.094 127.391C736.094 121.859 735.828 117.359 735.297 113.891C734.797 110.391 733.969 107.672 732.812 105.734C731.688 103.797 730.203 102.484 728.359 101.797C726.547 101.078 724.344 100.719 721.75 100.719H720.344L720.906 155.797C721.531 156.047 722.109 156.219 722.641 156.312C723.203 156.375 723.75 156.406 724.281 156.406C726.375 156.406 728.156 155.922 729.625 154.953C731.125 153.953 732.344 152.328 733.281 150.078C734.25 147.797 734.953 144.812 735.391 141.125C735.859 137.406 736.094 132.828 736.094 127.391ZM787.375 162.078C784.844 162.016 782.484 161.969 780.297 161.938C778.141 161.938 776.094 161.938 774.156 161.938C770.375 161.938 767.203 161.969 764.641 162.031C762.109 162.125 760.047 162.203 758.453 162.266C756.578 162.359 755.094 162.453 754 162.547C754.219 160.453 754.406 158.344 754.562 156.219C754.75 154.094 754.906 152 755.031 149.938C755.156 147.875 755.266 145.891 755.359 143.984C755.453 142.078 755.531 140.281 755.594 138.594C755.719 134.656 755.797 130.891 755.828 127.297C755.797 123.547 755.719 119.703 755.594 115.766C755.531 114.078 755.453 112.312 755.359 110.469C755.266 108.594 755.156 106.688 755.031 104.75C754.906 102.812 754.75 100.875 754.562 98.9375C754.406 96.9688 754.219 95.0625 754 93.2188C757.906 93.375 761.391 93.5 764.453 93.5938C767.547 93.6562 770.297 93.6875 772.703 93.6875C775.078 93.6875 777.125 93.6719 778.844 93.6406C780.562 93.5781 781.969 93.5156 783.062 93.4531C784.344 93.3906 785.406 93.3125 786.25 93.2188C786.25 93.1875 786.25 93.4688 786.25 94.0625C786.25 94.6562 786.266 95.4375 786.297 96.4062C786.328 97.375 786.375 98.4688 786.438 99.6875C786.531 100.906 786.656 102.141 786.812 103.391C783.188 103.047 780.016 102.828 777.297 102.734C774.578 102.609 772.25 102.547 770.312 102.547C769.5 102.547 768.781 102.547 768.156 102.547C767.562 102.547 767 102.578 766.469 102.641C766.406 106.109 766.359 109.375 766.328 112.438C766.297 115.469 766.281 118.344 766.281 121.062C768.469 121 770.422 120.922 772.141 120.828C773.859 120.703 775.328 120.562 776.547 120.406C777.953 120.25 779.203 120.078 780.297 119.891C780.266 120.109 780.25 120.359 780.25 120.641C780.219 120.891 780.203 121.188 780.203 121.531C780.203 121.875 780.203 122.266 780.203 122.703C780.203 123.703 780.234 124.906 780.297 126.312C780.359 127.688 780.484 129.172 780.672 130.766C777.297 130.328 774.391 130.062 771.953 129.969C769.516 129.844 767.625 129.781 766.281 129.781C766.281 133.031 766.297 135.938 766.328 138.5C766.359 141.031 766.391 143.266 766.422 145.203C766.484 147.141 766.531 148.797 766.562 150.172C766.625 151.547 766.688 152.688 766.75 153.594C769.938 153.531 772.781 153.375 775.281 153.125C777.781 152.875 779.891 152.625 781.609 152.375C783.328 152.094 784.641 151.844 785.547 151.625C786.453 151.406 786.906 151.266 786.906 151.203C786.875 151.359 786.859 151.531 786.859 151.719C786.828 151.875 786.812 152.078 786.812 152.328C786.812 152.578 786.812 152.875 786.812 153.219C786.812 154.094 786.844 155.266 786.906 156.734C786.969 158.203 787.125 159.984 787.375 162.078Z" fill="#1860EA"/>
<path d="M407.172 257.266C407.141 257.422 407.125 257.594 407.125 257.781C407.094 257.938 407.078 258.141 407.078 258.391C407.078 258.641 407.078 258.938 407.078 259.281C407.078 260.125 407.109 261.297 407.172 262.797C407.234 264.266 407.391 266.031 407.641 268.094C405.078 268.031 402.688 268 400.469 268C398.25 268 396.156 268 394.188 268C390.281 268 386.953 268.031 384.203 268.094C381.453 268.156 379.188 268.219 377.406 268.281C375.344 268.375 373.641 268.469 372.297 268.562C372.266 268.469 372.25 268.344 372.25 268.188C372.219 268.062 372.203 267.906 372.203 267.719C372.203 267.531 372.203 267.312 372.203 267.062C372.203 266 372.328 264.5 372.578 262.562C372.828 260.625 373.375 258.438 374.219 256C375.094 253.531 376.375 250.922 378.062 248.172C379.781 245.422 382.094 242.688 385 239.969C386.719 238.344 388.328 236.688 389.828 235C391.328 233.312 392.641 231.531 393.766 229.656C394.891 227.781 395.766 225.781 396.391 223.656C397.047 221.5 397.375 219.156 397.375 216.625C397.375 214.562 397.172 212.859 396.766 211.516C396.359 210.141 395.797 209.062 395.078 208.281C394.391 207.469 393.578 206.906 392.641 206.594C391.734 206.25 390.75 206.078 389.688 206.078C389.219 206.109 388.75 206.188 388.281 206.312C387.875 206.438 387.422 206.625 386.922 206.875C386.422 207.125 385.938 207.469 385.469 207.906C385.938 208.531 386.297 209.188 386.547 209.875C386.828 210.562 387.047 211.203 387.203 211.797C387.359 212.484 387.453 213.172 387.484 213.859C387.484 214.953 387.266 215.906 386.828 216.719C386.391 217.531 385.828 218.219 385.141 218.781C384.484 219.344 383.75 219.766 382.938 220.047C382.125 220.328 381.328 220.469 380.547 220.469C379.953 220.469 379.156 220.391 378.156 220.234C377.188 220.047 376.234 219.641 375.297 219.016C374.359 218.391 373.547 217.469 372.859 216.25C372.172 215.031 371.828 213.375 371.828 211.281C371.828 209.219 372.297 207.359 373.234 205.703C374.203 204.016 375.484 202.578 377.078 201.391C378.703 200.172 380.578 199.25 382.703 198.625C384.828 197.969 387.062 197.641 389.406 197.641C391.719 197.641 394.016 198.047 396.297 198.859C398.578 199.672 400.609 200.891 402.391 202.516C404.203 204.141 405.672 206.172 406.797 208.609C407.922 211.016 408.484 213.828 408.484 217.047C408.484 220.953 407.938 224.406 406.844 227.406C405.781 230.375 404.438 233.047 402.812 235.422C401.188 237.766 399.406 239.906 397.469 241.844C395.562 243.75 393.766 245.594 392.078 247.375C389.828 249.719 388.094 251.984 386.875 254.172C385.688 256.328 384.828 258.156 384.297 259.656C387.484 259.562 390.469 259.391 393.25 259.141C396.031 258.891 398.453 258.641 400.516 258.391C402.578 258.141 404.203 257.906 405.391 257.688C406.578 257.469 407.172 257.328 407.172 257.266ZM455.594 234.391C455.594 239.391 455.172 244.031 454.328 248.312C453.484 252.594 452.203 256.312 450.484 259.469C448.766 262.594 446.594 265.062 443.969 266.875C441.344 268.656 438.25 269.547 434.688 269.547C431.062 269.547 427.922 268.656 425.266 266.875C422.641 265.062 420.469 262.594 418.75 259.469C417.062 256.312 415.797 252.594 414.953 248.312C414.141 244.031 413.734 239.391 413.734 234.391C413.734 229.422 414.125 224.812 414.906 220.562C415.719 216.281 416.969 212.578 418.656 209.453C420.344 206.297 422.5 203.828 425.125 202.047C427.781 200.266 430.969 199.375 434.688 199.375C438.5 199.375 441.734 200.266 444.391 202.047C447.047 203.828 449.203 206.297 450.859 209.453C452.516 212.578 453.719 216.281 454.469 220.562C455.219 224.812 455.594 229.422 455.594 234.391ZM443.312 234.391C443.312 229.484 443.094 225.312 442.656 221.875C442.25 218.406 441.672 215.594 440.922 213.438C440.172 211.281 439.266 209.719 438.203 208.75C437.141 207.75 435.969 207.25 434.688 207.25C433.5 207.25 432.391 207.844 431.359 209.031C430.328 210.188 429.406 211.906 428.594 214.188C427.812 216.469 427.188 219.312 426.719 222.719C426.281 226.094 426.062 229.984 426.062 234.391C426.062 239.203 426.266 243.328 426.672 246.766C427.078 250.203 427.656 253.031 428.406 255.25C429.156 257.438 430.062 259.062 431.125 260.125C432.188 261.156 433.375 261.672 434.688 261.672C435.906 261.672 437.031 261.188 438.062 260.219C439.125 259.25 440.047 257.688 440.828 255.531C441.609 253.375 442.219 250.562 442.656 247.094C443.094 243.625 443.312 239.391 443.312 234.391ZM495.859 257.266C495.828 257.422 495.812 257.594 495.812 257.781C495.781 257.938 495.766 258.141 495.766 258.391C495.766 258.641 495.766 258.938 495.766 259.281C495.766 260.125 495.797 261.297 495.859 262.797C495.922 264.266 496.078 266.031 496.328 268.094C493.766 268.031 491.375 268 489.156 268C486.938 268 484.844 268 482.875 268C478.969 268 475.641 268.031 472.891 268.094C470.141 268.156 467.875 268.219 466.094 268.281C464.031 268.375 462.328 268.469 460.984 268.562C460.953 268.469 460.938 268.344 460.938 268.188C460.906 268.062 460.891 267.906 460.891 267.719C460.891 267.531 460.891 267.312 460.891 267.062C460.891 266 461.016 264.5 461.266 262.562C461.516 260.625 462.062 258.438 462.906 256C463.781 253.531 465.062 250.922 466.75 248.172C468.469 245.422 470.781 242.688 473.688 239.969C475.406 238.344 477.016 236.688 478.516 235C480.016 233.312 481.328 231.531 482.453 229.656C483.578 227.781 484.453 225.781 485.078 223.656C485.734 221.5 486.062 219.156 486.062 216.625C486.062 214.562 485.859 212.859 485.453 211.516C485.047 210.141 484.484 209.062 483.766 208.281C483.078 207.469 482.266 206.906 481.328 206.594C480.422 206.25 479.438 206.078 478.375 206.078C477.906 206.109 477.438 206.188 476.969 206.312C476.562 206.438 476.109 206.625 475.609 206.875C475.109 207.125 474.625 207.469 474.156 207.906C474.625 208.531 474.984 209.188 475.234 209.875C475.516 210.562 475.734 211.203 475.891 211.797C476.047 212.484 476.141 213.172 476.172 213.859C476.172 214.953 475.953 215.906 475.516 216.719C475.078 217.531 474.516 218.219 473.828 218.781C473.172 219.344 472.438 219.766 471.625 220.047C470.812 220.328 470.016 220.469 469.234 220.469C468.641 220.469 467.844 220.391 466.844 220.234C465.875 220.047 464.922 219.641 463.984 219.016C463.047 218.391 462.234 217.469 461.547 216.25C460.859 215.031 460.516 213.375 460.516 211.281C460.516 209.219 460.984 207.359 461.922 205.703C462.891 204.016 464.172 202.578 465.766 201.391C467.391 200.172 469.266 199.25 471.391 198.625C473.516 197.969 475.75 197.641 478.094 197.641C480.406 197.641 482.703 198.047 484.984 198.859C487.266 199.672 489.297 200.891 491.078 202.516C492.891 204.141 494.359 206.172 495.484 208.609C496.609 211.016 497.172 213.828 497.172 217.047C497.172 220.953 496.625 224.406 495.531 227.406C494.469 230.375 493.125 233.047 491.5 235.422C489.875 237.766 488.094 239.906 486.156 241.844C484.25 243.75 482.453 245.594 480.766 247.375C478.516 249.719 476.781 251.984 475.562 254.172C474.375 256.328 473.516 258.156 472.984 259.656C476.172 259.562 479.156 259.391 481.938 259.141C484.719 258.891 487.141 258.641 489.203 258.391C491.266 258.141 492.891 257.906 494.078 257.688C495.266 257.469 495.859 257.328 495.859 257.266ZM515.312 229.422C515.344 229.453 515.406 229.469 515.5 229.469C515.594 229.5 515.781 229.516 516.062 229.516C516.531 229.516 517.141 229.469 517.891 229.375C518.641 229.281 519.438 229.062 520.281 228.719C521.156 228.375 522.016 227.875 522.859 227.219C523.734 226.562 524.516 225.688 525.203 224.594C525.922 223.469 526.5 222.094 526.938 220.469C527.375 218.844 527.594 216.891 527.594 214.609C527.594 213.359 527.359 212.219 526.891 211.188C526.422 210.125 525.812 209.219 525.062 208.469C524.344 207.719 523.531 207.141 522.625 206.734C521.75 206.297 520.875 206.078 520 206.078C519.531 206.109 519.062 206.188 518.594 206.312C518.188 206.438 517.734 206.625 517.234 206.875C516.734 207.125 516.25 207.469 515.781 207.906C516.25 208.531 516.609 209.188 516.859 209.875C517.141 210.562 517.359 211.203 517.516 211.797C517.672 212.484 517.766 213.172 517.797 213.859C517.797 214.953 517.578 215.906 517.141 216.719C516.703 217.531 516.141 218.219 515.453 218.781C514.797 219.344 514.062 219.766 513.25 220.047C512.438 220.328 511.656 220.469 510.906 220.469C510.281 220.469 509.469 220.391 508.469 220.234C507.5 220.047 506.547 219.641 505.609 219.016C504.672 218.391 503.859 217.469 503.172 216.25C502.484 215.031 502.141 213.375 502.141 211.281C502.141 209.219 502.609 207.359 503.547 205.703C504.516 204.016 505.797 202.578 507.391 201.391C509.016 200.172 510.891 199.25 513.016 198.625C515.141 197.969 517.375 197.641 519.719 197.641C522.062 197.641 524.375 198.047 526.656 198.859C528.938 199.672 530.969 200.891 532.75 202.516C534.562 204.141 536.031 206.172 537.156 208.609C538.281 211.016 538.844 213.828 538.844 217.047C538.844 219.266 538.531 221.297 537.906 223.141C537.312 224.984 536.516 226.641 535.516 228.109C534.547 229.547 533.438 230.812 532.188 231.906C530.969 232.969 529.719 233.859 528.438 234.578C529.719 235.141 530.969 235.875 532.188 236.781C533.438 237.688 534.547 238.781 535.516 240.062C536.516 241.312 537.312 242.781 537.906 244.469C538.531 246.156 538.844 248.078 538.844 250.234C538.844 253.453 538.281 256.281 537.156 258.719C536.031 261.125 534.562 263.141 532.75 264.766C530.969 266.391 528.938 267.609 526.656 268.422C524.375 269.234 522.062 269.641 519.719 269.641C517.375 269.641 515.141 269.312 513.016 268.656C510.891 268.031 509.016 267.125 507.391 265.938C505.797 264.719 504.516 263.281 503.547 261.625C502.609 259.938 502.141 258.062 502.141 256C502.141 253.906 502.484 252.25 503.172 251.031C503.859 249.812 504.672 248.891 505.609 248.266C506.547 247.641 507.5 247.234 508.469 247.047C509.469 246.859 510.281 246.766 510.906 246.766C511.656 246.766 512.438 246.922 513.25 247.234C514.062 247.516 514.797 247.938 515.453 248.5C516.141 249.062 516.703 249.766 517.141 250.609C517.578 251.422 517.797 252.359 517.797 253.422C517.766 254.109 517.688 254.797 517.562 255.484C517.438 256.078 517.234 256.719 516.953 257.406C516.672 258.094 516.281 258.75 515.781 259.375C516.25 259.844 516.734 260.203 517.234 260.453C517.734 260.672 518.188 260.844 518.594 260.969C519.062 261.094 519.531 261.172 520 261.203C520.875 261.203 521.75 261 522.625 260.594C523.531 260.156 524.344 259.562 525.062 258.812C525.812 258.062 526.422 257.172 526.891 256.141C527.359 255.078 527.594 253.906 527.594 252.625C527.594 250.312 527.359 248.344 526.891 246.719C526.422 245.062 525.812 243.688 525.062 242.594C524.312 241.5 523.484 240.641 522.578 240.016C521.672 239.391 520.781 238.922 519.906 238.609C519.031 238.266 518.219 238.062 517.469 238C516.75 237.906 516.188 237.859 515.781 237.859H515.312V229.422ZM582.859 228.906C582.797 229 582.75 229.234 582.719 229.609C582.688 229.984 582.656 230.453 582.625 231.016C582.625 231.578 582.625 232.219 582.625 232.938C582.625 233.625 582.625 234.344 582.625 235.094C582.625 235.844 582.625 236.609 582.625 237.391C582.625 238.141 582.625 238.844 582.625 239.5C582.656 240.156 582.688 240.75 582.719 241.281C582.75 241.781 582.797 242.172 582.859 242.453C578.484 242.203 573.812 242.031 568.844 241.938C563.875 241.844 558.812 241.797 553.656 241.797H545.594C545.656 240.734 545.719 239.578 545.781 238.328C545.844 237.078 545.875 235.766 545.875 234.391C545.875 232.672 545.781 230.844 545.594 228.906C547 229.125 548.516 229.312 550.141 229.469C551.797 229.625 553.5 229.766 555.25 229.891C557.031 229.984 558.844 230.062 560.688 230.125C562.531 230.156 564.344 230.172 566.125 230.172C567.938 230.172 569.688 230.156 571.375 230.125C573.062 230.062 574.625 229.984 576.062 229.891C577.531 229.766 578.844 229.625 580 229.469C581.156 229.312 582.109 229.125 582.859 228.906ZM623.359 257.266C623.328 257.422 623.312 257.594 623.312 257.781C623.281 257.938 623.266 258.141 623.266 258.391C623.266 258.641 623.266 258.938 623.266 259.281C623.266 260.125 623.297 261.297 623.359 262.797C623.422 264.266 623.578 266.031 623.828 268.094C621.266 268.031 618.875 268 616.656 268C614.438 268 612.344 268 610.375 268C606.469 268 603.141 268.031 600.391 268.094C597.641 268.156 595.375 268.219 593.594 268.281C591.531 268.375 589.828 268.469 588.484 268.562C588.453 268.469 588.438 268.344 588.438 268.188C588.406 268.062 588.391 267.906 588.391 267.719C588.391 267.531 588.391 267.312 588.391 267.062C588.391 266 588.516 264.5 588.766 262.562C589.016 260.625 589.562 258.438 590.406 256C591.281 253.531 592.562 250.922 594.25 248.172C595.969 245.422 598.281 242.688 601.188 239.969C602.906 238.344 604.516 236.688 606.016 235C607.516 233.312 608.828 231.531 609.953 229.656C611.078 227.781 611.953 225.781 612.578 223.656C613.234 221.5 613.562 219.156 613.562 216.625C613.562 214.562 613.359 212.859 612.953 211.516C612.547 210.141 611.984 209.062 611.266 208.281C610.578 207.469 609.766 206.906 608.828 206.594C607.922 206.25 606.938 206.078 605.875 206.078C605.406 206.109 604.938 206.188 604.469 206.312C604.062 206.438 603.609 206.625 603.109 206.875C602.609 207.125 602.125 207.469 601.656 207.906C602.125 208.531 602.484 209.188 602.734 209.875C603.016 210.562 603.234 211.203 603.391 211.797C603.547 212.484 603.641 213.172 603.672 213.859C603.672 214.953 603.453 215.906 603.016 216.719C602.578 217.531 602.016 218.219 601.328 218.781C600.672 219.344 599.938 219.766 599.125 220.047C598.312 220.328 597.516 220.469 596.734 220.469C596.141 220.469 595.344 220.391 594.344 220.234C593.375 220.047 592.422 219.641 591.484 219.016C590.547 218.391 589.734 217.469 589.047 216.25C588.359 215.031 588.016 213.375 588.016 211.281C588.016 209.219 588.484 207.359 589.422 205.703C590.391 204.016 591.672 202.578 593.266 201.391C594.891 200.172 596.766 199.25 598.891 198.625C601.016 197.969 603.25 197.641 605.594 197.641C607.906 197.641 610.203 198.047 612.484 198.859C614.766 199.672 616.797 200.891 618.578 202.516C620.391 204.141 621.859 206.172 622.984 208.609C624.109 211.016 624.672 213.828 624.672 217.047C624.672 220.953 624.125 224.406 623.031 227.406C621.969 230.375 620.625 233.047 619 235.422C617.375 237.766 615.594 239.906 613.656 241.844C611.75 243.75 609.953 245.594 608.266 247.375C606.016 249.719 604.281 251.984 603.062 254.172C601.875 256.328 601.016 258.156 600.484 259.656C603.672 259.562 606.656 259.391 609.438 259.141C612.219 258.891 614.641 258.641 616.703 258.391C618.766 258.141 620.391 257.906 621.578 257.688C622.766 257.469 623.359 257.328 623.359 257.266ZM671.781 234.391C671.781 239.391 671.359 244.031 670.516 248.312C669.672 252.594 668.391 256.312 666.672 259.469C664.953 262.594 662.781 265.062 660.156 266.875C657.531 268.656 654.438 269.547 650.875 269.547C647.25 269.547 644.109 268.656 641.453 266.875C638.828 265.062 636.656 262.594 634.938 259.469C633.25 256.312 631.984 252.594 631.141 248.312C630.328 244.031 629.922 239.391 629.922 234.391C629.922 229.422 630.312 224.812 631.094 220.562C631.906 216.281 633.156 212.578 634.844 209.453C636.531 206.297 638.688 203.828 641.312 202.047C643.969 200.266 647.156 199.375 650.875 199.375C654.688 199.375 657.922 200.266 660.578 202.047C663.234 203.828 665.391 206.297 667.047 209.453C668.703 212.578 669.906 216.281 670.656 220.562C671.406 224.812 671.781 229.422 671.781 234.391ZM659.5 234.391C659.5 229.484 659.281 225.312 658.844 221.875C658.438 218.406 657.859 215.594 657.109 213.438C656.359 211.281 655.453 209.719 654.391 208.75C653.328 207.75 652.156 207.25 650.875 207.25C649.688 207.25 648.578 207.844 647.547 209.031C646.516 210.188 645.594 211.906 644.781 214.188C644 216.469 643.375 219.312 642.906 222.719C642.469 226.094 642.25 229.984 642.25 234.391C642.25 239.203 642.453 243.328 642.859 246.766C643.266 250.203 643.844 253.031 644.594 255.25C645.344 257.438 646.25 259.062 647.312 260.125C648.375 261.156 649.562 261.672 650.875 261.672C652.094 261.672 653.219 261.188 654.25 260.219C655.312 259.25 656.234 257.688 657.016 255.531C657.797 253.375 658.406 250.562 658.844 247.094C659.281 243.625 659.5 239.391 659.5 234.391ZM712.047 257.266C712.016 257.422 712 257.594 712 257.781C711.969 257.938 711.953 258.141 711.953 258.391C711.953 258.641 711.953 258.938 711.953 259.281C711.953 260.125 711.984 261.297 712.047 262.797C712.109 264.266 712.266 266.031 712.516 268.094C709.953 268.031 707.562 268 705.344 268C703.125 268 701.031 268 699.062 268C695.156 268 691.828 268.031 689.078 268.094C686.328 268.156 684.062 268.219 682.281 268.281C680.219 268.375 678.516 268.469 677.172 268.562C677.141 268.469 677.125 268.344 677.125 268.188C677.094 268.062 677.078 267.906 677.078 267.719C677.078 267.531 677.078 267.312 677.078 267.062C677.078 266 677.203 264.5 677.453 262.562C677.703 260.625 678.25 258.438 679.094 256C679.969 253.531 681.25 250.922 682.938 248.172C684.656 245.422 686.969 242.688 689.875 239.969C691.594 238.344 693.203 236.688 694.703 235C696.203 233.312 697.516 231.531 698.641 229.656C699.766 227.781 700.641 225.781 701.266 223.656C701.922 221.5 702.25 219.156 702.25 216.625C702.25 214.562 702.047 212.859 701.641 211.516C701.234 210.141 700.672 209.062 699.953 208.281C699.266 207.469 698.453 206.906 697.516 206.594C696.609 206.25 695.625 206.078 694.562 206.078C694.094 206.109 693.625 206.188 693.156 206.312C692.75 206.438 692.297 206.625 691.797 206.875C691.297 207.125 690.812 207.469 690.344 207.906C690.812 208.531 691.172 209.188 691.422 209.875C691.703 210.562 691.922 211.203 692.078 211.797C692.234 212.484 692.328 213.172 692.359 213.859C692.359 214.953 692.141 215.906 691.703 216.719C691.266 217.531 690.703 218.219 690.016 218.781C689.359 219.344 688.625 219.766 687.812 220.047C687 220.328 686.203 220.469 685.422 220.469C684.828 220.469 684.031 220.391 683.031 220.234C682.062 220.047 681.109 219.641 680.172 219.016C679.234 218.391 678.422 217.469 677.734 216.25C677.047 215.031 676.703 213.375 676.703 211.281C676.703 209.219 677.172 207.359 678.109 205.703C679.078 204.016 680.359 202.578 681.953 201.391C683.578 200.172 685.453 199.25 687.578 198.625C689.703 197.969 691.938 197.641 694.281 197.641C696.594 197.641 698.891 198.047 701.172 198.859C703.453 199.672 705.484 200.891 707.266 202.516C709.078 204.141 710.547 206.172 711.672 208.609C712.797 211.016 713.359 213.828 713.359 217.047C713.359 220.953 712.812 224.406 711.719 227.406C710.656 230.375 709.312 233.047 707.688 235.422C706.062 237.766 704.281 239.906 702.344 241.844C700.438 243.75 698.641 245.594 696.953 247.375C694.703 249.719 692.969 251.984 691.75 254.172C690.562 256.328 689.703 258.156 689.172 259.656C692.359 259.562 695.344 259.391 698.125 259.141C700.906 258.891 703.328 258.641 705.391 258.391C707.453 258.141 709.078 257.906 710.266 257.688C711.453 257.469 712.047 257.328 712.047 257.266ZM739.469 268.75C739.531 266.156 739.594 263.469 739.656 260.688C739.719 257.875 739.75 255 739.75 252.062H716.781L716.594 244.656C717 244.125 717.594 243.094 718.375 241.562C719.156 240.031 720.047 238.203 721.047 236.078C722.078 233.922 723.172 231.562 724.328 229C725.516 226.438 726.688 223.859 727.844 221.266C730.562 215.203 733.531 208.484 736.75 201.109H750.766C750.703 203.047 750.641 205.031 750.578 207.062C750.547 209.062 750.516 211.047 750.484 213.016C750.453 214.953 750.422 216.828 750.391 218.641C750.391 220.453 750.391 222.125 750.391 223.656C750.391 227.281 750.406 230.547 750.438 233.453C750.469 236.359 750.516 239.203 750.578 241.984H755.125V252.062H751C751.094 254.5 751.203 257.031 751.328 259.656C751.484 262.281 751.656 264.906 751.844 267.531L739.469 268.75ZM739.844 234.672C739.844 231.828 739.844 229.047 739.844 226.328C739.844 223.578 739.812 220.922 739.75 218.359L729.109 241.984H739.844V234.672Z" fill="white"/>
<path d="M460 381.078C457.469 381.016 455.109 380.969 452.922 380.938C450.766 380.938 448.719 380.938 446.781 380.938C443 380.938 439.828 380.969 437.266 381.031C434.734 381.125 432.672 381.203 431.078 381.266C429.203 381.359 427.719 381.453 426.625 381.547C426.844 379.453 427.031 377.344 427.188 375.219C427.375 373.094 427.531 371 427.656 368.938C427.781 366.875 427.891 364.891 427.984 362.984C428.078 361.078 428.156 359.281 428.219 357.594C428.344 353.656 428.422 349.891 428.453 346.297C428.422 342.547 428.344 338.703 428.219 334.766C428.156 333.078 428.078 331.312 427.984 329.469C427.891 327.594 427.781 325.688 427.656 323.75C427.531 321.812 427.375 319.875 427.188 317.938C427.031 315.969 426.844 314.062 426.625 312.219C430.531 312.375 434.016 312.5 437.078 312.594C440.172 312.656 442.922 312.688 445.328 312.688C447.703 312.688 449.75 312.672 451.469 312.641C453.188 312.578 454.594 312.516 455.688 312.453C456.969 312.391 458.031 312.312 458.875 312.219C458.875 312.188 458.875 312.469 458.875 313.062C458.875 313.656 458.891 314.438 458.922 315.406C458.953 316.375 459 317.469 459.062 318.688C459.156 319.906 459.281 321.141 459.438 322.391C455.812 322.047 452.641 321.828 449.922 321.734C447.203 321.609 444.875 321.547 442.938 321.547C442.125 321.547 441.406 321.547 440.781 321.547C440.188 321.547 439.625 321.578 439.094 321.641C439.031 325.109 438.984 328.375 438.953 331.438C438.922 334.469 438.906 337.344 438.906 340.062C441.094 340 443.047 339.922 444.766 339.828C446.484 339.703 447.953 339.562 449.172 339.406C450.578 339.25 451.828 339.078 452.922 338.891C452.891 339.109 452.875 339.359 452.875 339.641C452.844 339.891 452.828 340.188 452.828 340.531C452.828 340.875 452.828 341.266 452.828 341.703C452.828 342.703 452.859 343.906 452.922 345.312C452.984 346.688 453.109 348.172 453.297 349.766C449.922 349.328 447.016 349.062 444.578 348.969C442.141 348.844 440.25 348.781 438.906 348.781C438.906 352.031 438.922 354.938 438.953 357.5C438.984 360.031 439.016 362.266 439.047 364.203C439.109 366.141 439.156 367.797 439.188 369.172C439.25 370.547 439.312 371.688 439.375 372.594C442.562 372.531 445.406 372.375 447.906 372.125C450.406 371.875 452.516 371.625 454.234 371.375C455.953 371.094 457.266 370.844 458.172 370.625C459.078 370.406 459.531 370.266 459.531 370.203C459.5 370.359 459.484 370.531 459.484 370.719C459.453 370.875 459.438 371.078 459.438 371.328C459.438 371.578 459.438 371.875 459.438 372.219C459.438 373.094 459.469 374.266 459.531 375.734C459.594 377.203 459.75 378.984 460 381.078ZM504.344 365.891C504.344 368.828 503.812 371.391 502.75 373.578C501.688 375.734 500.328 377.531 498.672 378.969C497.016 380.375 495.188 381.422 493.188 382.109C491.188 382.828 489.266 383.188 487.422 383.188C484.359 383.188 481.375 382.484 478.469 381.078C475.562 379.703 472.953 377.547 470.641 374.609C468.359 371.641 466.516 367.844 465.109 363.219C463.734 358.562 463.047 352.984 463.047 346.484C463.047 342.141 463.375 338.266 464.031 334.859C464.719 331.453 465.625 328.453 466.75 325.859C467.906 323.266 469.25 321.062 470.781 319.25C472.344 317.406 474.016 315.922 475.797 314.797C477.578 313.641 479.422 312.797 481.328 312.266C483.234 311.734 485.109 311.469 486.953 311.469C489.734 311.469 492.125 311.859 494.125 312.641C496.156 313.422 497.828 314.422 499.141 315.641C500.453 316.859 501.422 318.219 502.047 319.719C502.672 321.219 502.984 322.688 502.984 324.125C502.984 325.562 502.781 326.859 502.375 328.016C502 329.141 501.484 330.094 500.828 330.875C500.172 331.656 499.391 332.25 498.484 332.656C497.578 333.062 496.609 333.266 495.578 333.266C494.703 333.266 493.828 333.109 492.953 332.797C492.078 332.484 491.297 332.031 490.609 331.438C489.922 330.844 489.359 330.125 488.922 329.281C488.516 328.406 488.312 327.422 488.312 326.328C488.344 325.703 488.422 325.047 488.547 324.359C488.672 323.766 488.859 323.125 489.109 322.438C489.391 321.719 489.797 321 490.328 320.281C489.859 319.844 489.359 319.5 488.828 319.25C488.297 318.969 487.812 318.766 487.375 318.641C486.844 318.516 486.312 318.422 485.781 318.359C484.562 318.359 483.484 318.734 482.547 319.484C481.609 320.234 480.797 321.281 480.109 322.625C479.422 323.938 478.844 325.5 478.375 327.312C477.906 329.125 477.531 331.094 477.25 333.219C477 335.344 476.812 337.578 476.688 339.922C476.562 342.234 476.5 344.578 476.5 346.953C476.5 350.516 476.688 354.031 477.062 357.5C477.469 360.938 478.109 364.031 478.984 366.781C479.891 369.5 481.078 371.703 482.547 373.391C484.047 375.047 485.875 375.875 488.031 375.875C489.344 375.781 490.531 375.406 491.594 374.75C492.062 374.469 492.516 374.125 492.953 373.719C493.391 373.281 493.781 372.75 494.125 372.125C494.5 371.469 494.797 370.719 495.016 369.875C495.266 369.031 495.422 368.047 495.484 366.922C494.953 367.141 494.344 367.25 493.656 367.25C492.906 367.25 492.172 367.094 491.453 366.781C490.766 366.438 490.141 365.984 489.578 365.422C489.016 364.828 488.562 364.141 488.219 363.359C487.875 362.547 487.703 361.656 487.703 360.688C487.703 359.219 488.031 358.016 488.688 357.078C489.375 356.109 490.156 355.344 491.031 354.781C491.906 354.219 492.766 353.828 493.609 353.609C494.453 353.359 495.047 353.234 495.391 353.234C495.641 353.234 496.031 353.281 496.562 353.375C497.094 353.438 497.688 353.609 498.344 353.891C499.031 354.172 499.719 354.594 500.406 355.156C501.125 355.688 501.766 356.422 502.328 357.359C502.922 358.297 503.406 359.469 503.781 360.875C504.156 362.25 504.344 363.922 504.344 365.891ZM542.219 381.078C539.688 381.016 537.328 380.969 535.141 380.938C532.984 380.938 530.938 380.938 529 380.938C525.219 380.938 522.047 380.969 519.484 381.031C516.953 381.125 514.891 381.203 513.297 381.266C511.422 381.359 509.938 381.453 508.844 381.547C509.062 379.453 509.25 377.344 509.406 375.219C509.594 373.094 509.75 371 509.875 368.938C510 366.875 510.109 364.891 510.203 362.984C510.297 361.078 510.375 359.281 510.438 357.594C510.562 353.656 510.641 349.891 510.672 346.297C510.641 342.547 510.562 338.703 510.438 334.766C510.375 333.078 510.297 331.312 510.203 329.469C510.109 327.594 510 325.688 509.875 323.75C509.75 321.812 509.594 319.875 509.406 317.938C509.25 315.969 509.062 314.062 508.844 312.219C512.75 312.375 516.234 312.5 519.297 312.594C522.391 312.656 525.141 312.688 527.547 312.688C529.922 312.688 531.969 312.672 533.688 312.641C535.406 312.578 536.812 312.516 537.906 312.453C539.188 312.391 540.25 312.312 541.094 312.219C541.094 312.188 541.094 312.469 541.094 313.062C541.094 313.656 541.109 314.438 541.141 315.406C541.172 316.375 541.219 317.469 541.281 318.688C541.375 319.906 541.5 321.141 541.656 322.391C538.031 322.047 534.859 321.828 532.141 321.734C529.422 321.609 527.094 321.547 525.156 321.547C524.344 321.547 523.625 321.547 523 321.547C522.406 321.547 521.844 321.578 521.312 321.641C521.25 325.109 521.203 328.375 521.172 331.438C521.141 334.469 521.125 337.344 521.125 340.062C523.312 340 525.266 339.922 526.984 339.828C528.703 339.703 530.172 339.562 531.391 339.406C532.797 339.25 534.047 339.078 535.141 338.891C535.109 339.109 535.094 339.359 535.094 339.641C535.062 339.891 535.047 340.188 535.047 340.531C535.047 340.875 535.047 341.266 535.047 341.703C535.047 342.703 535.078 343.906 535.141 345.312C535.203 346.688 535.328 348.172 535.516 349.766C532.141 349.328 529.234 349.062 526.797 348.969C524.359 348.844 522.469 348.781 521.125 348.781C521.125 352.031 521.141 354.938 521.172 357.5C521.203 360.031 521.234 362.266 521.266 364.203C521.328 366.141 521.375 367.797 521.406 369.172C521.469 370.547 521.531 371.688 521.594 372.594C524.781 372.531 527.625 372.375 530.125 372.125C532.625 371.875 534.734 371.625 536.453 371.375C538.172 371.094 539.484 370.844 540.391 370.625C541.297 370.406 541.75 370.266 541.75 370.203C541.719 370.359 541.703 370.531 541.703 370.719C541.672 370.875 541.656 371.078 541.656 371.328C541.656 371.578 541.656 371.875 541.656 372.219C541.656 373.094 541.688 374.266 541.75 375.734C541.812 377.203 541.969 378.984 542.219 381.078ZM558.578 375.594C558.578 376.438 558.406 377.234 558.062 377.984C557.75 378.703 557.312 379.344 556.75 379.906C556.219 380.469 555.578 380.906 554.828 381.219C554.078 381.562 553.281 381.734 552.438 381.734C551.594 381.734 550.781 381.562 550 381.219C549.25 380.906 548.594 380.469 548.031 379.906C547.469 379.344 547.016 378.703 546.672 377.984C546.359 377.234 546.203 376.438 546.203 375.594C546.203 374.719 546.359 373.906 546.672 373.156C547.016 372.406 547.469 371.75 548.031 371.188C548.594 370.625 549.25 370.188 550 369.875C550.781 369.531 551.594 369.359 552.438 369.359C553.281 369.359 554.078 369.531 554.828 369.875C555.578 370.188 556.219 370.625 556.75 371.188C557.312 371.75 557.75 372.406 558.062 373.156C558.406 373.906 558.578 374.719 558.578 375.594ZM576.719 307.906C576.531 311.719 576.359 315.25 576.203 318.5C576.047 321.75 575.906 324.812 575.781 327.688C575.688 330.562 575.609 333.297 575.547 335.891C575.484 338.484 575.422 341.047 575.359 343.578C575.328 346.109 575.297 348.656 575.266 351.219C575.266 353.781 575.266 356.469 575.266 359.281C575.266 362.406 575.266 365.75 575.266 369.312C575.266 372.875 575.297 376.828 575.359 381.172L564.719 380.938C564.906 376.219 565.031 371.578 565.094 367.016C565.156 362.422 565.188 357.719 565.188 352.906C565.188 349.688 565.172 346.391 565.141 343.016C565.109 339.609 565.062 336.062 565 332.375C564.938 328.656 564.859 324.75 564.766 320.656C564.703 316.562 564.625 312.219 564.531 307.625L576.719 307.906ZM618.625 329.422C618.438 331.266 618.281 333.141 618.156 335.047C618.031 336.922 617.906 338.797 617.781 340.672C617.688 342.547 617.594 344.375 617.5 346.156C617.406 347.906 617.328 349.578 617.266 351.172C617.109 354.891 616.984 358.484 616.891 361.953C616.703 365.641 616.594 369.297 616.562 372.922C616.562 376.516 616.453 379.938 616.234 383.188C616.016 386.469 615.594 389.5 614.969 392.281C614.375 395.094 613.391 397.516 612.016 399.547C610.641 401.609 608.781 403.219 606.438 404.375C604.125 405.531 601.141 406.109 597.484 406.109C594.734 406.109 592.531 405.703 590.875 404.891C589.25 404.109 588 403.141 587.125 401.984C586.25 400.859 585.672 399.656 585.391 398.375C585.141 397.094 585.016 395.953 585.016 394.953C585.016 393.891 585.172 392.891 585.484 391.953C585.828 391.047 586.297 390.25 586.891 389.562C587.484 388.875 588.203 388.328 589.047 387.922C589.922 387.516 590.906 387.312 592 387.312C593.156 387.312 594.188 387.531 595.094 387.969C596 388.406 596.75 388.969 597.344 389.656C597.969 390.375 598.438 391.172 598.75 392.047C599.062 392.922 599.219 393.797 599.219 394.672C599.188 395.172 599.078 395.688 598.891 396.219C598.734 396.656 598.453 397.141 598.047 397.672C597.672 398.234 597.141 398.781 596.453 399.312C596.828 399.469 597.172 399.562 597.484 399.594C597.828 399.656 598.156 399.688 598.469 399.688C599.281 399.688 600.125 399.438 601 398.938C601.906 398.469 602.734 397.719 603.484 396.688C604.234 395.656 604.859 394.359 605.359 392.797C605.859 391.234 606.141 389.375 606.203 387.219C606.203 384.875 606.203 382.578 606.203 380.328C606.234 378.078 606.281 375.594 606.344 372.875C605.281 374.906 604.141 376.484 602.922 377.609C601.703 378.703 600.547 379.516 599.453 380.047C598.203 380.672 596.938 381.047 595.656 381.172C593.344 381.172 591.328 380.594 589.609 379.438C587.891 378.281 586.469 376.641 585.344 374.516C584.219 372.391 583.375 369.844 582.812 366.875C582.281 363.875 582.016 360.531 582.016 356.844C582.016 346.625 582.719 336.875 584.125 327.594L596.031 328.906C595.781 329.938 595.531 331.062 595.281 332.281C595.062 333.5 594.859 334.766 594.672 336.078C594.484 337.391 594.312 338.719 594.156 340.062C594.031 341.375 593.906 342.641 593.781 343.859C593.5 346.734 593.266 349.656 593.078 352.625C593.078 355.594 593.172 358.188 593.359 360.406C593.547 362.594 593.875 364.422 594.344 365.891C594.844 367.328 595.516 368.406 596.359 369.125C597.203 369.844 598.281 370.203 599.594 370.203C600.531 370.047 601.438 369.391 602.312 368.234C602.688 367.734 603.078 367.109 603.484 366.359C603.891 365.609 604.297 364.688 604.703 363.594C605.109 362.5 605.5 361.219 605.875 359.75C606.25 358.25 606.594 356.516 606.906 354.547C607 352.109 607.062 349.891 607.094 347.891C607.156 345.859 607.188 343.922 607.188 342.078C607.188 339.859 607.141 337.734 607.047 335.703C606.953 333.641 606.812 331.484 606.625 329.234L618.625 329.422ZM641.219 382.672C638.125 382.672 635.453 382 633.203 380.656C630.984 379.312 629.141 377.438 627.672 375.031C626.234 372.625 625.172 369.766 624.484 366.453C623.797 363.141 623.453 359.531 623.453 355.625C623.453 351.094 623.859 346.938 624.672 343.156C625.484 339.375 626.672 336.125 628.234 333.406C629.828 330.688 631.781 328.578 634.094 327.078C636.438 325.547 639.125 324.781 642.156 324.781C645.219 324.781 647.859 325.422 650.078 326.703C652.297 327.984 654.125 329.781 655.562 332.094C657.031 334.406 658.109 337.172 658.797 340.391C659.484 343.609 659.828 347.156 659.828 351.031C659.828 353.031 659.703 355.203 659.453 357.547C659.234 359.891 658.844 362.234 658.281 364.578C657.75 366.922 657.031 369.188 656.125 371.375C655.219 373.531 654.078 375.453 652.703 377.141C651.328 378.828 649.688 380.172 647.781 381.172C645.906 382.172 643.719 382.672 641.219 382.672ZM648.531 347.562C648.531 345.188 648.422 343.062 648.203 341.188C647.984 339.281 647.625 337.672 647.125 336.359C646.656 335.047 646.047 334.047 645.297 333.359C644.578 332.641 643.703 332.281 642.672 332.281C641.547 332.281 640.5 332.875 639.531 334.062C638.562 335.25 637.703 336.969 636.953 339.219C636.234 341.469 635.656 344.219 635.219 347.469C634.812 350.688 634.609 354.328 634.609 358.391C634.609 361.016 634.734 363.375 634.984 365.469C635.234 367.531 635.609 369.297 636.109 370.766C636.609 372.203 637.219 373.312 637.938 374.094C638.688 374.844 639.562 375.219 640.562 375.219C641.562 375.219 642.453 374.812 643.234 374C644.016 373.156 644.688 372.031 645.25 370.625C645.844 369.219 646.344 367.594 646.75 365.75C647.188 363.875 647.531 361.922 647.781 359.891C648.031 357.828 648.219 355.734 648.344 353.609C648.469 351.484 648.531 349.469 648.531 347.562ZM677.5 328.062L677.219 331.906C678.25 330.188 679.344 328.875 680.5 327.969C681.688 327.062 682.781 326.422 683.781 326.047C684.781 325.672 685.609 325.469 686.266 325.438C686.953 325.406 687.328 325.391 687.391 325.391C689.703 325.391 691.719 325.922 693.438 326.984C695.156 328.047 696.578 329.594 697.703 331.625C698.828 333.625 699.656 336.078 700.188 338.984C700.75 341.859 701.031 345.125 701.031 348.781C701.031 351.469 700.984 354.219 700.891 357.031C700.828 359.812 700.672 362.594 700.422 365.375C700.203 368.125 699.891 370.812 699.484 373.438C699.109 376.062 698.594 378.562 697.938 380.938L687.016 379.625C687.734 375.906 688.297 372.438 688.703 369.219C689.109 366 689.406 363.188 689.594 360.781C689.812 357.969 689.938 355.391 689.969 353.047C689.969 350.078 689.875 347.5 689.688 345.312C689.5 343.094 689.156 341.266 688.656 339.828C688.188 338.359 687.531 337.266 686.688 336.547C685.844 335.828 684.766 335.469 683.453 335.469C682.578 335.656 681.703 336.281 680.828 337.344C680.078 338.25 679.281 339.703 678.438 341.703C677.594 343.672 676.859 346.453 676.234 350.047C676.141 352.484 676.078 354.906 676.047 357.312C676.047 359.688 676.047 362.219 676.047 364.906C676.047 367.188 676.047 369.641 676.047 372.266C676.047 374.891 676.078 377.859 676.141 381.172L665.5 380.938C665.594 377.75 665.656 374.375 665.688 370.812C665.75 367.219 665.781 363.234 665.781 358.859C665.781 354.516 665.75 349.812 665.688 344.75C665.625 339.688 665.5 334.062 665.312 327.875L677.5 328.062Z" fill="#D91D1D"/>
</svg>
